<svg width="32" height="32" viewBox="0 0 32 32" fill="none" xmlns="http://www.w3.org/2000/svg">
<rect width="32" height="32" rx="16" fill="#FAF6F5"/>
<path fill-rule="evenodd" clip-rule="evenodd" d="M16 6C10.477 6 6 10.477 6 16C6 17.89 6.525 19.66 7.438 21.168L6.546 24.2C6.49478 24.3741 6.49141 24.5587 6.53624 24.7346C6.58107 24.9104 6.67245 25.0709 6.80076 25.1992C6.92907 25.3276 7.08958 25.4189 7.26542 25.4638C7.44125 25.5086 7.62592 25.5052 7.8 25.454L10.832 24.562C12.3907 25.5049 14.1782 26.0023 16 26C21.523 26 26 21.523 26 16C26 10.477 21.523 6 16 6ZM13.738 18.263C15.761 20.285 17.692 20.552 18.374 20.577C19.411 20.615 20.421 19.823 20.814 18.904C20.8632 18.7896 20.881 18.6641 20.8655 18.5405C20.85 18.417 20.8019 18.2998 20.726 18.201C20.178 17.501 19.437 16.998 18.713 16.498C18.5619 16.3932 18.3761 16.3512 18.1946 16.3806C18.0131 16.4101 17.8502 16.5088 17.74 16.656L17.14 17.571C17.1083 17.62 17.0591 17.6551 17.0025 17.6692C16.9459 17.6833 16.886 17.6754 16.835 17.647C16.428 17.414 15.835 17.018 15.409 16.592C14.983 16.166 14.611 15.6 14.402 15.219C14.3767 15.1705 14.3696 15.1145 14.3819 15.0611C14.3941 15.0078 14.425 14.9606 14.469 14.928L15.393 14.242C15.5252 14.1276 15.6106 13.9684 15.6328 13.7949C15.6549 13.6215 15.6123 13.446 15.513 13.302C15.065 12.646 14.543 11.812 13.786 11.259C13.6881 11.1887 13.5737 11.1448 13.4539 11.1317C13.334 11.1185 13.2128 11.1365 13.102 11.184C12.182 11.578 11.386 12.588 11.424 13.627C11.449 14.309 11.716 16.24 13.738 18.263Z" fill="#969393"/>
</svg>
