<svg width="48" height="48" viewBox="0 0 48 48" fill="none" xmlns="http://www.w3.org/2000/svg">
<g opacity="0.5" clip-path="url(#clip0_119_3833)">
<path d="M45 19.5C45 19.9531 44.9219 20.3672 44.7656 20.7422C44.6094 21.1172 44.3906 21.4766 44.1094 21.8203C43.8281 22.1641 43.5234 22.4609 43.1953 22.7109C42.8672 22.9609 42.5156 23.1953 42.1406 23.4141C41.9688 23.5234 41.8125 23.5938 41.6719 23.625C41.5312 23.6562 41.375 23.7578 41.2031 23.9297L30 35.1328V45.75C30 46.375 29.7812 46.9062 29.3438 47.3438C28.9062 47.7812 28.375 48 27.75 48H17.25C16.625 48 16.0938 47.7812 15.6562 47.3438C15.2188 46.9062 15 46.375 15 45.75V35.1328L3.79688 23.9297C3.64062 23.7734 3.49219 23.6797 3.35156 23.6484C3.21094 23.6172 3.04688 23.5391 2.85938 23.4141C2.5 23.2109 2.14844 22.9766 1.80469 22.7109C1.46094 22.4453 1.15625 22.1484 0.890625 21.8203C0.625 21.4922 0.414062 21.1406 0.257812 20.7656C0.101562 20.3906 0.015625 19.9688 0 19.5C0 17.5156 0.296875 15.6562 0.890625 13.9219C1.48438 12.1875 2.3125 10.6016 3.375 9.16406C4.4375 7.72656 5.6875 6.4375 7.125 5.29688C8.5625 4.15625 10.1094 3.19531 11.7656 2.41406C13.4219 1.63281 15.1641 1.03906 16.9922 0.632812C18.8203 0.226562 20.6562 0.015625 22.5 0C24.3281 0 26.1562 0.203125 27.9844 0.609375C29.8125 1.01562 31.5547 1.61719 33.2109 2.41406C34.8672 3.21094 36.4219 4.16406 37.875 5.27344C39.3281 6.38281 40.5703 7.67188 41.6016 9.14062C42.6328 10.6094 43.4609 12.2031 44.0859 13.9219C44.7109 15.6406 45.0156 17.5 45 19.5ZM22.5 3C20.9531 3 19.3984 3.17188 17.8359 3.51562C16.2734 3.85938 14.7656 4.35938 13.3125 5.01562C11.8594 5.67188 10.5078 6.46875 9.25781 7.40625C8.00781 8.34375 6.92188 9.42969 6 10.6641C5.07812 11.8984 4.34375 13.25 3.79688 14.7188C3.25 16.1875 2.98438 17.7812 3 19.5C3 19.625 3.03906 19.7422 3.11719 19.8516C3.19531 19.9609 3.28906 20.0703 3.39844 20.1797C3.50781 20.2891 3.625 20.3828 3.75 20.4609C3.875 20.5391 3.97656 20.6016 4.05469 20.6484C4.77344 21.1016 5.60938 21.5 6.5625 21.8438C7.51562 22.1875 8.54688 22.4844 9.65625 22.7344C10.7656 22.9844 11.8906 23.1875 13.0312 23.3438C14.1719 23.5 15.3203 23.625 16.4766 23.7188C17.6328 23.8125 18.7109 23.8828 19.7109 23.9297C20.7109 23.9766 21.6406 24 22.5 24C23.3125 24 24.2344 23.9844 25.2656 23.9531C26.2969 23.9219 27.375 23.8516 28.5 23.7422C29.625 23.6328 30.7734 23.5 31.9453 23.3438C33.1172 23.1875 34.25 22.9844 35.3438 22.7344C36.4375 22.4844 37.4609 22.1875 38.4141 21.8438C39.3672 21.5 40.2109 21.1016 40.9453 20.6484C41.0234 20.6016 41.1172 20.5391 41.2266 20.4609C41.3359 20.3828 41.4531 20.2891 41.5781 20.1797C41.7031 20.0703 41.8047 19.9609 41.8828 19.8516C41.9609 19.7422 42 19.625 42 19.5C42 17.7969 41.7344 16.2109 41.2031 14.7422C40.6719 13.2734 39.9453 11.9219 39.0234 10.6875C38.1016 9.45312 37.0078 8.36719 35.7422 7.42969C34.4766 6.49219 33.1328 5.6875 31.7109 5.01562C30.2891 4.34375 28.7812 3.84375 27.1875 3.51562C25.5938 3.1875 24.0312 3.01562 22.5 3ZM21 26.9766C19.1562 26.9453 17.3125 26.8438 15.4688 26.6719C13.625 26.5 11.7969 26.2266 9.98438 25.8516L17.1328 33H21V26.9766ZM27 36H18V45H27V36ZM35.0156 25.8516C33.2031 26.2109 31.375 26.4766 29.5312 26.6484C27.6875 26.8203 25.8438 26.9297 24 26.9766V33H27.8672L35.0156 25.8516Z" fill="black"/>
</g>
<defs>
<clipPath id="clip0_119_3833">
<rect width="48" height="48" fill="white"/>
</clipPath>
</defs>
</svg>
