<svg width="48" height="48" viewBox="0 0 48 48" fill="none" xmlns="http://www.w3.org/2000/svg">
<g opacity="0.5">
<path fill-rule="evenodd" clip-rule="evenodd" d="M24 18.5C22.0109 18.5 20.1032 19.2902 18.6967 20.6967C17.2902 22.1032 16.5 24.0109 16.5 26C16.5 27.9891 17.2902 29.8968 18.6967 31.3033C20.1032 32.7098 22.0109 33.5 24 33.5C25.9891 33.5 27.8968 32.7098 29.3033 31.3033C30.7098 29.8968 31.5 27.9891 31.5 26C31.5 24.0109 30.7098 22.1032 29.3033 20.6967C27.8968 19.2902 25.9891 18.5 24 18.5ZM19.5 26C19.5 24.8065 19.9741 23.6619 20.818 22.818C21.6619 21.9741 22.8065 21.5 24 21.5C25.1935 21.5 26.3381 21.9741 27.182 22.818C28.0259 23.6619 28.5 24.8065 28.5 26C28.5 27.1935 28.0259 28.3381 27.182 29.182C26.3381 30.0259 25.1935 30.5 24 30.5C22.8065 30.5 21.6619 30.0259 20.818 29.182C19.9741 28.3381 19.5 27.1935 19.5 26Z" fill="black"/>
<path d="M20 36.5C19.6022 36.5 19.2206 36.658 18.9393 36.9393C18.658 37.2206 18.5 37.6022 18.5 38C18.5 38.3978 18.658 38.7794 18.9393 39.0607C19.2206 39.342 19.6022 39.5 20 39.5H28C28.3978 39.5 28.7794 39.342 29.0607 39.0607C29.342 38.7794 29.5 38.3978 29.5 38C29.5 37.6022 29.342 37.2206 29.0607 36.9393C28.7794 36.658 28.3978 36.5 28 36.5H20Z" fill="black"/>
<path fill-rule="evenodd" clip-rule="evenodd" d="M31.222 3.1681C32.002 3.05664 32.7969 3.11408 33.5528 3.33654C34.3087 3.559 35.008 3.94129 35.6033 4.45751C36.1986 4.97373 36.676 5.61184 37.0033 6.32862C37.3305 7.04541 37.4999 7.82414 37.5 8.6121V11.3661C38.7073 12.0031 39.7179 12.9576 40.4228 14.1267C41.1277 15.2957 41.5001 16.635 41.5 18.0001V38.0001C41.5 39.9892 40.7098 41.8969 39.3033 43.3034C37.8968 44.7099 35.9891 45.5001 34 45.5001H14C12.0109 45.5001 10.1032 44.7099 8.6967 43.3034C7.29018 41.8969 6.5 39.9892 6.5 38.0001V10.0001V9.8581C6.5 8.0461 7.832 6.5081 9.628 6.2521L31.222 3.1681ZM10.142 13.5001H9.5V38.0001C9.5 39.1936 9.97411 40.3382 10.818 41.1821C11.6619 42.026 12.8065 42.5001 14 42.5001H34C35.1935 42.5001 36.3381 42.026 37.182 41.1821C38.0259 40.3382 38.5 39.1936 38.5 38.0001V18.0001C38.5 16.8101 38.0287 15.6685 37.1891 14.8252C36.3495 13.9818 35.21 13.5054 34.02 13.5001H10.142ZM34.5 10.5001H10.134C9.97179 10.4987 9.8161 10.436 9.69825 10.3245C9.58039 10.2131 9.50911 10.0611 9.49872 9.89923C9.48833 9.73734 9.53961 9.57752 9.64226 9.45191C9.7449 9.32629 9.89129 9.24418 10.052 9.2221L31.646 6.1401C32.0005 6.08938 32.3618 6.11544 32.7054 6.2165C33.049 6.31756 33.3669 6.49127 33.6375 6.72586C33.9082 6.96045 34.1252 7.25045 34.274 7.57623C34.4228 7.902 34.4999 8.25595 34.5 8.6141V10.5001Z" fill="black"/>
</g>
</svg>
