<svg width="48" height="48" viewBox="0 0 48 48" fill="none" xmlns="http://www.w3.org/2000/svg">
<g opacity="0.5" clip-path="url(#clip0_119_3823)">
<path d="M47.2045 16.6765L24.7045 4.67649C24.4875 4.56093 24.2454 4.50049 23.9995 4.50049C23.7537 4.50049 23.5116 4.56093 23.2945 4.67649L0.794531 16.6765C0.554539 16.8044 0.353832 16.9951 0.213881 17.2283C0.07393 17.4615 0 17.7283 0 18.0002C0 18.2722 0.07393 18.539 0.213881 18.7722C0.353832 19.0054 0.554539 19.1961 0.794531 19.324L5.99953 22.1009V31.1796C5.99779 31.9164 6.26898 32.6278 6.76078 33.1765C9.21703 35.9121 14.7202 40.5002 23.9995 40.5002C27.0763 40.5257 30.1301 39.9684 32.9995 38.8577V45.0002C32.9995 45.3981 33.1576 45.7796 33.4389 46.0609C33.7202 46.3422 34.1017 46.5002 34.4995 46.5002C34.8974 46.5002 35.2789 46.3422 35.5602 46.0609C35.8415 45.7796 35.9995 45.3981 35.9995 45.0002V37.4084C37.9556 36.2793 39.7232 34.8514 41.2383 33.1765C41.7301 32.6278 42.0013 31.9164 41.9995 31.1796V22.1009L47.2045 19.324C47.4445 19.1961 47.6452 19.0054 47.7852 18.7722C47.9251 18.539 47.9991 18.2722 47.9991 18.0002C47.9991 17.7283 47.9251 17.4615 47.7852 17.2283C47.6452 16.9951 47.4445 16.8044 47.2045 16.6765ZM23.9995 37.5002C15.8864 37.5002 11.1145 33.5365 8.99953 31.1796V23.7002L23.2945 31.324C23.5116 31.4395 23.7537 31.5 23.9995 31.5C24.2454 31.5 24.4875 31.4395 24.7045 31.324L32.9995 26.9009V35.5896C30.637 36.6921 27.6595 37.5002 23.9995 37.5002ZM38.9995 31.1721C38.1004 32.1699 37.0944 33.0659 35.9995 33.844V25.2996L38.9995 23.7002V31.1721ZM35.2495 22.3015L35.2083 22.2771L24.7083 16.6765C24.358 16.4976 23.9514 16.4634 23.5761 16.5814C23.2008 16.6993 22.8869 16.96 22.702 17.3072C22.5171 17.6544 22.476 18.0604 22.5875 18.4376C22.699 18.8148 22.9543 19.1332 23.2983 19.324L32.062 24.0002L23.9995 28.2996L4.68703 18.0002L23.9995 7.70086L43.312 18.0002L35.2495 22.3015Z" fill="black"/>
</g>
<defs>
<clipPath id="clip0_119_3823">
<rect width="48" height="48" fill="white"/>
</clipPath>
</defs>
</svg>
