<svg width="32" height="32" viewBox="0 0 32 32" fill="none" xmlns="http://www.w3.org/2000/svg">
<rect width="32" height="32" rx="16" fill="#FAF6F5"/>
<path fill-rule="evenodd" clip-rule="evenodd" d="M23.7767 8.43003C24.0238 8.32602 24.2943 8.29015 24.5599 8.32614C24.8256 8.36214 25.0768 8.46869 25.2873 8.63471C25.4979 8.80073 25.6601 9.02014 25.757 9.27011C25.854 9.52008 25.8822 9.79147 25.8387 10.056L23.5707 23.813C23.3507 25.14 21.8947 25.901 20.6777 25.24C19.6597 24.687 18.1477 23.835 16.7877 22.946C16.1077 22.501 14.0247 21.076 14.2807 20.062C14.5007 19.195 18.0007 15.937 20.0007 14C20.7857 13.239 20.4277 12.8 19.5007 13.5C17.1987 15.238 13.5027 17.881 12.2807 18.625C11.2027 19.281 10.6407 19.393 9.96865 19.281C8.74265 19.077 7.60565 18.761 6.67765 18.376C5.42365 17.856 5.48465 16.132 6.67665 15.63L23.7767 8.43003Z" fill="#969393"/>
</svg>
