<svg width="32" height="32" viewBox="0 0 32 32" fill="none" xmlns="http://www.w3.org/2000/svg">
<rect width="32" height="32" rx="16" fill="#FAF6F5"/>
<path d="M25.5831 22.1897H23.3011C22.4381 22.1897 22.1781 21.4907 20.6311 19.9427C19.2791 18.6397 18.7081 18.4777 18.3661 18.4777C17.8931 18.4777 17.7641 18.6077 17.7641 19.2587V21.3107C17.7641 21.8657 17.5841 22.1907 16.1341 22.1907C14.7274 22.0962 13.3633 21.6689 12.1541 20.9439C10.9449 20.2189 9.92523 19.217 9.1791 18.0207C7.40811 15.8154 6.17551 13.2276 5.5791 10.4627C5.5791 10.1207 5.7091 9.81072 6.3611 9.81072H8.6411C9.2271 9.81072 9.4381 10.0717 9.6681 10.6747C10.7751 13.9327 12.6641 16.7667 13.4311 16.7667C13.7251 16.7667 13.8531 16.6367 13.8531 15.9037V12.5477C13.7561 11.0167 12.9431 10.8877 12.9431 10.3337C12.9534 10.1876 13.0202 10.0512 13.1295 9.95352C13.2387 9.85586 13.3817 9.80464 13.5281 9.81072H17.1121C17.6021 9.81072 17.7641 10.0547 17.7641 10.6407V15.1707C17.7641 15.6597 17.9741 15.8217 18.1221 15.8217C18.4161 15.8217 18.6421 15.6597 19.1811 15.1217C20.336 13.7124 21.2799 12.1426 21.9831 10.4617C22.0547 10.2597 22.1907 10.0867 22.37 9.96931C22.5494 9.85191 22.7623 9.79655 22.9761 9.81172H25.2571C25.9411 9.81172 26.0861 10.1537 25.9411 10.6417C25.1112 12.5 24.0847 14.2641 22.8791 15.9037C22.6331 16.2787 22.5351 16.4737 22.8791 16.9137C23.1051 17.2557 23.9051 17.9237 24.4421 18.5587C25.2241 19.3387 25.8731 20.2407 26.3641 21.2287C26.5601 21.8647 26.2341 22.1897 25.5831 22.1897Z" fill="#969393"/>
</svg>
