<svg width="48" height="48" viewBox="0 0 48 48" fill="none" xmlns="http://www.w3.org/2000/svg">
<g opacity="0.5" clip-path="url(#clip0_119_3841)">
<path d="M21 4.5C20.22 4.5 19.41 4.77 18.84 5.34C18.27 5.91 18 6.72 18 7.5V9H4.5V39H21.3C21.105 38.04 21 37.035 21 36H7.5V26.16C8.385 26.67 9.405 27 10.5 27H24.015C24.855 25.86 25.875 24.84 27.015 24H10.5C8.715 24 7.5 22.785 7.5 21V12H40.5V21C40.5 21.24 40.485 21.465 40.44 21.675C41.52 22.005 42.54 22.455 43.5 23.01V9H30V7.5C30 6.72 29.73 5.91 29.16 5.34C28.59 4.77 27.78 4.5 27 4.5H21ZM21 7.5H27V9H21V7.5ZM13.5 18V22.5H16.5V18H13.5ZM31.5 18V21.69C32.4764 21.3832 33.4816 21.1771 34.5 21.075V18H31.5ZM36 24C29.385 24 24 29.385 24 36C24 42.615 29.385 48 36 48C42.615 48 48 42.615 48 36C48 29.385 42.615 24 36 24ZM36 27C40.98 27 45 31.02 45 36C45 40.98 40.98 45 36 45C31.02 45 27 40.98 27 36C27 31.02 31.02 27 36 27ZM34.5 28.5V37.5H42V34.5H37.5V28.5H34.5Z" fill="black"/>
</g>
<defs>
<clipPath id="clip0_119_3841">
<rect width="48" height="48" fill="white"/>
</clipPath>
</defs>
</svg>
