<svg width="32" height="32" viewBox="0 0 32 32" fill="none" xmlns="http://www.w3.org/2000/svg">
<g opacity="0.5">
<path d="M28 16C28 13.6266 27.2962 11.3066 25.9776 9.33316C24.6591 7.35977 22.7849 5.8217 20.5922 4.91345C18.3995 4.0052 15.9867 3.76756 13.6589 4.23058C11.3312 4.6936 9.19295 5.83649 7.51472 7.51472C5.83649 9.19295 4.6936 11.3312 4.23058 13.6589C3.76756 15.9867 4.0052 18.3995 4.91345 20.5922C5.8217 22.7849 7.35977 24.6591 9.33316 25.9776C11.3066 27.2962 13.6266 28 16 28M4.80001 12H27.2M4.80001 20H15.3333" stroke="black" stroke-width="2" stroke-linecap="round" stroke-linejoin="round"/>
<path d="M15.3335 4C13.0873 7.59948 11.8965 11.7572 11.8965 16C11.8965 20.2428 13.0873 24.4005 15.3335 28M16.6669 4C18.8222 7.45342 20.0077 11.4235 20.0989 15.4933M26.9335 26.9333L29.3335 29.3333M20.0002 24C20.0002 25.0609 20.4216 26.0783 21.1718 26.8284C21.9219 27.5786 22.9393 28 24.0002 28C25.0611 28 26.0785 27.5786 26.8286 26.8284C27.5788 26.0783 28.0002 25.0609 28.0002 24C28.0002 22.9391 27.5788 21.9217 26.8286 21.1716C26.0785 20.4214 25.0611 20 24.0002 20C22.9393 20 21.9219 20.4214 21.1718 21.1716C20.4216 21.9217 20.0002 22.9391 20.0002 24Z" stroke="black" stroke-width="2" stroke-linecap="round" stroke-linejoin="round"/>
</g>
</svg>
