<svg width="32" height="32" viewBox="0 0 32 32" fill="none" xmlns="http://www.w3.org/2000/svg">
<g opacity="0.5">
<path fill-rule="evenodd" clip-rule="evenodd" d="M11.0665 4.33301H20.9332C22.1319 4.33301 23.1305 4.33301 23.9239 4.43967C24.7599 4.55167 25.5159 4.79967 26.1239 5.40634C26.7305 6.01434 26.9772 6.77034 27.0905 7.60634C27.1972 8.39967 27.1972 9.39967 27.1972 10.597V20.309L29.2145 22.3903L29.2185 22.3957L29.2292 22.405L29.2385 22.4157L29.2465 22.4237L29.2599 22.437L29.2732 22.4517L29.2799 22.4583L29.2905 22.4703L29.3025 22.4837L29.3132 22.497L29.3292 22.517C29.8252 23.0903 30.2665 23.949 30.3265 24.8063V24.8117L30.3305 24.8423V24.8597L30.3332 24.8783V25.0317C30.3332 25.205 30.3332 25.457 30.3265 25.565C30.2699 26.4553 29.8908 27.2943 29.26 27.9251C28.6292 28.5559 27.7901 28.9351 26.8999 28.9917C26.7825 28.9997 26.6532 28.9997 26.4852 28.9997H5.51587C5.34787 28.9997 5.21853 28.9997 5.10253 28.9917C4.21181 28.9357 3.37208 28.5568 2.74075 27.926C2.10943 27.2951 1.72986 26.4557 1.6732 25.565C1.66751 25.3882 1.66573 25.2112 1.66787 25.0343V24.8783L1.6692 24.8597V24.8437L1.6732 24.8117V24.8063C1.73453 23.949 2.17587 23.0917 2.67187 22.517L2.68787 22.497L2.69853 22.4837L2.71187 22.4703L2.7212 22.4583L2.72653 22.4517L2.7412 22.4383L2.75453 22.4237L2.7612 22.4157L2.77187 22.405L2.7812 22.3957L2.78653 22.3903L4.80387 20.309V10.597C4.80387 9.39967 4.80387 8.39967 4.91053 7.60767C5.02253 6.77034 5.27053 6.01434 5.8772 5.40767C6.4852 4.79967 7.2412 4.55167 8.0772 4.43967C8.87053 4.33301 9.86787 4.33301 11.0665 4.33301ZM6.22653 21.7143L4.20787 23.7983C3.9052 24.1357 3.68253 24.633 3.66787 24.9677V25.265L3.6692 25.4383C3.69504 25.8433 3.86777 26.225 4.15498 26.5117C4.44219 26.7984 4.82415 26.9705 5.2292 26.9957C5.2732 26.9997 5.3332 26.9997 5.54787 26.9997H26.4519C26.6652 26.9997 26.7265 26.9997 26.7719 26.9957C27.1764 26.9699 27.5578 26.7975 27.8444 26.5109C28.1311 26.2242 28.3034 25.8429 28.3292 25.4383L28.3305 25.3917L28.3319 25.049V24.969C28.3172 24.633 28.0945 24.1357 27.7905 23.7983L25.7719 21.7143H6.22653ZM25.1959 19.7143V10.6663C25.1959 9.38101 25.1932 8.51701 25.1065 7.87301C25.0239 7.25834 24.8812 6.99434 24.7065 6.82101C24.5319 6.64767 24.2705 6.50501 23.6559 6.42101C23.0119 6.33567 22.1479 6.33301 20.8625 6.33301H11.1372C9.85186 6.33301 8.98787 6.33567 8.34387 6.42234C7.7292 6.50501 7.4652 6.64767 7.29187 6.82234C7.11853 6.99701 6.97453 7.25834 6.89187 7.87301C6.8052 8.51701 6.80387 9.38101 6.80387 10.6663V19.7143H25.1959ZM3.10787 24.0317L3.06653 24.0157L3.07853 24.0223L3.10787 24.0317ZM11.6665 24.6663C11.6665 24.4011 11.7719 24.1468 11.9594 23.9592C12.147 23.7717 12.4013 23.6663 12.6665 23.6663H19.3332C19.5984 23.6663 19.8528 23.7717 20.0403 23.9592C20.2278 24.1468 20.3332 24.4011 20.3332 24.6663C20.3332 24.9316 20.2278 25.1859 20.0403 25.3734C19.8528 25.561 19.5984 25.6663 19.3332 25.6663H12.6665C12.4013 25.6663 12.147 25.561 11.9594 25.3734C11.7719 25.1859 11.6665 24.9316 11.6665 24.6663Z" fill="black"/>
<path d="M17 9C17 9.26522 16.8946 9.51957 16.7071 9.70711C16.5196 9.89464 16.2652 10 16 10C15.7348 10 15.4804 9.89464 15.2929 9.70711C15.1054 9.51957 15 9.26522 15 9C15 8.73478 15.1054 8.48043 15.2929 8.29289C15.4804 8.10536 15.7348 8 16 8C16.2652 8 16.5196 8.10536 16.7071 8.29289C16.8946 8.48043 17 8.73478 17 9Z" fill="black"/>
</g>
</svg>
