<svg width="48" height="48" viewBox="0 0 48 48" fill="none" xmlns="http://www.w3.org/2000/svg">
<g opacity="0.5">
<path fill-rule="evenodd" clip-rule="evenodd" d="M5.564 22.45L6.356 21.926C7.544 21.14 8.33 20.618 8.886 20.152C9.414 19.71 9.614 19.414 9.718 19.138C9.822 18.862 9.87 18.508 9.768 17.826C9.66 17.106 9.418 16.196 9.05 14.818L8.716 13.568C6.91237 16.2042 5.82609 19.2646 5.564 22.448M11.064 10.768L11.112 10.916L11.97 14.12C12.31 15.396 12.6 16.474 12.734 17.382C12.804 17.848 12.84 18.302 12.818 18.756L17.818 20.862C17.9315 20.7482 18.0517 20.6413 18.178 20.542L21.854 17.734C22.0513 17.5833 22.2593 17.4567 22.478 17.354V11.934C22.0554 11.7841 21.6482 11.5938 21.262 11.366C20.466 10.908 19.568 10.246 18.508 9.462L15.752 7.43C14.0255 8.29332 12.4439 9.42015 11.064 10.77M19.078 6.158L20.222 7.002C21.368 7.848 22.128 8.406 22.758 8.768C23.354 9.11 23.698 9.196 23.994 9.2C24.288 9.202 24.634 9.124 25.238 8.794C25.874 8.446 26.646 7.904 27.81 7.084L29.054 6.208C27.4033 5.73636 25.6947 5.49805 23.978 5.5C22.3225 5.4979 20.6743 5.71923 19.078 6.158ZM32.37 7.514C32.31 7.57122 32.2466 7.62465 32.18 7.674L29.472 9.582C28.392 10.342 27.482 10.986 26.678 11.426C26.284 11.642 25.886 11.826 25.478 11.96V17.354C25.6953 17.458 25.9027 17.5853 26.1 17.736L29.774 20.546C29.906 20.646 30.0287 20.754 30.142 20.87L35.262 18.75C35.242 18.3 35.278 17.848 35.348 17.384C35.482 16.476 35.772 15.398 36.112 14.124L36.97 10.92L36.986 10.862C35.6286 9.51537 34.0716 8.3861 32.37 7.514ZM39.33 13.704L39.032 14.818C38.664 16.196 38.422 17.108 38.314 17.826C38.214 18.506 38.26 18.862 38.364 19.138C38.468 19.414 38.668 19.71 39.196 20.152C39.752 20.618 40.536 21.14 41.726 21.926L42.382 22.36C42.1122 19.2632 41.0622 16.2852 39.33 13.704ZM45.44 24.804C45.4493 24.5373 45.454 24.2693 45.454 24C45.454 12.128 35.84 2.5 23.978 2.5C12.114 2.5 2.5 12.128 2.5 24C2.5 35.872 12.114 45.5 23.978 45.5C35.228 45.5 44.454 36.84 45.378 25.82C45.5158 25.4987 45.539 25.1393 45.44 24.804ZM42.352 25.938L40 24.38C38.9 23.654 37.968 23.04 37.266 22.448C36.9343 22.1746 36.6277 21.8721 36.35 21.544L31.124 23.708C31.0973 23.9273 31.0525 24.1441 30.99 24.356L29.548 29.03C29.4973 29.194 29.436 29.3513 29.364 29.502L32.3 32.898C32.75 32.748 33.22 32.658 33.708 32.602C34.62 32.498 35.736 32.498 37.054 32.498H40.39C41.4482 30.4526 42.1131 28.2267 42.35 25.936M38.448 35.498H37.136C35.71 35.498 34.768 35.5 34.048 35.582C33.366 35.662 33.036 35.796 32.798 35.97C32.558 36.142 32.324 36.41 32.034 37.036C31.728 37.696 31.428 38.59 30.978 39.942L30.526 41.302C33.6401 40.1152 36.3763 38.11 38.446 35.498M27.046 42.242L28.156 38.916C28.572 37.662 28.926 36.604 29.312 35.772C29.484 35.3973 29.6807 35.0453 29.902 34.716L27.034 31.396C26.7647 31.464 26.4873 31.498 26.202 31.498H21.742C21.4753 31.498 21.2167 31.4693 20.966 31.412L18.42 34.664C18.6573 35.0067 18.866 35.3767 19.046 35.774C19.434 36.606 19.786 37.664 20.204 38.918L21.334 42.312C23.2328 42.5844 25.1622 42.5615 27.054 42.244M17.894 41.474L17.386 39.944C16.934 38.592 16.634 37.696 16.328 37.038C16.038 36.414 15.804 36.144 15.566 35.972C15.326 35.798 14.998 35.662 14.316 35.584C13.596 35.504 12.652 35.5 11.228 35.5H9.5C11.6756 38.2446 14.5847 40.316 17.89 41.474M7.59 32.554C7.72181 32.5189 7.85758 32.5007 7.994 32.5H11.306C12.626 32.5 13.74 32.5 14.652 32.604C15.122 32.658 15.572 32.742 16.004 32.882L18.612 29.558C18.5297 29.3878 18.4595 29.2121 18.402 29.032L16.96 24.358C16.8964 24.1435 16.8509 23.9241 16.824 23.702L11.724 21.552C11.4474 21.8785 11.1421 22.1797 10.812 22.452C10.108 23.04 9.178 23.654 8.078 24.382L5.606 26.016C5.86 28.356 6.546 30.562 7.588 32.556M23.972 20.018C23.8634 20.0191 23.758 20.0557 23.672 20.122L20 22.928C19.9185 22.9902 19.8581 23.0759 19.827 23.1736C19.7959 23.2713 19.7955 23.3761 19.826 23.474L21.27 28.148C21.3014 28.2494 21.3643 28.3382 21.4495 28.4014C21.5347 28.4647 21.6379 28.4992 21.744 28.5H26.204C26.3105 28.4997 26.4141 28.4653 26.4997 28.402C26.5853 28.3387 26.6485 28.2497 26.68 28.148L28.124 23.474C28.1545 23.3761 28.1541 23.2713 28.123 23.1736C28.0919 23.0759 28.0315 22.9902 27.95 22.928L24.276 20.118C24.1895 20.0531 24.0842 20.018 23.976 20.018" fill="black"/>
</g>
</svg>
