<svg width="40" height="30" viewBox="0 0 40 30" fill="none" xmlns="http://www.w3.org/2000/svg">
<g clip-path="url(#clip0_3594_3496)">
<g clip-path="url(#clip1_3594_3496)">
<path d="M0 0H40V10H0V0Z" fill="#FF9933"/>
<path d="M0 10H40V20H0V10Z" fill="white"/>
<path d="M0 20H40V30H0V20Z" fill="#128807"/>
<path d="M20 19C22.2091 19 24 17.2091 24 15C24 12.7909 22.2091 11 20 11C17.7909 11 16 12.7909 16 15C16 17.2091 17.7909 19 20 19Z" fill="#000088"/>
<path d="M20 18.5C21.933 18.5 23.5 16.933 23.5 15C23.5 13.067 21.933 11.5 20 11.5C18.067 11.5 16.5 13.067 16.5 15C16.5 16.933 18.067 18.5 20 18.5Z" fill="white"/>
<path d="M20.0008 15.7C20.3874 15.7 20.7008 15.3866 20.7008 15C20.7008 14.6134 20.3874 14.3 20.0008 14.3C19.6142 14.3 19.3008 14.6134 19.3008 15C19.3008 15.3866 19.6142 15.7 20.0008 15.7Z" fill="#000088"/>
<path d="M23.4459 15.6366C23.5445 15.6496 23.6349 15.5802 23.6479 15.4817C23.6609 15.3831 23.5915 15.2927 23.4929 15.2797C23.3944 15.2667 23.3039 15.3361 23.291 15.4347C23.278 15.5332 23.3474 15.6237 23.4459 15.6366Z" fill="#000088"/>
<path d="M19.9999 18.5L20.1199 16.4L19.9999 15.4L19.8799 16.4L19.9999 18.5Z" fill="#000088"/>
<path d="M23.1653 16.5069C23.2571 16.545 23.3624 16.5014 23.4004 16.4095C23.4385 16.3177 23.3949 16.2124 23.303 16.1744C23.2112 16.1363 23.1059 16.1799 23.0678 16.2718C23.0298 16.3636 23.0734 16.4689 23.1653 16.5069Z" fill="#000088"/>
<path d="M19.0948 18.3808L19.7543 16.3834L19.8972 15.3864L19.5224 16.3213L19.0948 18.3808Z" fill="#000088"/>
<path d="M22.6668 17.2746C22.7457 17.3352 22.8587 17.3203 22.9192 17.2414C22.9797 17.1625 22.9648 17.0496 22.886 16.989C22.8071 16.9285 22.6941 16.9434 22.6336 17.0223C22.5731 17.1011 22.5879 17.2141 22.6668 17.2746Z" fill="#000088"/>
<path d="M18.2502 18.0311L19.4041 16.2725L19.8002 15.3464L19.1963 16.1525L18.2502 18.0311Z" fill="#000088"/>
<path d="M21.988 17.8873C22.0486 17.9662 22.1615 17.981 22.2404 17.9205C22.3193 17.86 22.3342 17.747 22.2736 17.6681C22.2131 17.5893 22.1001 17.5744 22.0213 17.6349C21.9424 17.6954 21.9275 17.8084 21.988 17.8873Z" fill="#000088"/>
<path d="M17.5266 17.4749L19.0964 16.0749L19.7186 15.2829L18.9267 15.9052L17.5266 17.4749Z" fill="#000088"/>
<path d="M21.1718 18.303C21.2099 18.3949 21.3152 18.4385 21.407 18.4004C21.4989 18.3624 21.5425 18.2571 21.5044 18.1653C21.4664 18.0734 21.3611 18.0298 21.2692 18.0678C21.1774 18.1059 21.1338 18.2112 21.1718 18.303Z" fill="#000088"/>
<path d="M16.9681 16.75L18.8467 15.8039L19.6528 15.2L18.7267 15.5961L16.9681 16.75Z" fill="#000088"/>
<path d="M20.2769 18.4938C20.2899 18.5924 20.3803 18.6618 20.4789 18.6488C20.5774 18.6358 20.6468 18.5454 20.6338 18.4468C20.6209 18.3483 20.5305 18.2789 20.4319 18.2919C20.3333 18.3048 20.264 18.3953 20.2769 18.4938Z" fill="#000088"/>
<path d="M16.6197 15.9059L18.6792 15.4783L19.6141 15.1035L18.6171 15.2464L16.6197 15.9059Z" fill="#000088"/>
<path d="M19.3627 18.4465C19.3498 18.5451 19.4192 18.6355 19.5177 18.6485C19.6163 18.6615 19.7067 18.5921 19.7197 18.4935C19.7326 18.395 19.6633 18.3045 19.5647 18.2916C19.4661 18.2786 19.3757 18.348 19.3627 18.4465Z" fill="#000088"/>
<path d="M16.4996 15.0001L18.5996 15.1201L19.5996 15.0001L18.5996 14.8801L16.4996 15.0001Z" fill="#000088"/>
<path d="M18.4931 18.1643C18.455 18.2562 18.4986 18.3615 18.5905 18.3995C18.6823 18.4376 18.7876 18.3939 18.8256 18.3021C18.8637 18.2103 18.8201 18.105 18.7282 18.0669C18.6364 18.0289 18.5311 18.0725 18.4931 18.1643Z" fill="#000088"/>
<path d="M16.6191 14.0942L18.6165 14.7536L19.6135 14.8965L18.6786 14.5218L16.6191 14.0942Z" fill="#000088"/>
<path d="M17.7259 17.6664C17.6654 17.7453 17.6803 17.8582 17.7591 17.9188C17.838 17.9793 17.951 17.9644 18.0115 17.8855C18.072 17.8067 18.0572 17.6937 17.9783 17.6332C17.8994 17.5726 17.7864 17.5875 17.7259 17.6664Z" fill="#000088"/>
<path d="M16.9692 13.25L18.7278 14.4039L19.6539 14.8L18.8478 14.196L16.9692 13.25Z" fill="#000088"/>
<path d="M17.1136 16.9869C17.0348 17.0474 17.0199 17.1604 17.0804 17.2393C17.1409 17.3181 17.2539 17.333 17.3328 17.2725C17.4117 17.212 17.4265 17.099 17.366 17.0201C17.3055 16.9412 17.1925 16.9264 17.1136 16.9869Z" fill="#000088"/>
<path d="M17.5259 12.5251L18.9259 14.0949L19.7179 14.7171L19.0956 13.9252L17.5259 12.5251Z" fill="#000088"/>
<path d="M16.6979 16.172C16.606 16.21 16.5624 16.3153 16.6005 16.4071C16.6385 16.499 16.7438 16.5426 16.8357 16.5046C16.9275 16.4665 16.9711 16.3612 16.9331 16.2694C16.895 16.1775 16.7897 16.1339 16.6979 16.172Z" fill="#000088"/>
<path d="M18.2504 11.9689L19.1965 13.8476L19.8004 14.6536L19.4043 13.7276L18.2504 11.9689Z" fill="#000088"/>
<path d="M16.506 15.2771C16.4074 15.2901 16.3381 15.3805 16.351 15.4791C16.364 15.5776 16.4544 15.647 16.553 15.634C16.6515 15.6211 16.7209 15.5306 16.708 15.4321C16.695 15.3335 16.6046 15.2641 16.506 15.2771Z" fill="#000088"/>
<path d="M19.0944 11.6193L19.5221 13.6788L19.8968 14.6136L19.7539 13.6167L19.0944 11.6193Z" fill="#000088"/>
<path d="M16.5551 14.3634C16.4565 14.3504 16.3661 14.4198 16.3531 14.5184C16.3401 14.6169 16.4095 14.7074 16.5081 14.7203C16.6066 14.7333 16.697 14.6639 16.71 14.5654C16.723 14.4668 16.6536 14.3764 16.5551 14.3634Z" fill="#000088"/>
<path d="M20.0011 11.5L19.8811 13.6L20.0011 14.6L20.1211 13.6L20.0011 11.5Z" fill="#000088"/>
<path d="M16.8357 13.4931C16.7439 13.4551 16.6386 13.4987 16.6005 13.5905C16.5625 13.6824 16.6061 13.7877 16.698 13.8257C16.7898 13.8638 16.8951 13.8201 16.9331 13.7283C16.9712 13.6364 16.9276 13.5312 16.8357 13.4931Z" fill="#000088"/>
<path d="M20.9062 11.6193L20.2467 13.6167L20.1038 14.6137L20.4785 13.6788L20.9062 11.6193Z" fill="#000088"/>
<path d="M17.3342 12.7254C17.2553 12.6649 17.1423 12.6798 17.0818 12.7586C17.0213 12.8375 17.0361 12.9505 17.115 13.011C17.1939 13.0715 17.3069 13.0567 17.3674 12.9778C17.4279 12.8989 17.413 12.7859 17.3342 12.7254Z" fill="#000088"/>
<path d="M21.7508 11.9689L20.5968 13.7276L20.2008 14.6536L20.8047 13.8476L21.7508 11.9689Z" fill="#000088"/>
<path d="M18.0129 12.1128C17.9524 12.0339 17.8394 12.019 17.7606 12.0795C17.6817 12.1401 17.6668 12.2531 17.7273 12.3319C17.7879 12.4108 17.9008 12.4257 17.9797 12.3652C18.0586 12.3046 18.0735 12.1916 18.0129 12.1128Z" fill="#000088"/>
<path d="M22.4744 12.5251L20.9046 13.9252L20.2823 14.7171L21.0743 14.0949L22.4744 12.5251Z" fill="#000088"/>
<path d="M18.8282 11.697C18.7901 11.6052 18.6848 11.5616 18.593 11.5996C18.5011 11.6377 18.4575 11.743 18.4956 11.8348C18.5336 11.9266 18.6389 11.9703 18.7308 11.9322C18.8226 11.8942 18.8662 11.7889 18.8282 11.697Z" fill="#000088"/>
<path d="M23.0319 13.2501L21.1533 14.1961L20.3472 14.8001L21.2733 14.404L23.0319 13.2501Z" fill="#000088"/>
<path d="M19.7231 11.5062C19.7101 11.4077 19.6197 11.3383 19.5211 11.3513C19.4226 11.3643 19.3532 11.4547 19.3662 11.5532C19.3791 11.6518 19.4695 11.7212 19.5681 11.7082C19.6667 11.6952 19.736 11.6048 19.7231 11.5062Z" fill="#000088"/>
<path d="M23.3803 14.0942L21.3208 14.5218L20.3859 14.8965L21.3829 14.7536L23.3803 14.0942Z" fill="#000088"/>
<path d="M20.6373 11.5535C20.6502 11.455 20.5808 11.3645 20.4823 11.3516C20.3837 11.3386 20.2933 11.408 20.2803 11.5065C20.2674 11.6051 20.3367 11.6955 20.4353 11.7085C20.5339 11.7215 20.6243 11.6521 20.6373 11.5535Z" fill="#000088"/>
<path d="M23.5004 15L21.4004 14.88L20.4004 15L21.4004 15.12L23.5004 15Z" fill="#000088"/>
<path d="M21.5069 11.8357C21.545 11.7439 21.5014 11.6386 21.4095 11.6005C21.3177 11.5625 21.2124 11.6061 21.1744 11.698C21.1363 11.7898 21.1799 11.8951 21.2718 11.9331C21.3636 11.9712 21.4689 11.9276 21.5069 11.8357Z" fill="#000088"/>
<path d="M23.3809 15.9059L21.3835 15.2465L20.3865 15.1036L21.3214 15.4783L23.3809 15.9059Z" fill="#000088"/>
<path d="M22.2741 12.3336C22.3346 12.2547 22.3197 12.1418 22.2409 12.0812C22.162 12.0207 22.049 12.0356 21.9885 12.1145C21.928 12.1933 21.9428 12.3063 22.0217 12.3668C22.1006 12.4274 22.2136 12.4125 22.2741 12.3336Z" fill="#000088"/>
<path d="M23.0308 16.75L21.2722 15.5961L20.3461 15.2L21.1522 15.804L23.0308 16.75Z" fill="#000088"/>
<path d="M22.8864 13.0131C22.9652 12.9526 22.9801 12.8396 22.9196 12.7607C22.8591 12.6819 22.7461 12.667 22.6672 12.7275C22.5883 12.788 22.5735 12.901 22.634 12.9799C22.6945 13.0588 22.8075 13.0736 22.8864 13.0131Z" fill="#000088"/>
<path d="M22.4741 17.4749L21.0741 15.9051L20.2821 15.2829L20.9044 16.0748L22.4741 17.4749Z" fill="#000088"/>
<path d="M23.3021 13.828C23.394 13.79 23.4376 13.6847 23.3995 13.5929C23.3615 13.501 23.2562 13.4574 23.1643 13.4954C23.0725 13.5335 23.0289 13.6388 23.0669 13.7306C23.105 13.8225 23.2103 13.8661 23.3021 13.828Z" fill="#000088"/>
<path d="M21.7496 18.0311L20.8035 16.1524L20.1996 15.3464L20.5957 16.2724L21.7496 18.0311Z" fill="#000088"/>
<path d="M23.494 14.7229C23.5926 14.7099 23.6619 14.6195 23.649 14.5209C23.636 14.4224 23.5456 14.353 23.447 14.366C23.3485 14.3789 23.2791 14.4694 23.292 14.5679C23.305 14.6665 23.3954 14.7359 23.494 14.7229Z" fill="#000088"/>
<path d="M20.9056 18.3807L20.4779 16.3212L20.1032 15.3864L20.2461 16.3833L20.9056 18.3807Z" fill="#000088"/>
</g>
</g>
<rect x="0.5" y="0.5" width="39" height="29" rx="3.5" stroke="#E1DDDC"/>
<defs>
<clipPath id="clip0_3594_3496">
<rect width="40" height="30" rx="4" fill="white"/>
</clipPath>
<clipPath id="clip1_3594_3496">
<rect width="40" height="30" fill="white"/>
</clipPath>
</defs>
</svg>
