<svg width="40" height="30" viewBox="0 0 40 30" fill="none" xmlns="http://www.w3.org/2000/svg">
<g clip-path="url(#clip0_3594_3628)">
<g clip-path="url(#clip1_3594_3628)">
<path d="M0 0H40V30H0V0Z" fill="#D21034"/>
<path d="M7.5 7.5H32.5V22.5H7.5V7.5Z" fill="#007E3A"/>
<path d="M21.875 20C24.6364 20 26.875 17.7614 26.875 15C26.875 12.2386 24.6364 10 21.875 10C19.1136 10 16.875 12.2386 16.875 15C16.875 17.7614 19.1136 20 21.875 20Z" fill="white"/>
<path d="M23.75 20C26.5114 20 28.75 17.7614 28.75 15C28.75 12.2386 26.5114 10 23.75 10C20.9886 10 18.75 12.2386 18.75 15C18.75 17.7614 20.9886 20 23.75 20Z" fill="#007E3A"/>
</g>
</g>
<rect x="0.5" y="0.5" width="39" height="29" rx="3.5" stroke="#E1DDDC"/>
<defs>
<clipPath id="clip0_3594_3628">
<rect width="40" height="30" rx="4" fill="white"/>
</clipPath>
<clipPath id="clip1_3594_3628">
<rect width="40" height="30" fill="white"/>
</clipPath>
</defs>
</svg>
