<svg width="40" height="30" viewBox="0 0 40 30" fill="none" xmlns="http://www.w3.org/2000/svg">
<g clip-path="url(#clip0_3594_3604)">
<g clip-path="url(#clip1_3594_3604)">
<mask id="mask0_3594_3604" style="mask-type:luminance" maskUnits="userSpaceOnUse" x="0" y="0" width="40" height="30">
<path d="M0 0H40V30H0V0Z" fill="white"/>
</mask>
<g mask="url(#mask0_3594_3604)">
<path d="M0 0H40V30H0V0Z" fill="#CC0000"/>
<path d="M0 0H40V2.14375H0V0Z" fill="#CC0000"/>
<path d="M0 2.14374H40V4.28749H0V2.14374Z" fill="white"/>
<path d="M0 4.28748H40V6.43123H0V4.28748Z" fill="#CC0000"/>
<path d="M0 6.43127H40V8.56252H0V6.43127Z" fill="white"/>
<path d="M0 8.56873H40V10.7125H0V8.56873Z" fill="#CC0000"/>
<path d="M0 10.7125H40V12.8563H0V10.7125Z" fill="white"/>
<path d="M0 12.8563H40V15H0V12.8563Z" fill="#CC0000"/>
<path d="M0 15H40V17.1437H0V15Z" fill="white"/>
<path d="M0 17.1437H40V19.2875H0V17.1437Z" fill="#CC0000"/>
<path d="M0 19.2875H40V21.4312H0V19.2875Z" fill="white"/>
<path d="M0 21.4313H40V23.5625H0V21.4313Z" fill="#CC0000"/>
<path d="M0 23.5687H40V25.7125H0V23.5687Z" fill="white"/>
<path d="M0 25.7125H40V27.8563H0V25.7125Z" fill="#CC0000"/>
<path d="M0 27.8563H40V30H0V27.8563Z" fill="white"/>
<path d="M0 0.03125H20V17.175H0V0.03125Z" fill="#000066"/>
<path d="M12.9684 4.6125L13.3434 7.15625L14.7809 5.03125L14.0059 7.48125L16.2246 6.18125L14.4684 8.05625L17.0309 7.85625L14.6371 8.78125L17.0309 9.70625L14.4684 9.50625L16.2246 11.3812L14.0059 10.0812L14.7746 12.5375L13.3371 10.4062L12.9621 12.95L12.5934 10.4062L11.1559 12.5312L11.9309 10.0812L9.71211 11.3812L11.4621 9.50625L8.89961 9.70625L11.2996 8.78125L8.90586 7.85625L11.4684 8.05625L9.71211 6.18125L11.9309 7.48125L11.1559 5.025L12.5934 7.15625L12.9684 4.6125ZM10.8871 4.71875C10.2105 4.41596 9.46874 4.28751 8.72967 4.34513C7.99061 4.40275 7.27775 4.6446 6.65621 5.04861C6.03466 5.45261 5.52424 6.00589 5.17153 6.65792C4.81883 7.30994 4.6351 8.03994 4.63711 8.78125C4.6351 9.52255 4.81883 10.2525 5.17153 10.9046C5.52424 11.5566 6.03466 12.1099 6.65621 12.5139C7.27775 12.9179 7.99061 13.1597 8.72967 13.2174C9.46874 13.275 10.2105 13.1465 10.8871 12.8437C10.1399 13.3805 9.25909 13.7007 8.34162 13.769C7.42416 13.8374 6.50562 13.6513 5.68711 13.2312C4.86954 12.8106 4.18379 12.1727 3.70524 11.3876C3.22669 10.6025 2.97388 9.70068 2.97461 8.78125C2.97491 7.86204 3.22861 6.96071 3.70781 6.1763C4.187 5.39189 4.87317 4.75475 5.69089 4.33491C6.50861 3.91507 7.42624 3.72877 8.34295 3.79649C9.25965 3.8642 10.14 4.18331 10.8871 4.71875Z" fill="#FFCC00"/>
</g>
</g>
</g>
<rect x="0.5" y="0.5" width="39" height="29" rx="3.5" stroke="#E1DDDC"/>
<defs>
<clipPath id="clip0_3594_3604">
<rect width="40" height="30" rx="4" fill="white"/>
</clipPath>
<clipPath id="clip1_3594_3604">
<rect width="40" height="30" fill="white"/>
</clipPath>
</defs>
</svg>
