<svg width="40" height="30" viewBox="0 0 40 30" fill="none" xmlns="http://www.w3.org/2000/svg">
<g clip-path="url(#clip0_3594_3642)">
<g clip-path="url(#clip1_3594_3642)">
<mask id="mask0_3594_3642" style="mask-type:luminance" maskUnits="userSpaceOnUse" x="0" y="0" width="40" height="30">
<path d="M0.00195312 0H39.998V30H0.00195312V0Z" fill="white"/>
</mask>
<g mask="url(#mask0_3594_3642)">
<path fill-rule="evenodd" clip-rule="evenodd" d="M-2.5 0H42.5V30H-2.5V0Z" fill="#165D31"/>
<path fill-rule="evenodd" clip-rule="evenodd" d="M8.8383 8.50194C8.79142 9.20507 8.72111 10.4355 9.32462 10.5644C10.0453 10.6348 9.64689 9.34569 9.91056 9.11132C9.95744 8.99413 10.0453 8.99413 10.0512 9.14061V10.2363C10.0512 10.5879 10.2856 10.6933 10.4613 10.7637C10.6488 10.7519 10.7778 10.7637 10.8481 10.9394L10.9418 12.832C10.9418 12.832 11.3754 12.9609 11.3988 11.7715C11.4164 11.0683 11.2582 10.4883 11.352 10.3535C11.352 10.2187 11.5278 10.2129 11.6449 10.2773C11.8324 10.4062 11.9145 10.5703 12.2074 10.5117C12.6528 10.3828 12.9223 10.166 12.9281 9.82616C12.9193 9.49219 12.8499 9.1626 12.7231 8.8535C12.7465 8.79491 12.641 8.63671 12.6645 8.57811C12.7406 8.70702 12.8637 8.6953 12.8871 8.57811C12.811 8.33202 12.6938 8.09179 12.5063 7.99218C12.3481 7.85155 12.1137 7.87499 12.0375 8.16796C11.9906 8.50194 12.1547 8.89452 12.3949 9.22264C12.4477 9.34569 12.518 9.55663 12.4887 9.74413C12.3559 9.81444 12.2328 9.791 12.1195 9.67382C12.1195 9.67382 11.768 9.41014 11.768 9.34569C11.8617 8.74804 11.7856 8.67772 11.7328 8.5078C11.6977 8.27929 11.5863 8.20311 11.4985 8.05077C11.4106 7.95702 11.2934 7.95702 11.2348 8.05077C11.0766 8.3203 11.1528 8.90038 11.2641 9.16405C11.3461 9.40429 11.4692 9.55663 11.4106 9.55663C11.3637 9.6914 11.2641 9.65624 11.1879 9.49804C11.1024 9.16505 11.0611 8.82227 11.0649 8.4785C11.0356 8.20897 11.0004 7.63475 10.8188 7.48241C10.7133 7.34179 10.5551 7.4121 10.4965 7.541C10.4809 7.80276 10.4868 8.06536 10.5141 8.32616C10.6313 8.75975 10.6723 9.14647 10.7309 9.58593C10.7485 10.1777 10.391 9.84374 10.4086 9.54491C10.4855 9.16923 10.4795 8.78131 10.391 8.40819C10.3324 8.25585 10.268 8.22069 10.1215 8.24413C10.0102 8.24413 9.72306 8.55468 9.64103 9.08202C9.64103 9.08202 9.57072 9.35155 9.54142 9.59179C9.50041 9.86132 9.32462 10.0605 9.19572 9.55663C9.09025 9.18749 9.01994 8.291 8.84416 8.50194H8.8383Z" fill="white"/>
<path fill-rule="evenodd" clip-rule="evenodd" d="M10.8008 11.3789L8.92578 12.2812C8.94336 11.8535 9.81055 11.0859 10.4082 11.0801C10.7891 11.0859 10.6953 11.2266 10.7949 11.3789H10.8008Z" fill="white"/>
<path fill-rule="evenodd" clip-rule="evenodd" d="M10.4664 11.9648C9.48202 14.5137 12.7808 14.8711 13.15 12.0703C13.1851 11.9531 13.3258 11.8418 13.3492 12.0293C13.273 14.5664 10.7945 14.7363 10.3726 13.9395C10.2735 13.6652 10.2239 13.3756 10.2262 13.084C10.1676 12.5859 9.90389 12.7793 9.86288 13.2715C9.82186 13.5469 9.83358 13.623 9.83358 13.8867C9.96249 15.8906 13.1558 15.0293 13.6773 13.377C13.9527 12.4629 13.6305 11.7891 13.7769 11.7891C14.0933 12.1289 14.5387 11.8359 14.6383 11.7188C14.6793 11.6602 14.7848 11.6191 14.8551 11.6953C15.1012 11.8711 15.5348 11.7891 15.6285 11.4785C15.6832 11.166 15.7183 10.8496 15.734 10.5293C15.5289 10.5879 15.3824 10.6289 15.3648 10.7168L15.3238 10.9863C15.3062 11.0742 15.1363 11.0742 15.1246 10.9629C15.0484 10.6113 14.732 10.5703 14.5387 11.1094C14.4156 11.2148 14.1812 11.2383 14.1578 11.0801C14.1871 10.7168 14.0406 10.6699 13.7476 10.8398L13.4664 8.71875C13.5836 8.71875 13.7008 8.80664 13.8121 8.66602C13.6949 8.28516 13.4312 7.51172 13.2848 7.45313C13.2203 7.3711 13.1617 7.42383 13.068 7.44727C12.9156 7.49414 12.775 7.62305 12.8219 7.88086C12.9976 8.98242 13.1148 9.82031 13.2965 10.9277C13.3258 11.0508 13.2203 11.2207 13.0797 11.2031C12.8453 11.0449 12.7867 10.7227 12.3765 10.7344C12.0836 10.7344 11.7555 11.0566 11.7144 11.3613C11.6617 11.6074 11.6441 11.8711 11.7144 12.082C11.9195 12.3281 12.1656 12.3047 12.3824 12.252C12.5582 12.1758 12.7047 12 12.7691 12.041C12.8101 12.0938 12.775 12.6797 11.9312 13.125C11.4215 13.3594 11.0113 13.4063 10.7945 12.9902C10.6598 12.7266 10.8062 11.7363 10.4664 11.9648Z" fill="white"/>
<path fill-rule="evenodd" clip-rule="evenodd" d="M14.6676 9.37499C14.861 9.30468 15.7985 8.22655 15.7985 8.22655L15.6578 8.10936C15.6071 8.06639 15.6071 8.02343 15.6578 7.98046C15.8922 7.83983 15.816 7.54686 15.6989 7.40624C15.6189 7.36875 15.5316 7.34981 15.4433 7.35082C15.355 7.35184 15.2681 7.37278 15.1891 7.4121C15.025 7.5703 14.9899 7.82225 15.1188 7.9746C15.2418 8.03319 15.3649 8.1621 15.2828 8.23241C14.8961 8.64257 13.8473 9.35155 13.9703 9.37499C13.9938 9.41014 14.6442 9.41014 14.6618 9.37499H14.6676ZM8.98402 13.1836C8.63245 13.7461 8.60316 14.584 8.79652 14.8359C8.90199 14.9531 9.07191 15.0058 9.19495 14.9648C9.41761 14.8711 9.51722 14.4199 9.46449 14.2617C9.39417 14.1445 9.32386 14.1308 9.25355 14.2207C9.1012 14.5371 9.03675 14.3203 9.01917 14.1445C9.00238 13.8468 9.0181 13.5482 9.06605 13.2539C9.10706 13.0078 9.06605 13.0781 8.98402 13.1836ZM24.0485 12.2871C23.7086 11.5488 23.234 10.8223 23.0875 10.5469C22.6309 9.82503 22.1461 9.12136 21.6344 8.43749C21.2711 8.00389 22.2321 8.61913 21.5172 7.75194L20.9957 7.31249C20.8785 7.23046 20.5973 7.07811 20.5504 7.32421C20.527 7.54686 20.5387 7.66405 20.5739 7.84569C20.6032 7.96288 20.7789 8.16796 20.8668 8.28514C22.0681 9.87623 23.1231 11.5726 24.0192 13.3535C24.1715 13.2773 24.1364 12.4101 24.0485 12.2871Z" fill="white"/>
<path fill-rule="evenodd" clip-rule="evenodd" d="M22.5545 14.7363C22.4842 14.8125 22.7186 15.1348 23.0233 15.1348C23.5272 15.0762 23.9725 14.7949 24.3827 14.0449C24.5493 13.7954 24.6557 13.5106 24.6932 13.2129C24.7428 11.7905 24.6288 10.3671 24.3534 8.97071C24.3358 8.85352 24.3534 8.7129 24.3651 8.67774C24.4003 8.63673 24.5116 8.67774 24.5702 8.57813C24.6581 8.49024 24.3358 7.75782 24.16 7.48243C24.1014 7.35352 24.0721 7.27149 23.9667 7.49415C23.8394 7.73983 23.7788 8.0146 23.7909 8.29102C24.0311 9.96094 24.1073 11.4199 24.2596 13.0898C24.2772 13.2539 24.2538 13.4883 24.1424 13.582C23.7005 14.0746 23.1594 14.468 22.5545 14.7363ZM29.3807 14.7305C29.0174 14.9414 29.0174 15.1816 29.3104 15.1875C29.8143 15.1289 30.412 15.0879 30.8221 14.4668C30.967 14.1743 31.0507 13.8553 31.0682 13.5293C31.142 12.1288 31.0495 10.7245 30.7928 9.34571C30.7811 9.22852 30.7284 8.95313 30.746 8.91797C30.7811 8.83594 30.9452 8.92383 31.0038 8.83008C31.0858 8.74219 30.576 8.08594 30.3944 7.80469C30.3358 7.67579 30.3124 7.59376 30.201 7.81641C30.0818 8.06401 30.0449 8.34321 30.0956 8.61329C30.3651 10.4297 30.5643 11.7891 30.6053 13.3945C30.5819 13.5469 30.576 13.6289 30.5057 13.8223C30.3475 14.0215 30.1717 14.2793 30.0077 14.4023C29.8436 14.5195 29.492 14.6367 29.3807 14.7305Z" fill="white"/>
<path fill-rule="evenodd" clip-rule="evenodd" d="M29.65 13.1074C29.6539 12.6816 29.6519 12.3106 29.6441 11.9941C29.6403 11.7212 29.5805 11.452 29.4683 11.2031C29.3629 10.9629 29.4273 10.7695 29.3746 10.5117C29.3277 10.2539 29.3394 9.8672 29.2691 9.56837C29.2457 9.45118 29.1871 9.07032 29.2046 9.02931C29.2339 8.94727 29.3453 9.02931 29.4039 8.93556C29.4859 8.84767 29.1109 7.88087 28.9234 7.60548C28.8589 7.48243 28.73 7.52345 28.5836 7.72267C28.4371 7.85743 28.4898 8.15626 28.5484 8.44337C28.9058 10.3359 29.1812 12.0527 29.1226 13.8516C29.0992 14.0039 29.65 13.3945 29.65 13.1074ZM26.9722 10.7637C26.7437 10.752 26.2691 10.3125 26.1285 10.0606C26.1055 9.99898 26.0956 9.93325 26.0997 9.86763C26.1037 9.80202 26.1215 9.73799 26.1519 9.6797C26.2398 9.6211 26.3687 9.56251 26.4683 9.6211C26.4683 9.6211 26.5679 9.76173 26.5504 9.77931C26.6675 9.8379 26.7261 9.8086 26.7379 9.75587C26.7437 9.66798 26.7027 9.61524 26.7027 9.52149C26.7554 9.25196 27.0543 9.21095 27.1714 9.38087C27.2535 9.48634 27.2886 9.70313 27.2945 9.84962C27.2945 9.92579 27.1773 9.8379 27.1011 9.84962C27.0367 9.87306 27.0191 9.95509 27.0132 10.0254C27.0015 10.2188 26.9781 10.5293 26.9722 10.7578V10.7637ZM22.7652 13.5762C22.8238 13.002 22.7418 11.9766 22.7359 11.6367C22.7046 10.7627 22.6322 9.89067 22.5191 9.02345C22.4488 8.53126 22.7183 9.07618 22.6832 8.78907C22.5953 8.30274 22.3257 7.96876 22.0035 7.52931C21.9039 7.38282 21.9039 7.35352 21.7457 7.56446C21.5699 7.95704 21.7222 8.23243 21.7691 8.54298C21.9976 9.55079 22.1324 10.4766 22.1968 11.3965C22.2644 12.3521 22.2722 13.311 22.2203 14.2676C22.3961 14.2734 22.6656 13.9922 22.7652 13.5762Z" fill="white"/>
<path fill-rule="evenodd" clip-rule="evenodd" d="M30.4298 12.6563C30.0255 11.9766 29.422 11.25 29.258 10.9746C28.7146 10.2159 28.1439 9.47711 27.547 8.75977C27.049 8.23243 27.7814 8.67188 27.4533 8.26173C27.1779 7.9629 27.1017 7.86329 26.8615 7.68165C26.7443 7.60548 26.674 7.45899 26.6271 7.71095C26.6084 7.92918 26.6045 8.14843 26.6154 8.3672C26.6154 8.46681 26.7208 8.66017 26.8146 8.77735C28.0275 10.2715 29.3576 11.7949 30.424 13.7109C30.5763 13.6348 30.5236 12.7734 30.424 12.6563H30.4298Z" fill="white"/>
<path fill-rule="evenodd" clip-rule="evenodd" d="M12.1837 11.4082C12.1544 11.4609 12.09 11.5254 12.1134 11.5898C12.1525 11.6445 12.2033 11.6699 12.2658 11.666C12.3302 11.666 12.424 11.6836 12.4416 11.6484C12.4806 11.6016 12.4923 11.5371 12.4767 11.4551C12.4064 11.2793 12.2189 11.3496 12.1837 11.4082Z" fill="#165D31"/>
<path fill-rule="evenodd" clip-rule="evenodd" d="M25.7539 21.2402C26.293 21.2637 26.6445 21.2695 27.1191 21.3223L27.6816 21.2637C28.3027 21.2051 28.3262 22.1484 28.3262 22.1484C28.3262 22.7051 28.1094 22.7344 27.834 22.793C27.6758 22.8164 27.5996 22.6992 27.5117 22.582C27.3792 22.6245 27.2381 22.6326 27.1016 22.6055C26.875 22.5976 26.6504 22.5879 26.4277 22.5762C26.1934 22.5586 26.0645 22.6055 25.8242 22.582C25.7773 22.6582 25.707 22.7637 25.5664 22.7344C25.4492 22.7168 25.3027 22.3828 25.3438 22.1191C25.4316 21.9316 25.4023 21.9961 25.4023 21.9141C23.1992 21.8555 20.9785 21.7559 18.8223 21.7851C17.1348 21.791 15.4707 21.8613 13.8008 21.9316C12.9102 21.9199 12.2305 21.7793 11.7617 21.0937C11.8086 21.0937 14.0352 21.2168 14.6855 21.1758C15.8867 21.1641 16.9883 21.0644 18.2129 21.0293C20.627 21.0703 23.0234 21.0703 25.4375 21.2402C25.2031 21.082 25.2031 20.7129 25.5547 20.6191C25.584 20.5957 25.6016 20.8008 25.6543 20.7949C25.9414 20.7773 25.8125 21.1641 25.7539 21.2402ZM16.0508 7.92773C15.6875 8.9707 16.2617 10.1191 16.6602 10.0078C16.9531 10.125 17.1289 9.57421 17.2461 8.97656C17.334 8.80663 17.3926 8.78906 17.4336 8.87695C17.4219 9.67382 17.4922 9.85546 17.6973 10.0957C18.1543 10.4473 18.5352 10.1426 18.5645 10.1133L18.916 9.75585C19.002 9.66992 19.1016 9.66406 19.2148 9.73827C19.3262 9.83788 19.3086 10.0078 19.543 10.125C19.7422 10.207 20.1582 10.1484 20.2578 9.97851C20.3867 9.74999 20.4219 9.67382 20.4805 9.59179C20.5742 9.46874 20.7324 9.52148 20.7324 9.56249C20.7148 9.63281 20.6211 9.69726 20.6855 9.82617C20.8027 9.9082 20.8262 9.85546 20.8906 9.83788C21.125 9.7207 21.3008 9.21679 21.3008 9.21679C21.3066 9.02929 21.2012 9.04101 21.1309 9.08788L20.9492 9.21093C20.832 9.22851 20.6152 9.30468 20.5039 9.13476C20.3926 8.93554 20.3926 8.64843 20.3105 8.44335C20.3105 8.43163 20.1582 8.12109 20.2988 8.10351C20.3691 8.11523 20.5156 8.15624 20.5391 8.0332C20.6094 7.91015 20.3867 7.56445 20.2285 7.38867C20.0937 7.24218 19.9062 7.2246 19.7246 7.37695C19.5957 7.49413 19.6133 7.62304 19.5898 7.74609C19.5686 7.83433 19.5681 7.92631 19.5884 8.01477C19.6087 8.10324 19.6493 8.18577 19.707 8.25585C19.8359 8.50195 20.0645 8.82421 19.9883 9.28124C19.9883 9.28124 19.8535 9.49218 19.6191 9.46288C19.5195 9.44531 19.3613 9.40429 19.2793 8.77148C19.2148 8.30273 19.291 7.63476 19.0918 7.32421C19.0156 7.13085 18.9629 6.94921 18.7871 7.27148C18.7402 7.40038 18.5352 7.59374 18.6816 7.98632C18.8203 8.34009 18.8607 8.72473 18.7988 9.0996C18.7109 9.22851 18.6934 9.26953 18.582 9.39257C18.4297 9.56835 18.2598 9.52148 18.1309 9.45702C18.0137 9.38085 17.9199 9.33984 17.8613 9.07617C17.873 8.66601 17.8965 7.99218 17.8203 7.85156C17.709 7.6289 17.5273 7.71093 17.4512 7.78124C17.1034 8.16898 16.8701 8.64567 16.7773 9.1582C16.6719 9.49804 16.5605 9.39843 16.4844 9.26367C16.2969 9.08788 16.2793 7.69921 16.0508 7.92773Z" fill="white"/>
<path fill-rule="evenodd" clip-rule="evenodd" d="M17.1524 10.2012C17.3223 10.084 17.2462 10.0019 17.4923 10.248C17.8099 10.8101 17.9943 11.4375 18.0313 12.082C18.0196 12.2344 18.1251 12.3281 18.1778 12.293C18.2012 11.9414 19.0626 11.4492 19.8536 11.3789C19.9708 11.3496 19.9122 11.1211 19.9298 11.0039C19.8829 10.5644 20.1758 10.166 20.586 10.1367C21.1485 10.2187 21.336 10.5176 21.3477 10.9687C21.2833 11.8476 20.3692 11.9941 19.8594 12.0644C19.7833 12.0937 19.7481 12.1289 19.8594 12.1699L22.004 12.1816L22.1153 12.2402C22.127 12.2988 22.0801 12.2519 21.9981 12.3926C21.8809 12.6001 21.8071 12.8294 21.7813 13.0664C21.1426 13.2773 20.4805 13.3594 19.8126 13.4473C19.5782 13.5644 19.461 13.7226 19.5079 13.8984C19.5899 14.0918 20.1055 14.291 20.1055 14.2969C20.2051 14.3555 20.3165 14.5019 20.0762 14.8008C19.0333 14.7539 18.2188 14.3086 17.9376 13.6816C17.8555 13.6172 17.7618 13.6816 17.7032 13.7637C17.293 14.291 16.8946 14.7598 16.1973 15.0176C15.7872 15.123 15.3594 14.9531 15.1602 14.6836C15.0255 14.5254 15.0313 14.3555 14.9844 14.3203C14.7559 14.4199 12.8223 15.2402 13.0684 14.8535C13.5372 14.3555 14.3575 13.9805 15.0723 13.4883C15.1251 13.3183 15.2188 12.7558 15.5001 12.5742C15.5176 12.5742 15.4591 12.9023 15.4649 13.043C15.4649 13.1601 15.4532 13.2012 15.4766 13.1719C15.5294 13.1426 16.3966 12.457 16.4727 12.2461C16.5548 12.1289 16.4903 11.8242 16.4903 11.8125C16.3262 11.3906 16.0977 11.3555 16.0157 11.1445C15.9395 10.8691 15.9747 10.5527 16.1329 10.459C16.2774 10.3379 16.4317 10.3476 16.5958 10.4883C16.7716 10.6465 16.9239 10.957 16.9708 11.1855C16.9415 11.2734 16.7364 11.1269 16.6778 11.168C16.7906 11.2976 16.8656 11.4557 16.8946 11.625C17.0118 12.1055 16.9766 12.293 16.8594 12.6035C16.4727 13.418 15.9805 13.6582 15.5469 13.9629C15.5352 13.9629 15.5294 14.168 15.6876 14.2793C15.7462 14.3379 15.9747 14.3672 16.2383 14.2793C16.8005 13.965 17.2557 13.4895 17.545 12.914C17.5948 12.4754 17.5467 12.0312 17.4044 11.6133C17.2344 11.2207 17.0352 10.664 17.0352 10.6523C17.0294 10.4062 17.0469 10.3242 17.1524 10.2012ZM11.5391 7.93944C11.7852 8.05663 12.254 8.00389 12.2305 7.60546L12.2188 7.42381C12.1719 7.30663 12.0313 7.33592 12.002 7.45311C11.9903 7.49413 12.0196 7.55858 11.9844 7.57616C11.961 7.5996 11.8848 7.58788 11.8848 7.47655C11.8809 7.43749 11.8673 7.40624 11.8438 7.3828C11.836 7.37499 11.8184 7.37108 11.7911 7.37108C11.7559 7.37108 11.7559 7.37694 11.7383 7.40624C11.7305 7.43358 11.7247 7.46483 11.7208 7.49999C11.7169 7.53514 11.7012 7.55467 11.6739 7.55858C11.6387 7.55858 11.6446 7.55858 11.6153 7.54686C11.5997 7.53514 11.5899 7.51561 11.586 7.48827L11.5684 7.39452C11.5567 7.37889 11.5372 7.36717 11.5098 7.35936C11.3751 7.35936 11.3633 7.51756 11.3751 7.57616C11.3633 7.58788 11.3575 7.86327 11.5391 7.93944Z" fill="white"/>
<path fill-rule="evenodd" clip-rule="evenodd" d="M18.7755 10.9981C19.0216 11.1152 19.6134 11.0508 19.4669 10.6699L19.4552 10.4824C19.4024 10.3652 19.2677 10.3945 19.2384 10.5176C19.2266 10.5527 19.2559 10.6172 19.2149 10.6348C19.1974 10.6582 19.1153 10.6465 19.1212 10.541C19.1173 10.502 19.1036 10.4688 19.0802 10.4414C19.0684 10.4336 19.0489 10.4297 19.0216 10.4297C18.9923 10.4297 18.9923 10.4414 18.9747 10.4707C18.963 10.4981 18.9571 10.5293 18.9571 10.5645C18.9493 10.5957 18.9317 10.6152 18.9044 10.6231C18.8751 10.6231 18.8809 10.6231 18.8575 10.6055C18.838 10.5938 18.8263 10.5762 18.8224 10.5527L18.8048 10.459C18.7931 10.4395 18.7735 10.4277 18.7462 10.4238C18.6114 10.4238 18.5997 10.5762 18.6056 10.6348C18.5997 10.6465 18.5938 10.9277 18.7813 10.9981H18.7755ZM22.9942 9.73243C23.2403 9.84962 23.7032 9.79689 23.6856 9.40431L23.6739 9.21681C23.6212 9.09962 23.4864 9.12892 23.4571 9.2461C23.4454 9.28712 23.4747 9.35157 23.4337 9.37501C23.4161 9.39259 23.3341 9.38087 23.3399 9.26954C23.336 9.23048 23.3224 9.19923 23.2989 9.17579C23.2872 9.16798 23.2677 9.16407 23.2403 9.16407C23.213 9.16407 23.1974 9.17775 23.1934 9.20509L23.1759 9.29298C23.172 9.33204 23.1544 9.35157 23.1231 9.35157C23.0763 9.35157 23.0997 9.35157 23.0763 9.33985C23.0567 9.32814 23.045 9.31056 23.0411 9.28712C23.0411 9.24806 23.0352 9.21485 23.0235 9.18751C23.0079 9.17189 22.9884 9.16212 22.9649 9.15821C22.8302 9.15821 22.8184 9.31056 22.8243 9.36915C22.8184 9.38087 22.8126 9.65626 23.0001 9.73243H22.9942ZM25.1798 12.9141C24.752 13.4004 24.9395 14.2031 25.0391 14.3789C25.1798 14.6602 25.2911 14.8418 25.5665 14.9824C25.8184 15.1641 26.0177 15.0527 26.1231 14.9238C26.3751 14.6602 26.3809 13.9863 26.4981 13.8574C26.5802 13.6113 26.7911 13.6524 26.8907 13.7637C26.9848 13.8951 27.1095 14.0017 27.254 14.0742C27.4884 14.2793 27.7696 14.3203 28.0509 14.1328C28.2384 14.0215 28.3614 13.8867 28.4727 13.6113C28.5899 13.2832 28.5313 11.7598 28.502 10.8574L28.2559 9.59767C28.2559 9.58595 28.2266 9.00001 28.1974 8.86525C28.1974 8.80665 28.1798 8.78907 28.2384 8.79493C28.3028 8.85353 28.3087 8.85353 28.3556 8.8711C28.4142 8.88282 28.4727 8.7715 28.4317 8.67775L27.8458 7.5879C27.7989 7.54103 27.7345 7.49415 27.6583 7.59962C27.6124 7.63955 27.576 7.68918 27.5517 7.74492C27.5274 7.80066 27.5157 7.8611 27.5177 7.92189C27.5411 8.1836 27.5665 8.44337 27.5938 8.70118L27.8282 10.0254C27.9044 10.9629 27.922 11.7363 27.9981 12.6797C27.9864 13.0781 27.8634 13.4238 27.7462 13.4766C27.7462 13.4766 27.5704 13.5762 27.4532 13.4649C27.3653 13.4297 27.0196 12.8848 27.0196 12.8848C26.8438 12.7266 26.7267 12.7676 26.6036 12.8848C26.252 13.2246 26.0997 13.8457 25.8595 14.2793C25.8009 14.3789 25.6251 14.4551 25.4376 14.2734C24.9571 13.6113 25.2384 12.6738 25.1798 12.9141ZM23.1056 7.42384C23.3282 7.51173 23.4806 7.9629 23.4337 8.18556C23.3868 8.44923 23.2696 8.7422 23.1876 8.70704C23.0938 8.67189 23.2462 8.43751 23.1583 8.19142C23.1114 8.02735 22.8067 7.73439 22.8419 7.65236C22.7833 7.47071 22.9708 7.38868 23.1056 7.41798V7.42384Z" fill="white"/>
<path fill-rule="evenodd" clip-rule="evenodd" d="M25.8949 13.1836C25.9359 12.6445 25.8598 12.3164 25.8481 12C25.8363 11.6836 25.4906 9.26954 25.4203 9.03516C25.3324 8.57813 25.7543 8.97657 25.7074 8.70704C25.5609 8.37891 25.2035 7.89258 25.0922 7.60548C25.0219 7.48829 25.0512 7.3711 24.8988 7.57618C24.767 7.93559 24.7209 8.3208 24.7641 8.70118C25.1273 10.5938 25.4965 12.1641 25.4379 13.9629C25.6137 13.9629 25.807 13.5703 25.8949 13.1836ZM29.6684 8.18555C29.8734 8.28516 29.9906 8.84766 29.9672 9.00587C29.9262 9.29883 29.8207 9.61524 29.7445 9.57422C29.6566 9.53907 29.7621 9.14063 29.7211 9.01758C29.6742 8.8418 29.3988 8.5254 29.4281 8.43165C29.3695 8.23243 29.5453 8.1504 29.6684 8.18555ZM14.6859 12.1641C14.8793 12.2402 14.9965 12.6504 14.9789 12.7676C14.932 12.9844 14.8324 13.2188 14.7563 13.1836C14.6801 13.1602 14.7738 12.8672 14.7387 12.7734C14.7211 12.5566 14.4516 12.4395 14.4574 12.3457C14.4106 12.1699 14.5746 12.1406 14.6918 12.1641H14.6859Z" fill="white"/>
<path fill-rule="evenodd" clip-rule="evenodd" d="M19.3499 12.7852C19.5959 12.7969 19.719 12.9961 19.4905 13.0781C19.2561 13.1543 19.0393 13.2188 19.0334 13.5469C19.1213 14.0156 18.9163 13.8516 18.7991 13.793C18.6584 13.6875 18.26 13.4414 18.2014 12.9141C18.1956 12.791 18.2952 12.6797 18.4534 12.6797C18.6877 12.7441 19.0393 12.75 19.3499 12.7852Z" fill="#165D31"/>
<path fill-rule="evenodd" clip-rule="evenodd" d="M9.53529 7.28907C9.81654 7.37111 9.83411 7.79298 9.81654 7.91603C9.77552 8.13868 9.67591 8.37892 9.6056 8.34962C9.52357 8.32032 9.6056 8.01564 9.56458 7.92189C9.52357 7.79298 9.28333 7.54689 9.30677 7.47657C9.25404 7.33009 9.42396 7.25978 9.53529 7.28907ZM15.1544 9.25782C14.9318 9.37501 14.8497 9.72657 14.9845 9.93751C15.1134 10.1133 15.3126 10.0488 15.3361 10.0488C15.5529 10.0723 15.6818 9.64454 15.6818 9.64454C15.6818 9.64454 15.6876 9.52736 15.4357 9.75587C15.3243 9.77345 15.3185 9.73243 15.2892 9.67384C15.2624 9.56229 15.2727 9.44503 15.3185 9.33986C15.3595 9.23439 15.2775 9.18751 15.1544 9.25782ZM16.7951 7.12501C16.6779 7.20118 16.4611 7.4297 16.4552 7.68751C16.4493 7.834 16.4201 7.834 16.5138 7.92189C16.59 8.02736 16.6544 8.0215 16.7951 7.94533C16.8303 7.92355 16.8606 7.89453 16.8838 7.86018C16.9071 7.82584 16.9227 7.78696 16.9298 7.74611C16.965 7.58204 16.754 7.82814 16.7306 7.64064C16.6837 7.46486 16.8185 7.39454 16.9474 7.23048C16.9474 7.11329 16.9474 7.03712 16.7892 7.12501H16.7951ZM18.1076 7.35939C18.0561 7.57278 18.0247 7.79053 18.0138 8.00978C17.9786 8.17384 18.1896 8.24415 18.2775 8.03322C18.4181 7.65236 18.4181 7.48829 18.4298 7.33009C18.3888 7.07814 18.2189 7.084 18.1076 7.35939ZM26.4279 11.5957C26.4513 11.5664 27.5997 10.752 27.5997 10.752C27.7169 10.7109 27.6876 11.1738 27.6349 11.168C27.2786 11.5111 26.869 11.794 26.422 12.0059C26.3634 12.0469 26.3107 11.6953 26.422 11.5957H26.4279ZM27.465 11.584C27.6701 11.6836 27.7521 12.2754 27.7286 12.4336C27.7286 12.75 27.5353 12.9961 27.4533 12.9609C27.3712 12.9199 27.465 12.5684 27.424 12.4453C27.3771 12.2695 27.2072 11.9473 27.2365 11.8535C27.1779 11.6543 27.3419 11.5488 27.4708 11.584H27.465ZM20.6681 14.127C20.7631 14.016 20.8736 13.9193 20.9962 13.8399C21.1134 13.7813 21.2189 13.8867 21.213 13.8809C21.2306 13.9981 21.1427 14.0977 21.172 14.25C21.1954 14.3086 21.213 14.3789 21.3244 14.3555C21.506 14.209 21.6759 14.1973 21.8517 14.1914C21.9982 14.1973 22.004 14.4375 21.9103 14.4375C21.5763 14.5078 21.4298 14.6016 21.1896 14.6895C21.0724 14.7598 20.9786 14.6719 20.9786 14.666C20.9786 14.6602 20.9142 14.6016 20.9552 14.4492C20.9669 14.3242 20.9201 14.2656 20.8146 14.2734C20.7443 14.3203 20.674 14.3438 20.6388 14.2559C20.6154 14.2012 20.6251 14.1582 20.6681 14.127ZM28.672 14.4434C28.7189 14.502 28.754 14.5606 28.6661 14.666L28.4493 14.8535C28.4142 14.9121 28.3908 15.0176 28.5079 15.0469C28.7189 15.1055 29.2111 14.7832 29.2111 14.7774C29.2931 14.7188 29.2697 14.6016 29.2579 14.6016C29.2111 14.5488 29.1056 14.584 29.0353 14.5723C29.0001 14.5723 28.8888 14.5606 28.9415 14.4551C28.9812 14.4035 29.0128 14.3462 29.0353 14.2852C29.0704 14.2188 29.0314 14.166 28.9181 14.127C28.7951 14.1035 28.7423 14.1152 28.6076 14.127C28.5451 14.1348 28.5079 14.1797 28.4962 14.2617C28.5021 14.3965 28.5841 14.3906 28.672 14.4375V14.4434Z" fill="white"/>
<path fill-rule="evenodd" clip-rule="evenodd" d="M20.7094 11.1152C20.6801 11.1738 20.5747 11.1738 20.4751 11.1152C20.3755 11.0566 20.3169 10.9629 20.352 10.9102C20.3872 10.8574 20.4868 10.8574 20.5864 10.9102C20.686 10.9629 20.7387 11.0625 20.7094 11.1152ZM15.4946 7.97461C15.436 7.99218 15.354 7.93945 15.3188 7.85742C15.2837 7.77539 15.3012 7.70507 15.3598 7.6875C15.4184 7.66992 15.4946 7.72851 15.5356 7.80468C15.5766 7.88086 15.5532 7.96289 15.4887 7.98046L15.4946 7.97461ZM25.813 21.9727C26.3637 21.9961 26.8794 21.9727 27.4243 22.0019C27.5239 22.0898 27.4536 22.2949 27.3891 22.2832L26.9321 22.2656C26.9262 22.0898 26.4809 22.1191 26.4926 22.2715C26.2524 22.3008 26.0356 22.2656 25.7895 22.2539C25.7192 22.166 25.7309 22.0078 25.813 21.9727Z" fill="#165D31"/>
</g>
</g>
</g>
<rect x="0.5" y="0.5" width="39" height="29" rx="3.5" stroke="#E1DDDC"/>
<defs>
<clipPath id="clip0_3594_3642">
<rect width="40" height="30" rx="4" fill="white"/>
</clipPath>
<clipPath id="clip1_3594_3642">
<rect width="40" height="30" fill="white"/>
</clipPath>
</defs>
</svg>
