<svg width="40" height="30" viewBox="0 0 40 30" fill="none" xmlns="http://www.w3.org/2000/svg">
<g clip-path="url(#clip0_3594_3670)">
<g clip-path="url(#clip1_3594_3670)">
<mask id="mask0_3594_3670" style="mask-type:luminance" maskUnits="userSpaceOnUse" x="0" y="0" width="40" height="30">
<path d="M0 0H40V30H0V0Z" fill="white"/>
</mask>
<g mask="url(#mask0_3594_3670)">
<path fill-rule="evenodd" clip-rule="evenodd" d="M-1.25 0H43.75V30H-1.25V0Z" fill="white"/>
<path fill-rule="evenodd" clip-rule="evenodd" d="M-1.25 0H43.75V15H-1.25V0Z" fill="#DF0000"/>
<path fill-rule="evenodd" clip-rule="evenodd" d="M9.12497 2.51251C7.9411 2.76693 6.8808 3.42091 6.1221 4.36465C5.3634 5.30839 4.95248 6.48442 4.95834 7.69531C4.96421 8.90619 5.38649 10.0782 6.1543 11.0145C6.92211 11.9509 7.98869 12.5946 9.17497 12.8375C8.49539 13.0342 7.78367 13.0947 7.08063 13.0157C6.3776 12.9367 5.69707 12.7197 5.07809 12.3771C4.45911 12.0345 3.91385 11.5731 3.47359 11.0193C3.03332 10.4655 2.7067 9.83029 2.51247 9.15001C2.1267 7.78256 2.29805 6.318 2.98905 5.07654C3.68006 3.83507 4.8345 2.91771 6.19997 2.52501C7.19997 2.23751 8.12497 2.23126 9.13122 2.51251H9.12497Z" fill="white"/>
<path fill-rule="evenodd" clip-rule="evenodd" d="M8.3125 6.87501L8.61875 7.81251L7.80625 7.23751L7.00625 7.82501L7.3 6.87501L6.5 6.29376L7.49375 6.28126L7.80625 5.34376L8.11875 6.28126H9.10625L8.3125 6.87501ZM9.40625 10.125L9.71875 11.0688L8.90625 10.4938L8.1 11.075L8.4 10.1313L7.6 9.54376L8.59375 9.53751L8.9 8.59376L9.2125 9.53126H10.2125L9.40625 10.125ZM13.0625 10.1L13.3687 11.05L12.5562 10.4688L11.7563 11.05L12.05 10.1063L11.25 9.52501L12.2437 9.51251L12.5562 8.57501L12.8687 9.51251H13.8562L13.0625 10.1ZM14.15 6.87501L14.4563 7.81876L13.6438 7.24376L12.8438 7.82501L13.1438 6.88126L12.3375 6.29376L13.3375 6.28751L13.6375 5.34376L13.95 6.28126H14.95L14.15 6.87501ZM11.2563 4.73126L11.5688 5.68126L10.7563 5.10001L9.95 5.68751L10.25 4.73751L9.45 4.15001L10.4375 4.14376L10.75 3.20001L11.0625 4.13751H12.0625L11.2563 4.73126Z" fill="white"/>
</g>
</g>
</g>
<rect x="0.5" y="0.5" width="39" height="29" rx="3.5" stroke="#E1DDDC"/>
<defs>
<clipPath id="clip0_3594_3670">
<rect width="40" height="30" rx="4" fill="white"/>
</clipPath>
<clipPath id="clip1_3594_3670">
<rect width="40" height="30" fill="white"/>
</clipPath>
</defs>
</svg>
