<svg width="40" height="30" viewBox="0 0 40 30" fill="none" xmlns="http://www.w3.org/2000/svg">
<g clip-path="url(#clip0_3594_2902)">
<g clip-path="url(#clip1_3594_2902)">
<path d="M0 0H40V30H0V0Z" fill="#CE1720"/>
<mask id="mask0_3594_2902" style="mask-type:luminance" maskUnits="userSpaceOnUse" x="0" y="0" width="8" height="30">
<path d="M0.3125 0H6.92313V20.2665H7.18755V29.7331L6.92313 29.9998H0.3125V0Z" fill="white"/>
</mask>
<g mask="url(#mask0_3594_2902)">
<path d="M1.50219 0V0.466664H1.20471V0.933327H0.841127V1.46666H0.576702V1.89999H0.0478516V0.799995H0.576702V0.199999H0.0478516V0H1.50219ZM2.36157 2.56665V3.06665H2.09715V3.46664H1.83272V3.06665H1.5683V2.56665H1.30387V1.89999H1.5683V1.39999H1.83272V0.999994H2.09715V1.39999H2.36157V1.89999H2.626V2.56665H2.36157ZM1.79967 2.53332H2.1302V1.93332H1.79967V2.53332ZM0.940286 6.09996H1.20471V5.49997H0.940286V6.09996ZM2.72515 6.09996H2.98958V5.49997H2.72515V6.09996ZM0.0478516 10.1666H0.510595V10.5999H0.708914V11.1333H1.00639V11.6333H1.40303V11.1333H1.70051V10.5999H1.96493V10.1666H1.5683V9.66661H2.26241V9.99994H2.6921V10.5666H3.05569V11.1999H2.79126V11.6666H2.55989V12.0999H2.36157V12.5666H2.06409V12.9666H1.83272V13.3332H1.53524V13.7999H1.10555V13.2999H0.808073V12.8333H0.576702V12.5333H0.0478516V11.7666H0.576702V11.0999H0.0478516V10.1666Z" fill="white"/>
<path d="M5.73316 0V0.466664H6.03064V0.933327H6.39423V1.46666H6.65865V1.89999H7.1875V0.799995H6.65865V0.199999H7.1875V0H5.73316ZM4.87378 2.56665V3.06665H5.13821V3.46664H5.40263V3.06665H5.66706V2.56665H5.93148V1.89999H5.66706V1.39999H5.40263V0.999994H5.13821V1.39999H4.87378V1.89999H4.60936V2.56665H4.87378ZM5.43568 2.53332H5.10515V1.93332H5.43568V2.53332ZM6.29507 6.09996H6.03064V5.49997H6.29507V6.09996ZM4.5102 6.09996H4.24577V5.49997H4.5102V6.09996ZM7.1875 10.1666H6.72476V10.5999H6.52644V11.1333H6.22896V11.6333H5.83232V11.1333H5.53484V10.5999H5.27042V10.1666H5.66706V9.66661H4.97294V9.99994H4.54325V10.5666H4.17967V11.1999H4.44409V11.6666H4.67546V12.0999H4.87378V12.5666H5.17126V12.9666H5.40263V13.3332H5.70011V13.7999H6.1298V13.2999H6.42728V12.8333H6.65865V12.5333H7.1875V11.7666H6.65865V11.0999H7.1875V10.1666Z" fill="white"/>
<path d="M3.48538 0V1.06666H3.7498V0H4.8075V0.466664H4.54308V0.933327H4.14644V1.46666H3.88201V1.89999H3.35316V1.46666H3.08874V0.933327H2.6921V0.466664H2.42768V0H3.48538ZM3.41927 9.13328V8.76661H3.22095V8.33328H2.98958V7.86662H2.72515V7.39995H2.46073V7.06662H2.16325V6.59996H1.76661V7.06662H1.46914V7.39995H1.23776V7.86662H0.973339V8.33328H0.77502V8.76661H0.576702V9.33327H0.0478516V7.86662H0.576702V7.19995H0.0478516V6.09996H0.576702V6.56663H0.907233V7.03329H1.23776V6.56663H1.5683V6.09996H1.83272V5.49997H1.5683V5.0333H1.23776V4.56664H0.907233V5.0333H0.576702V5.49997H0.0478516V4.13331H0.576702V3.49998H0.0478516V2.56665H0.576702V2.99998H0.841127V3.53331H1.20471V3.96664H1.50219V4.46664H1.73356V4.86664H2.1963V4.46664H2.42768V3.96664H2.72515V3.53331H3.08874V2.99998H3.35316V2.56665H3.88201V2.99998H4.14644V3.53331H4.51002V3.96664H4.8075V4.46664H5.03887V4.86664H5.50162V4.46664H5.73299V3.96664H6.03047V3.53331H6.39405V2.99998H6.65848V2.56665H7.18733V3.49998H6.65848V4.13331H7.18733V5.49997H6.65848V5.0333H6.32795V4.56664H5.99741V5.0333H5.66688V5.49997H5.40246V6.09996H5.66688V6.56663H5.99741V7.03329H6.32795V6.56663H6.65848V6.09996H7.18733V7.19995H6.65848V7.86662H7.18733V9.33327H6.65848V8.76661H6.46016V8.33328H6.26184V7.86662H5.99741V7.39995H5.76604V7.06662H5.46856V6.59996H5.07193V7.06662H4.77445V7.39995H4.51002V7.86662H4.2456V8.33328H4.01423V8.76661H3.81591V9.13328H3.41927ZM3.48538 3.56664V4.46664H3.7498V3.56664H3.48538ZM3.35316 5.49997V5.0333H3.02263V4.56664H2.6921V5.0333H2.36157V5.49997H2.09715V6.09996H2.36157V6.56663H2.6921V7.03329H3.02263V6.56663H3.35316V6.09996H3.88201V6.56663H4.21255V7.03329H4.54308V6.56663H4.87361V6.09996H5.13803V5.49997H4.87361V5.0333H4.54308V4.56664H4.21255V5.0333H3.88201V5.49997H3.35316ZM3.48538 7.03329V7.93328H3.7498V7.03329H3.48538Z" fill="white"/>
<path d="M1.50219 29.9998V29.5332H1.20471V29.0665H0.841127V28.5332H0.576702V28.0998H0.0478516V29.1998H0.576702V29.7998H0.0478516V29.9998H1.50219ZM2.36157 27.4332V26.9332H2.09715V26.5332H1.83272V26.9332H1.5683V27.4332H1.30387V28.0998H1.5683V28.5998H1.83272V28.9998H2.09715V28.5998H2.36157V28.0998H2.626V27.4332H2.36157ZM1.79967 27.4665H2.1302V28.0665H1.79967V27.4665ZM0.940286 23.8999H1.20471V24.4999H0.940286V23.8999ZM2.72515 23.8999H2.98958V24.4999H2.72515V23.8999ZM0.0478516 19.8332H0.510595V19.3999H0.708914V18.8666H1.00639V18.3666H1.40303V18.8666H1.70051V19.3999H1.96493V19.8332H1.5683V20.3332H2.26241V19.9999H2.6921V19.4332H3.05569V18.7999H2.79126V18.3332H2.55989V17.8999H2.36157V17.4332H2.06409V17.0332H1.83272V16.6666H1.53524V16.1999H1.10555V16.6999H0.808073V17.1666H0.576702V17.4666H0.0478516V18.2332H0.576702V18.8999H0.0478516V19.8332Z" fill="white"/>
<path d="M5.73316 29.9998V29.5332H6.03064V29.0665H6.39423V28.5332H6.65865V28.0998H7.1875V29.1998H6.65865V29.7998H7.1875V29.9998H5.73316ZM4.87378 27.4332V26.9332H5.13821V26.5332H5.40263V26.9332H5.66706V27.4332H5.93148V28.0998H5.66706V28.5998H5.40263V28.9998H5.13821V28.5998H4.87378V28.0998H4.60936V27.4332H4.87378ZM5.43568 27.4665H5.10515V28.0665H5.43568V27.4665ZM6.29507 23.8999H6.03064V24.4999H6.29507V23.8999ZM4.5102 23.8999H4.24577V24.4999H4.5102V23.8999ZM7.1875 19.8332H6.72476V19.3999H6.52644V18.8666H6.22896V18.3666H5.83232V18.8666H5.53484V19.3999H5.27042V19.8332H5.66706V20.3332H4.97294V19.9999H4.54325V19.4332H4.17967V18.7999H4.44409V18.3332H4.67546V17.8999H4.87378V17.4332H5.17126V17.0332H5.40263V16.6666H5.70011V16.1999H6.1298V16.6999H6.42728V17.1666H6.65865V17.4666H7.1875V18.2332H6.65865V18.8999H7.1875V19.8332Z" fill="white"/>
<path d="M3.48538 29.9998V28.9332H3.7498V29.9998H4.8075V29.5332H4.54308V29.0665H4.14644V28.5332H3.88201V28.0998H3.35316V28.5332H3.08874V29.0665H2.6921V29.5332H2.42768V29.9998H3.48538ZM3.41927 20.8665V21.2332H3.22095V21.6665H2.98958V22.1332H2.72515V22.5999H2.46073V22.9332H2.16325V23.3999H1.76661V22.9332H1.46914V22.5999H1.23776V22.1332H0.973339V21.6665H0.77502V21.2332H0.576702V20.6665H0.0478516V22.1332H0.576702V22.7999H0.0478516V23.8999H0.576702V23.4332H0.907233V22.9665H1.23776V23.4332H1.5683V23.8999H1.83272V24.4999H1.5683V24.9665H1.23776V25.4332H0.907233V24.9665H0.576702V24.4999H0.0478516V25.8665H0.576702V26.4998H0.0478516V27.4332H0.576702V26.9998H0.841127V26.4665H1.20471V26.0332H1.50219V25.5332H1.73356V25.1332H2.1963V25.5332H2.42768V26.0332H2.72515V26.4665H3.08874V26.9998H3.35316V27.4332H3.88201V26.9998H4.14644V26.4665H4.51002V26.0332H4.8075V25.5332H5.03887V25.1332H5.50162V25.5332H5.73299V26.0332H6.03047V26.4665H6.39405V26.9998H6.65848V27.4332H7.18733V26.4998H6.65848V25.8665H7.18733V24.4999H6.65848V24.9665H6.32795V25.4332H5.99741V24.9665H5.66688V24.4999H5.40246V23.8999H5.66688V23.4332H5.99741V22.9665H6.32795V23.4332H6.65848V23.8999H7.18733V22.7999H6.65848V22.1332H7.18733V20.6665H6.65848V21.2332H6.46016V21.6665H6.26184V22.1332H5.99741V22.5999H5.76604V22.9332H5.46856V23.3999H5.07193V22.9332H4.77445V22.5999H4.51002V22.1332H4.2456V21.6665H4.01423V21.2332H3.81591V20.8665H3.41927ZM3.48538 26.4332V25.5332H3.7498V26.4332H3.48538ZM3.35316 24.4999V24.9665H3.02263V25.4332H2.6921V24.9665H2.36157V24.4999H2.09715V23.8999H2.36157V23.4332H2.6921V22.9665H3.02263V23.4332H3.35316V23.8999H3.88201V23.4332H4.21255V22.9665H4.54308V23.4332H4.87361V23.8999H5.13803V24.4999H4.87361V24.9665H4.54308V25.4332H4.21255V24.9665H3.88201V24.4999H3.35316ZM3.48538 22.9665V22.0665H3.7498V22.9665H3.48538Z" fill="white"/>
<path d="M0.0478516 13.5999H0.576702V14.0666H0.808073V14.3333H1.0725V14.7999H1.30387V15.1999H1.0725V15.6666H0.808073V15.9332H0.576702V16.3999H0.0478516V13.5999ZM7.18733 13.5999V16.3999H6.65848V15.9332H6.4271V15.6666H6.16268V15.1999H5.93131V14.7999H6.16268V14.3333H6.4271V14.0666H6.65848V13.5999H7.18733ZM2.36157 15.2999H2.626V14.6999H2.36157V15.2999ZM4.87361 15.2999V14.6999H4.60918V15.2999H4.87361ZM3.48538 13.3333H3.7498V12.7333H3.48538V13.3333ZM3.48538 16.6666V17.2666H3.7498V16.6666H3.48538ZM1.83272 14.1666H2.29546V13.7999H2.626V13.4666H2.79126V13.1333H2.98958V12.6666H3.254V12.1999H3.38622V11.7666H3.84896V12.1999H3.98117V12.6666H4.2456V13.1333H4.44392V13.4666H4.60918V13.7999H4.93971V14.1666H5.40246V15.8332H4.93971V16.1999H4.60918V16.5332H4.44392V16.8666H4.2456V17.3332H3.98117V17.7999H3.84896V18.2332H3.38622V17.7999H3.254V17.3332H2.98958V16.8666H2.79126V16.5332H2.626V16.1999H2.29546V15.8332H1.83272V14.1666ZM3.48538 14.4666V13.9666H3.22095V13.6333H2.95653V14.4666H3.22095V14.7666H3.38622V15.2332H3.22095V15.5332H2.95653V16.3666H3.22095V16.0332H3.48538V15.5332H3.7498V16.0332H4.01423V16.3666H4.27865V15.5332H4.01423V15.2332H3.84896V14.7666H4.01423V14.4666H4.27865V13.6333H4.01423V13.9666H3.7498V14.4666H3.48538Z" fill="white"/>
</g>
<path d="M6.875 20H40V30H6.875V20Z" fill="#007C30"/>
</g>
</g>
<rect x="0.5" y="0.5" width="39" height="29" rx="3.5" stroke="#E1DDDC"/>
<defs>
<clipPath id="clip0_3594_2902">
<rect width="40" height="30" rx="4" fill="white"/>
</clipPath>
<clipPath id="clip1_3594_2902">
<rect width="40" height="30" fill="white"/>
</clipPath>
</defs>
</svg>
