<svg width="40" height="30" viewBox="0 0 40 30" fill="none" xmlns="http://www.w3.org/2000/svg">
<g clip-path="url(#clip0_3594_245)">
<g clip-path="url(#clip1_3594_245)">
<path fill-rule="evenodd" clip-rule="evenodd" d="M0 0H40V30H0V0Z" fill="#E30A17"/>
<path fill-rule="evenodd" clip-rule="evenodd" d="M25.4375 15.4688C25.4375 19.6063 22.025 22.9625 17.8125 22.9625C13.6 22.9625 10.1875 19.6063 10.1875 15.4625C10.1875 11.3188 13.6 7.97501 17.8125 7.97501C22.025 7.97501 25.4375 11.3313 25.4375 15.4688Z" fill="white"/>
<path fill-rule="evenodd" clip-rule="evenodd" d="M25.8129 15.4688C25.8129 18.7813 23.0879 21.4625 19.7191 21.4625C16.3504 21.4625 13.6191 18.775 13.6191 15.4625C13.6191 12.15 16.3504 9.47501 19.7191 9.47501C23.0879 9.47501 25.8191 12.1563 25.8191 15.4688H25.8129Z" fill="#E30A17"/>
<path fill-rule="evenodd" clip-rule="evenodd" d="M26.9191 11.9687L26.8566 14.7375L24.2754 15.4375L26.8254 16.3437L26.7629 18.8875L28.4191 16.9L30.9316 17.775L29.4816 15.6437L31.2504 13.525L28.5316 14.275L26.9191 11.9625V11.9687Z" fill="white"/>
</g>
</g>
<rect x="0.5" y="0.5" width="39" height="29" rx="3.5" stroke="#E1DDDC"/>
<defs>
<clipPath id="clip0_3594_245">
<rect width="40" height="30" rx="4" fill="white"/>
</clipPath>
<clipPath id="clip1_3594_245">
<rect width="40" height="30" fill="white"/>
</clipPath>
</defs>
</svg>
