<svg width="40" height="30" viewBox="0 0 40 30" fill="none" xmlns="http://www.w3.org/2000/svg">
<g clip-path="url(#clip0_3594_1586)">
<g clip-path="url(#clip1_3594_1586)">
<path d="M0 20H40V30H0V20Z" fill="#1EB53A"/>
<path d="M0 0H40V10H0V0Z" fill="#0099B5"/>
<path d="M0 9.60001H40V20.4H0V9.60001Z" fill="#CE1126"/>
<path d="M0 10.2H40V19.8H0V10.2Z" fill="white"/>
<path d="M8.3998 8.40001C10.388 8.40001 11.9998 6.78824 11.9998 4.80001C11.9998 2.81179 10.388 1.20001 8.3998 1.20001C6.41158 1.20001 4.7998 2.81179 4.7998 4.80001C4.7998 6.78824 6.41158 8.40001 8.3998 8.40001Z" fill="white"/>
<path d="M9.6 8.40001C11.5882 8.40001 13.2 6.78824 13.2 4.80001C13.2 2.81179 11.5882 1.20001 9.6 1.20001C7.61178 1.20001 6 2.81179 6 4.80001C6 6.78824 7.61178 8.40001 9.6 8.40001Z" fill="#0099B5"/>
<path d="M16.3188 6.96127L16.0908 7.64527L16.4388 7.76527" fill="white"/>
<path d="M16.3189 6.96127L16.5469 7.64527L16.1989 7.76527" fill="white"/>
<path d="M17.004 7.45878L16.2831 7.45331L16.2765 7.82136" fill="white"/>
<path d="M17.0038 7.45879L16.4237 7.887L16.202 7.59311" fill="white"/>
<path d="M15.6339 7.45879L16.214 7.887L16.4357 7.59311" fill="white"/>
<path d="M15.6336 7.45878L16.3546 7.45331L16.3612 7.82136" fill="white"/>
<path d="M16.7423 8.26378L16.5247 7.57639L16.1726 7.68386" fill="white"/>
<path d="M16.7421 8.26378L16.1556 7.84443L16.3666 7.5428" fill="white"/>
<path d="M15.8956 8.26378L16.4821 7.84443L16.2711 7.5428" fill="white"/>
<path d="M15.8954 8.26378L16.113 7.57639L16.4651 7.68386" fill="white"/>
<path d="M16.3188 4.08127L16.0908 4.76527L16.4388 4.88527" fill="white"/>
<path d="M16.3189 4.08127L16.5469 4.76527L16.1989 4.88527" fill="white"/>
<path d="M17.004 4.57878L16.2831 4.57331L16.2765 4.94136" fill="white"/>
<path d="M17.0038 4.57878L16.4237 5.00699L16.202 4.71311" fill="white"/>
<path d="M15.6339 4.57878L16.214 5.00699L16.4357 4.71311" fill="white"/>
<path d="M15.6336 4.57878L16.3546 4.57331L16.3612 4.94136" fill="white"/>
<path d="M16.7423 5.38377L16.5247 4.69639L16.1726 4.80386" fill="white"/>
<path d="M16.7421 5.38378L16.1556 4.96442L16.3666 4.66279" fill="white"/>
<path d="M15.8956 5.38378L16.4821 4.96442L16.2711 4.66279" fill="white"/>
<path d="M15.8954 5.38377L16.113 4.69639L16.4651 4.80386" fill="white"/>
<path d="M16.3188 1.20126L16.0908 1.88526L16.4388 2.00526" fill="white"/>
<path d="M16.3189 1.20126L16.5469 1.88526L16.1989 2.00526" fill="white"/>
<path d="M17.004 1.69877L16.2831 1.6933L16.2765 2.06135" fill="white"/>
<path d="M17.0038 1.69878L16.4237 2.12699L16.202 1.8331" fill="white"/>
<path d="M15.6339 1.69878L16.214 2.12699L16.4357 1.8331" fill="white"/>
<path d="M15.6336 1.69877L16.3546 1.6933L16.3612 2.06135" fill="white"/>
<path d="M16.7423 2.50377L16.5247 1.81638L16.1726 1.92385" fill="white"/>
<path d="M16.7421 2.50377L16.1556 2.08442L16.3666 1.78279" fill="white"/>
<path d="M15.8956 2.50377L16.4821 2.08442L16.2711 1.78279" fill="white"/>
<path d="M15.8954 2.50377L16.113 1.81638L16.4651 1.92385" fill="white"/>
<path d="M19.1987 6.96127L18.9707 7.64527L19.3187 7.76527" fill="white"/>
<path d="M19.1988 6.96127L19.4268 7.64527L19.0788 7.76527" fill="white"/>
<path d="M19.8839 7.45878L19.163 7.45331L19.1564 7.82136" fill="white"/>
<path d="M19.8836 7.45879L19.3036 7.887L19.0819 7.59311" fill="white"/>
<path d="M18.5138 7.45879L19.0939 7.887L19.3155 7.59311" fill="white"/>
<path d="M18.5135 7.45878L19.2345 7.45331L19.2411 7.82136" fill="white"/>
<path d="M19.6222 8.26378L19.4046 7.57639L19.0525 7.68386" fill="white"/>
<path d="M19.622 8.26378L19.0355 7.84443L19.2465 7.5428" fill="white"/>
<path d="M18.7755 8.26378L19.362 7.84443L19.151 7.5428" fill="white"/>
<path d="M18.7753 8.26378L18.9929 7.57639L19.3449 7.68386" fill="white"/>
<path d="M19.1987 4.08127L18.9707 4.76527L19.3187 4.88527" fill="white"/>
<path d="M19.1988 4.08127L19.4268 4.76527L19.0788 4.88527" fill="white"/>
<path d="M19.8839 4.57878L19.163 4.57331L19.1564 4.94136" fill="white"/>
<path d="M19.8836 4.57878L19.3036 5.00699L19.0819 4.71311" fill="white"/>
<path d="M18.5138 4.57878L19.0939 5.00699L19.3155 4.71311" fill="white"/>
<path d="M18.5135 4.57878L19.2345 4.57331L19.2411 4.94136" fill="white"/>
<path d="M19.6222 5.38377L19.4046 4.69639L19.0525 4.80386" fill="white"/>
<path d="M19.622 5.38378L19.0355 4.96442L19.2465 4.66279" fill="white"/>
<path d="M18.7755 5.38378L19.362 4.96442L19.151 4.66279" fill="white"/>
<path d="M18.7753 5.38377L18.9929 4.69639L19.3449 4.80386" fill="white"/>
<path d="M19.1987 1.20126L18.9707 1.88526L19.3187 2.00526" fill="white"/>
<path d="M19.1988 1.20126L19.4268 1.88526L19.0788 2.00526" fill="white"/>
<path d="M19.8839 1.69877L19.163 1.6933L19.1564 2.06135" fill="white"/>
<path d="M19.8836 1.69878L19.3036 2.12699L19.0819 1.8331" fill="white"/>
<path d="M18.5138 1.69878L19.0939 2.12699L19.3155 1.8331" fill="white"/>
<path d="M18.5135 1.69877L19.2345 1.6933L19.2411 2.06135" fill="white"/>
<path d="M19.6222 2.50377L19.4046 1.81638L19.0525 1.92385" fill="white"/>
<path d="M19.622 2.50377L19.0355 2.08442L19.2465 1.78279" fill="white"/>
<path d="M18.7755 2.50377L19.362 2.08442L19.151 1.78279" fill="white"/>
<path d="M18.7753 2.50377L18.9929 1.81638L19.3449 1.92385" fill="white"/>
<path d="M22.0786 6.96127L21.8506 7.64527L22.1986 7.76527" fill="white"/>
<path d="M22.0786 6.96127L22.3066 7.64527L21.9586 7.76527" fill="white"/>
<path d="M22.7638 7.45878L22.0428 7.45331L22.0362 7.82136" fill="white"/>
<path d="M22.7635 7.45879L22.1835 7.887L21.9618 7.59311" fill="white"/>
<path d="M21.3937 7.45879L21.9738 7.887L22.1954 7.59311" fill="white"/>
<path d="M21.3934 7.45878L22.1144 7.45331L22.121 7.82136" fill="white"/>
<path d="M22.5021 8.26378L22.2845 7.57639L21.9324 7.68386" fill="white"/>
<path d="M22.5018 8.26378L21.9153 7.84443L22.1263 7.5428" fill="white"/>
<path d="M21.6554 8.26378L22.2419 7.84443L22.0309 7.5428" fill="white"/>
<path d="M21.6552 8.26378L21.8727 7.57639L22.2248 7.68386" fill="white"/>
<path d="M22.0786 4.08127L21.8506 4.76527L22.1986 4.88527" fill="white"/>
<path d="M22.0786 4.08127L22.3066 4.76527L21.9586 4.88527" fill="white"/>
<path d="M22.7638 4.57878L22.0428 4.57331L22.0362 4.94136" fill="white"/>
<path d="M22.7635 4.57878L22.1835 5.00699L21.9618 4.71311" fill="white"/>
<path d="M21.3937 4.57878L21.9738 5.00699L22.1954 4.71311" fill="white"/>
<path d="M21.3934 4.57878L22.1144 4.57331L22.121 4.94136" fill="white"/>
<path d="M22.5021 5.38377L22.2845 4.69639L21.9324 4.80386" fill="white"/>
<path d="M22.5018 5.38378L21.9153 4.96442L22.1263 4.66279" fill="white"/>
<path d="M21.6554 5.38378L22.2419 4.96442L22.0309 4.66279" fill="white"/>
<path d="M21.6552 5.38377L21.8727 4.69639L22.2248 4.80386" fill="white"/>
<path d="M22.0786 1.20126L21.8506 1.88526L22.1986 2.00526" fill="white"/>
<path d="M22.0786 1.20126L22.3066 1.88526L21.9586 2.00526" fill="white"/>
<path d="M22.7638 1.69877L22.0428 1.6933L22.0362 2.06135" fill="white"/>
<path d="M22.7635 1.69878L22.1835 2.12699L21.9618 1.8331" fill="white"/>
<path d="M21.3937 1.69878L21.9738 2.12699L22.1954 1.8331" fill="white"/>
<path d="M21.3934 1.69877L22.1144 1.6933L22.121 2.06135" fill="white"/>
<path d="M22.5021 2.50377L22.2845 1.81638L21.9324 1.92385" fill="white"/>
<path d="M22.5018 2.50377L21.9153 2.08442L22.1263 1.78279" fill="white"/>
<path d="M21.6554 2.50377L22.2419 2.08442L22.0309 1.78279" fill="white"/>
<path d="M21.6552 2.50377L21.8727 1.81638L22.2248 1.92385" fill="white"/>
<path d="M10.5591 6.96127L10.3311 7.64527L10.6791 7.76527" fill="white"/>
<path d="M10.5591 6.96127L10.7871 7.64527L10.4391 7.76527" fill="white"/>
<path d="M11.2443 7.45878L10.5233 7.45331L10.5167 7.82136" fill="white"/>
<path d="M11.244 7.45879L10.6639 7.887L10.4423 7.59311" fill="white"/>
<path d="M9.87417 7.45879L10.4542 7.887L10.6759 7.59311" fill="white"/>
<path d="M9.87388 7.45878L10.5949 7.45331L10.6014 7.82136" fill="white"/>
<path d="M10.9825 8.26378L10.7649 7.57639L10.4129 7.68386" fill="white"/>
<path d="M10.9823 8.26378L10.3958 7.84443L10.6068 7.5428" fill="white"/>
<path d="M10.1359 8.26378L10.7224 7.84443L10.5114 7.5428" fill="white"/>
<path d="M10.1356 8.26378L10.3532 7.57639L10.7053 7.68386" fill="white"/>
<path d="M13.4389 6.96127L13.2109 7.64527L13.5589 7.76527" fill="white"/>
<path d="M13.439 6.96127L13.667 7.64527L13.319 7.76527" fill="white"/>
<path d="M14.1242 7.45878L13.4032 7.45331L13.3966 7.82136" fill="white"/>
<path d="M14.1239 7.45879L13.5438 7.887L13.3221 7.59311" fill="white"/>
<path d="M12.754 7.45879L13.3341 7.887L13.5558 7.59311" fill="white"/>
<path d="M12.7538 7.45878L13.4747 7.45331L13.4813 7.82136" fill="white"/>
<path d="M13.8624 8.26378L13.6448 7.57639L13.2928 7.68386" fill="white"/>
<path d="M13.8622 8.26378L13.2757 7.84443L13.4867 7.5428" fill="white"/>
<path d="M13.0157 8.26378L13.6022 7.84443L13.3912 7.5428" fill="white"/>
<path d="M13.0155 8.26378L13.2331 7.57639L13.5852 7.68386" fill="white"/>
<path d="M13.4389 4.08127L13.2109 4.76527L13.5589 4.88527" fill="white"/>
<path d="M13.439 4.08127L13.667 4.76527L13.319 4.88527" fill="white"/>
<path d="M14.1242 4.57878L13.4032 4.57331L13.3966 4.94136" fill="white"/>
<path d="M14.1239 4.57878L13.5438 5.00699L13.3221 4.71311" fill="white"/>
<path d="M12.754 4.57878L13.3341 5.00699L13.5558 4.71311" fill="white"/>
<path d="M12.7538 4.57878L13.4747 4.57331L13.4813 4.94136" fill="white"/>
<path d="M13.8624 5.38377L13.6448 4.69639L13.2928 4.80386" fill="white"/>
<path d="M13.8622 5.38378L13.2757 4.96442L13.4867 4.66279" fill="white"/>
<path d="M13.0157 5.38378L13.6022 4.96442L13.3912 4.66279" fill="white"/>
<path d="M13.0155 5.38377L13.2331 4.69639L13.5852 4.80386" fill="white"/>
</g>
</g>
<rect x="0.5" y="0.5" width="39" height="29" rx="3.5" stroke="#E1DDDC"/>
<defs>
<clipPath id="clip0_3594_1586">
<rect width="40" height="30" rx="4" fill="white"/>
</clipPath>
<clipPath id="clip1_3594_1586">
<rect width="40" height="30" fill="white"/>
</clipPath>
</defs>
</svg>
