<svg width="40" height="30" viewBox="0 0 40 30" fill="none" xmlns="http://www.w3.org/2000/svg">
<g clip-path="url(#clip0_3594_3688)">
<g clip-path="url(#clip1_3594_3688)">
<path d="M0 0H40V15H0V0Z" fill="#0038A8"/>
<path d="M0 15H40V30H0V15Z" fill="#CE1126"/>
<path d="M25.9813 15L0 30V0" fill="white"/>
<path d="M1.66875 2.64999L2.5625 3.43749L3.6 2.86249L3.1375 3.95624L4.0125 4.76874L2.825 4.66874L2.31875 5.74374L2.05 4.58749L0.875 4.43749L1.89375 3.81249L1.66875 2.64999ZM21.9062 13.4187L21.9312 14.6062L23.0562 15L21.9312 15.3875L21.9062 16.575L21.1875 15.6312L20.05 15.975L20.725 15L20.05 14.025L21.1875 14.3687L21.9062 13.4187ZM2.325 24.2562L2.825 25.3312L4.0125 25.2312L3.14375 26.0437L3.60625 27.1375L2.56875 26.5687L1.66875 27.3437L1.89375 26.175L0.875 25.5625L2.05625 25.4125L2.325 24.2562ZM9.4625 8.69374L9.075 9.08124L9.26875 12.0187L9.08125 12.0375L8.725 9.35624L8.40625 9.66874L8.88125 12.0687C8.4974 12.1451 8.13221 12.2959 7.80625 12.5125L6.45 10.4875H6L7.65 12.6312L7.5 12.7562L5.55625 10.5375H5.00625V11.0875L7.21875 13.025L7.09375 13.1812L4.95 11.5375V11.9812L6.98125 13.3375C6.76458 13.6625 6.61667 14.0208 6.5375 14.4125L4.14375 13.9375L3.825 14.25L6.50625 14.6062C6.49375 14.6729 6.4875 14.7375 6.4875 14.8L3.55 14.6125L3.1625 15L3.55 15.3875L6.4875 15.1937L6.50625 15.3875L3.825 15.7437L4.1375 16.0562L6.5375 15.5812C6.61388 15.9651 6.76463 16.3303 6.98125 16.6562L4.95 18.0125V18.4625L7.09375 16.8187L7.21875 16.9687L5.00625 18.9062V19.4562H5.5625L7.5 17.2437L7.65625 17.3687L6 19.5125H6.45L7.80625 17.4812C8.13125 17.6979 8.48958 17.8458 8.88125 17.925L8.40625 20.325L8.71875 20.6375L9.075 17.9562C9.1375 17.9687 9.20208 17.975 9.26875 17.975L9.08125 20.9125L9.4625 21.3L9.85625 20.9125L9.6625 17.975L9.85 17.9562L10.2063 20.6437L10.525 20.325L10.05 17.925C10.4338 17.8486 10.799 17.6979 11.125 17.4812L12.4812 19.5125H12.9312L11.2812 17.3687L11.4312 17.2437L13.375 19.4562H13.925V18.9062L11.7125 16.9687L11.8375 16.8187L13.9812 18.4625V18.0125L11.95 16.6562C12.1667 16.3312 12.3146 15.9729 12.3938 15.5812L14.7875 16.0562L15.1062 15.7437L12.425 15.3875C12.4375 15.325 12.4438 15.2604 12.4438 15.1937L15.3813 15.3812L15.7688 15L15.3813 14.6125L12.4438 14.8L12.425 14.6125L15.1062 14.2562L14.7937 13.9437L12.3938 14.4125C12.3174 14.0286 12.1666 13.6635 11.95 13.3375L13.9812 11.9812V11.5375L11.8375 13.1812L11.7125 13.0312L13.925 11.0937V10.5375H13.375L11.4375 12.7562L11.2812 12.6312L12.9312 10.4875H12.4812L11.125 12.5125C10.8 12.2958 10.4417 12.1479 10.05 12.0687L10.525 9.67499L10.2125 9.36249L9.85625 12.0375L9.6625 12.0187L9.85 9.08124L9.4625 8.69374Z" fill="#FCD116"/>
</g>
</g>
<rect x="0.5" y="0.5" width="39" height="29" rx="3.5" stroke="#E1DDDC"/>
<defs>
<clipPath id="clip0_3594_3688">
<rect width="40" height="30" rx="4" fill="white"/>
</clipPath>
<clipPath id="clip1_3594_3688">
<rect width="40" height="30" fill="white"/>
</clipPath>
</defs>
</svg>
