<svg width="40" height="30" viewBox="0 0 40 30" fill="none" xmlns="http://www.w3.org/2000/svg">
<g clip-path="url(#clip0_3594_979)">
<g clip-path="url(#clip1_3594_979)">
<path d="M0 0H40V30H0V0Z" fill="#FFB700"/>
<path d="M1.66895 15L7.16895 1.66876H12.6689V28.3313H7.16895L1.66895 15Z" fill="#FF5B00"/>
<path d="M1.66895 1.66876H7.16895V28.3313H1.66895V1.66876Z" fill="#005641"/>
<path d="M14.3311 1.66876H38.4998V28.3313H14.3311V1.66876Z" fill="#8D2029"/>
<path d="M36.2061 25.5375C36.2061 25.5375 36.4311 25.9938 36.6811 26.1875C37.0561 26.4625 37.8061 26.4375 38.1373 26.7688C38.5186 27.15 38.1061 27.6563 38.1061 27.7063L38.1311 27.9688C38.1311 27.9688 37.8686 27.9688 37.7561 27.9875C37.5936 28.0125 37.5311 28.15 37.2186 28.1313C36.4498 28.0813 36.4811 27.3813 36.4373 26.7875C36.3998 26.5625 36.3123 26.2625 36.2561 26.0375C36.2123 25.85 36.2061 25.5375 36.2061 25.5375Z" fill="#FFB700" stroke="black" stroke-width="0.06875"/>
<path d="M16.625 25.5375C16.625 25.5375 16.4 25.9938 16.15 26.1875C15.775 26.4625 15.025 26.4375 14.6937 26.7688C14.3125 27.15 14.725 27.6563 14.725 27.7063L14.7 27.9688C14.7 27.9688 14.9625 27.9688 15.075 27.9875C15.2375 28.0125 15.3 28.15 15.6125 28.1313C16.3812 28.0813 16.35 27.3813 16.3937 26.7875C16.4312 26.5625 16.5188 26.2625 16.575 26.0375C16.6188 25.85 16.625 25.5375 16.625 25.5375Z" fill="#FFB700" stroke="black" stroke-width="0.06875"/>
<path d="M36.2061 4.46249C36.2061 4.46249 36.4311 4.00624 36.6811 3.81249C37.0561 3.53749 37.8061 3.5625 38.1373 3.23125C38.5186 2.85 38.1061 2.34374 38.1061 2.29375L38.1311 2.03124C38.1311 2.03124 37.8686 2.03124 37.7561 2.0125C37.5936 1.98749 37.5311 1.84999 37.2186 1.86874C36.4498 1.91874 36.4811 2.61874 36.4373 3.21249C36.3998 3.43749 36.3123 3.73749 36.2561 3.96249C36.2123 4.14999 36.2061 4.46249 36.2061 4.46249Z" fill="#FFB700" stroke="black" stroke-width="0.06875"/>
<path d="M16.6309 4.46249C16.6309 4.46249 16.4059 4.00624 16.1559 3.81249C15.7809 3.53749 15.0309 3.5625 14.6996 3.23125C14.3184 2.85 14.7309 2.34374 14.7309 2.29375L14.7059 2.03124C14.7059 2.03124 14.9684 2.03124 15.0809 2.0125C15.2434 1.98749 15.3059 1.84999 15.6184 1.86874C16.3871 1.91874 16.3559 2.61874 16.3996 3.21249C16.4371 3.43749 16.5246 3.73749 16.5809 3.96249C16.6246 4.14999 16.6309 4.46249 16.6309 4.46249Z" fill="#FFB700" stroke="black" stroke-width="0.06875"/>
<path d="M22.7189 21.2375L22.8627 21.15L22.9252 21.2375C23.0064 21.35 23.2377 21.3438 23.3877 21.2375L23.5064 21.1438L23.6064 21.2313C23.7314 21.35 23.9689 21.35 24.1252 21.2313C24.2314 21.1563 24.2502 21.15 24.3127 21.2125C24.3564 21.25 24.4814 21.2875 24.5877 21.3063C24.7877 21.3313 24.7877 21.3313 24.9002 21.1563C25.0002 21.0125 25.0127 20.9563 24.9939 20.8125L24.9564 20.4813C24.9439 20.3188 24.9502 20.3188 25.1814 20.2313L25.5189 20.1063C25.6127 20.05 25.8752 19.7438 25.8752 19.6813C25.8752 19.6688 25.7752 19.6438 25.6502 19.6313C25.1502 19.5729 25.0648 19.3021 25.3939 18.8188C25.9127 18.0063 26.2314 17.225 26.2314 16.7313C26.2314 16.5104 26.246 16.4271 26.2752 16.4813C26.3939 16.675 26.1814 17.5063 25.8689 18.1063L25.7439 18.3438L25.8627 18.3188C25.9252 18.3 26.3252 18.1313 26.7377 17.9438C27.8752 17.4313 28.2627 17.3313 29.0002 17.3625C29.6189 17.3875 29.8752 17.5063 30.3127 17.9625C30.5439 18.2125 30.7689 18.3813 31.1752 18.6375C32.0377 19.175 32.0752 19.225 32.1189 19.8625C32.1627 20.5 32.1377 20.5438 31.6502 20.65C31.2252 20.7459 30.9752 20.9334 30.9002 21.2125C30.8585 21.3542 30.9419 21.3563 31.1502 21.2188L31.3064 21.1188L31.3752 21.2188C31.4689 21.35 31.6564 21.35 31.8127 21.2188L31.9377 21.125L32.0627 21.2188C32.2502 21.375 32.5002 21.3375 32.5752 21.1438C32.5877 21.1104 32.6294 21.125 32.7002 21.1875C32.8439 21.3125 33.2002 21.3625 33.2377 21.2625C33.2502 21.225 33.2252 21.1375 33.1752 21.0625C32.9689 20.75 32.9002 20.6063 32.9002 20.4375C32.9002 20.2 32.9627 20.0813 33.2377 19.8938C33.5627 19.6563 33.6627 19.3563 33.4127 19.3563C33.2627 19.3563 33.1064 19.2188 33.0064 19C32.8064 18.55 32.8502 18.05 33.1502 17.2125C33.3794 16.7195 33.4947 16.1812 33.4877 15.6375C33.4877 15.175 33.4752 15.1 33.3752 14.8438C33.2971 14.6655 33.2008 14.4959 33.0877 14.3375L32.9127 14.1063L33.1314 13.9188C33.8064 13.3625 33.6689 12.45 32.8564 12.1C32.6064 11.9875 32.5439 11.9813 32.1064 11.9813C31.8564 11.9813 31.4502 12.0188 31.2314 12.0625C30.9378 12.109 30.6412 12.1341 30.3439 12.1375C29.9189 12.1375 29.8439 12.125 29.6814 12.0375C29.5127 11.95 29.4814 11.9063 29.4502 11.6938C29.4472 11.6737 29.4394 11.6547 29.4274 11.6384C29.4154 11.6221 29.3996 11.6089 29.3814 11.6C29.3189 11.5813 29.0564 11.8125 29.0189 11.9125C28.9939 11.9688 28.9814 11.9625 28.9252 11.8938C28.8718 11.8259 28.8296 11.7499 28.8002 11.6688C28.7335 11.4646 28.821 11.3063 29.0627 11.1938L29.2502 11.1063L29.1377 11.0375C28.9127 10.8938 28.5252 10.9938 28.3877 11.225C28.3439 11.2875 28.3002 11.35 28.2877 11.35C28.2752 11.35 28.2002 11.2875 28.1252 11.2063C27.8314 10.9188 27.9314 10.4938 28.3252 10.3688C28.5314 10.3 28.7189 10.35 28.7564 10.4938C28.8189 10.7 28.9939 10.425 28.9627 10.1688C28.9439 10 28.9439 9.99377 29.0627 9.99377C29.2252 9.99377 29.5627 10.2063 29.6752 10.3688C29.8002 10.5625 29.7877 10.8688 29.6502 11.0938L29.5439 11.2688L29.6877 11.2438C29.8877 11.2 30.0877 11.075 30.1877 10.9188C30.2404 10.8193 30.27 10.7091 30.2743 10.5966C30.2787 10.4841 30.2576 10.372 30.2127 10.2688C30.1189 10.1 30.1314 10.075 30.2689 10.1313C30.4939 10.225 30.6189 10.3313 30.7064 10.5125C30.7939 10.675 30.8002 10.7125 30.7564 10.8875C30.7265 10.9941 30.6801 11.0953 30.6189 11.1875C30.5439 11.2875 30.5377 11.3063 30.6002 11.3063C30.7127 11.3063 30.9377 11.2 31.0189 11.1188C31.0627 11.0688 31.1252 10.9625 31.1564 10.8688L31.2189 10.7125L31.2814 10.8375C31.3752 11.0063 31.5627 11.1625 31.7877 11.2625C32.0314 11.3625 32.1314 11.3688 32.0064 11.275C31.9189 11.2125 31.7564 10.7438 31.8127 10.7C32.0824 10.8511 32.3288 11.0406 32.5439 11.2625C32.9002 11.5813 33.1252 11.6875 33.4502 11.6875C33.8689 11.6875 34.1127 11.325 33.9252 10.9813C33.8189 10.7813 33.5752 10.75 33.4252 10.9188C33.3627 10.9938 33.3419 11.0709 33.3627 11.15C33.3877 11.25 33.3814 11.2625 33.2877 11.2625C33.1627 11.2625 32.9252 11.1063 32.5002 10.75C31.9086 10.2409 31.2286 9.84476 30.4939 9.58127C29.9963 9.46572 29.4823 9.43823 28.9752 9.50002C28.5752 9.57502 28.1002 9.80627 27.8377 10.05C27.3814 10.4875 27.3752 11.0688 27.8189 11.6L27.9439 11.75L27.8627 11.8875C27.799 11.9851 27.7672 12.1001 27.7717 12.2165C27.7762 12.3329 27.8167 12.4451 27.8877 12.5375C27.9502 12.625 28.0127 12.6938 28.0314 12.6938C28.0439 12.6854 28.0544 12.6438 28.0627 12.5688C28.0752 12.3979 28.146 12.2896 28.2752 12.2438C28.3877 12.2 28.4627 12.225 28.9752 12.4313C29.5189 12.6438 30.4127 12.6563 31.3627 12.4688C31.7746 12.3746 32.2028 12.3789 32.6127 12.4813C33.0627 12.6688 33.1627 13.15 32.8377 13.5125C32.6939 13.675 32.5627 13.7375 32.1064 13.8625C31.7093 13.9677 31.2963 13.9995 30.8877 13.9563C30.2127 13.95 29.9689 13.9625 29.7002 14.0188C29.3939 14.0813 29.2127 14.0875 28.3377 14.0688L27.3189 14.0438L27.4314 14.1313L27.6252 14.275C27.7064 14.3188 27.7002 14.325 27.5877 14.3688C27.5252 14.3938 27.3752 14.4125 27.2564 14.4125H27.0502L27.0252 14.5875C27.0084 14.67 27.0084 14.755 27.0252 14.8375C27.0502 14.8959 27.0335 14.9125 26.9752 14.8875C26.9314 14.8688 26.8127 14.8375 26.7064 14.8188C26.5993 14.7957 26.4946 14.7622 26.3939 14.7188C26.2752 14.6563 26.2627 14.6563 26.2189 14.7375C26.1814 14.8 25.8314 15.0625 25.7814 15.0625C25.7586 14.9004 25.7123 14.7425 25.6439 14.5938C25.5814 14.4625 25.5252 14.3125 25.5064 14.2688C25.4898 14.2021 25.4689 14.1959 25.4439 14.25C25.4252 14.2813 25.4002 14.375 25.3814 14.45C25.3591 14.5511 25.3211 14.6481 25.2689 14.7375L25.1752 14.875L25.1127 14.7563C25.0502 14.6313 24.9502 14.4938 24.9127 14.4938C24.9002 14.4938 24.8856 14.525 24.8689 14.5875C24.8377 14.6875 24.5939 14.9813 24.5314 14.9813C24.5127 14.9813 24.4939 14.9 24.4939 14.7938C24.4939 14.7 24.4752 14.6125 24.4502 14.6125C24.4252 14.6167 24.4106 14.6375 24.4064 14.675C24.4064 14.75 24.2002 14.9875 24.1252 14.9875C24.0919 14.9875 24.0564 15.0084 24.0189 15.05C23.9439 15.1313 23.8814 15.1188 23.9127 15.025C23.9215 14.945 23.9129 14.864 23.8877 14.7875L23.8252 14.5875C23.8169 14.5584 23.7335 14.5688 23.5752 14.6188C23.3252 14.7 23.2377 14.6813 23.3689 14.5813C23.4189 14.5438 23.4939 14.4125 23.5314 14.2938C23.5752 14.1688 23.6377 14.0625 23.6689 14.05C23.7148 14.0334 23.7106 14.0584 23.6564 14.125C23.6209 14.1729 23.5974 14.2287 23.5877 14.2875C23.5877 14.3188 23.5564 14.4 23.5252 14.4688C23.4939 14.5375 23.4627 14.5938 23.4689 14.6C23.4752 14.6063 23.5752 14.5688 23.6877 14.5188L23.8877 14.4188V14.5063C23.8877 14.5563 23.9127 14.6813 23.9439 14.7875L24.0002 14.975L24.1377 14.9125C24.2752 14.85 24.4064 14.625 24.4064 14.4438C24.4064 14.3563 24.4564 14.3688 24.4814 14.4625C24.4814 14.4875 24.5189 14.5938 24.5439 14.6938L24.6064 14.8688L24.7002 14.7563C24.7564 14.6938 24.8189 14.5688 24.8439 14.4875C24.8939 14.3375 24.9689 14.2688 24.9689 14.3813C24.9689 14.4563 25.1814 14.7438 25.2189 14.7188C25.2439 14.7063 25.2814 14.6 25.3127 14.4813C25.3752 14.2313 25.4689 14.0688 25.5314 14.1063C25.5564 14.1229 25.5627 14.1438 25.5502 14.1688C25.5377 14.1813 25.5877 14.3438 25.6627 14.5188L25.8252 14.9125C25.8502 14.975 25.8752 14.975 26.0314 14.8313C26.1252 14.7438 26.2189 14.65 26.2252 14.6188C26.2439 14.5688 26.2627 14.575 26.3502 14.6313C26.5345 14.7286 26.7363 14.7881 26.9439 14.8063C26.9564 14.7938 26.9689 14.6813 26.9689 14.5563L26.9752 14.325L27.1002 14.35C27.1627 14.3688 27.3064 14.3688 27.4127 14.35L27.6002 14.325L27.4314 14.2C27.3377 14.1375 27.2439 14.0563 27.2189 14.0188C27.1939 13.9813 27.1127 13.9438 27.0189 13.9375C26.7627 13.9125 26.3064 13.6625 26.3064 13.5375C26.3148 13.5209 26.3606 13.55 26.4439 13.625C26.6189 13.7813 26.8564 13.875 27.0689 13.875H27.2189L27.1252 13.75C27.0586 13.653 27.0158 13.5417 27.0002 13.425C26.9877 13.2375 26.9689 13.2125 26.7752 13.0813C26.6628 13.0017 26.5582 12.9117 26.4627 12.8125L26.3564 12.6938L26.3002 12.8375C26.2669 12.925 26.2398 12.9729 26.2189 12.9813C26.2064 12.9813 26.1439 12.9313 26.0939 12.875C26.0588 12.8343 26.0164 12.8004 25.9689 12.775C25.9502 12.775 25.9064 12.85 25.8564 12.9438L25.7689 13.1125L25.7064 13.0188C25.6508 12.9422 25.588 12.871 25.5189 12.8063C25.4398 12.7396 25.4127 12.7021 25.4377 12.6938C25.4627 12.6938 25.5439 12.7563 25.6252 12.8375L25.7627 12.9813L25.8252 12.875C25.8613 12.8014 25.8723 12.718 25.8564 12.6375C25.8314 12.5292 25.8377 12.5146 25.8752 12.5938C25.9291 12.6643 25.9921 12.7274 26.0627 12.7813L26.2002 12.8938L26.2939 12.725C26.3877 12.55 26.3877 12.55 26.4252 12.6563C26.4877 12.7875 26.8939 13.125 27.2377 13.3188C27.3002 13.3521 27.2794 13.2479 27.1752 13.0063C27.1455 12.9261 27.1286 12.8417 27.1252 12.7563C27.1252 12.6438 27.0939 12.5938 26.9502 12.4813C26.8612 12.4238 26.7866 12.3465 26.7324 12.2554C26.6782 12.1643 26.6458 12.0619 26.6377 11.9563C26.6189 11.85 26.5814 11.7375 26.5502 11.7C26.5127 11.6292 26.5002 11.6834 26.5127 11.8625C26.5252 11.9938 26.5064 12.1563 26.4752 12.225L26.4252 12.35L26.3877 12.2438C26.3627 12.1875 26.2627 12.0875 26.1689 12.025C26.0752 11.9625 26.0064 11.9 26.0189 11.8875C26.0314 11.875 26.1314 11.9313 26.2377 12.0125C26.4064 12.1438 26.4377 12.1563 26.4627 12.1C26.4877 12.0375 26.4627 11.75 26.4127 11.55C26.3877 11.45 26.3877 11.45 26.5127 11.575C26.596 11.6542 26.6564 11.7834 26.6939 11.9625C26.7439 12.2 26.7689 12.2438 26.9877 12.4375C27.1189 12.5563 27.2377 12.6438 27.2439 12.6375C27.2564 12.625 27.2689 12.325 27.2814 11.9625C27.3064 11.2688 27.2814 11.1 27.1127 10.8875L27.0252 10.775L27.1627 10.6313C27.3167 10.4839 27.4196 10.2912 27.4564 10.0813L27.4814 9.91252L27.3314 10.0563C27.2064 10.175 27.1439 10.2 27.0002 10.2C26.8564 10.2 26.8002 10.175 26.7064 10.075C26.5604 9.93444 26.3824 9.83148 26.1877 9.77502C26.1169 9.75002 26.0835 9.76252 26.0877 9.81252C26.0877 9.85002 26.0502 9.95002 26.0002 10.0438L25.9127 10.2063L25.7252 10.0188C25.6064 9.91252 25.4752 9.81877 25.3689 9.79377C25.1127 9.73127 25.1002 9.73127 25.1002 9.92502C25.096 10.2209 24.9794 10.2729 24.7502 10.0813C24.5752 9.93127 24.4377 9.89377 24.1064 9.93752L23.8564 9.96252L23.9002 10.075C23.9377 10.1688 23.9314 10.2125 23.8502 10.3188C23.7189 10.4938 23.5502 10.5688 23.2877 10.5688C23.1627 10.5688 23.0127 10.5938 22.9502 10.625C22.8877 10.6563 22.7252 10.6875 22.5939 10.7C22.4689 10.7125 22.3252 10.7375 22.2814 10.75C22.2189 10.775 22.2189 10.75 22.2377 10.6125C22.2689 10.4 22.1127 10.2375 21.8814 10.2375C21.5752 10.2375 21.4377 10.5125 21.5564 10.875L21.6189 11.1125C21.701 11.2688 21.8112 11.4086 21.9439 11.525C22.1064 11.6875 22.2564 11.8563 22.2814 11.9C22.3318 11.9652 22.3958 12.0185 22.4689 12.0563L22.6064 12.1313L22.5877 11.9813C22.5669 11.8146 22.6002 11.7917 22.6877 11.9125C22.7189 11.95 22.8002 12.0188 22.8627 12.0563C22.9689 12.1188 22.9877 12.1188 22.9877 12.0688C22.9877 12.0313 23.0064 11.95 23.0314 11.8875L23.0752 11.775L23.1564 11.9313C23.2002 12.0188 23.3439 12.2125 23.4752 12.3688C23.7314 12.6625 23.8939 12.9938 23.8127 13.0688C23.7752 13.1 23.6877 13.1 23.5002 13.0625C23.3627 13.0375 23.1877 13.0188 23.1127 13.0313C22.9689 13.05 22.9564 13.0313 23.0502 12.9188C23.1439 12.7938 23.1252 12.775 22.9377 12.775C22.7189 12.775 22.1752 12.6688 21.9627 12.5875C21.7627 12.5063 21.7127 12.525 21.6502 12.7188L21.5439 13.0688L21.4814 13.2563L21.7064 13.2375C21.8224 13.2254 21.9374 13.2045 22.0502 13.175C22.0945 13.1603 22.1411 13.1539 22.1877 13.1563C22.2002 13.1625 22.1689 13.2375 22.1252 13.325L22.0377 13.475L22.1752 13.45C22.2502 13.4313 22.3627 13.3938 22.4252 13.3625C22.5377 13.3125 22.5502 13.3125 22.6377 13.4563C22.7502 13.6229 22.8189 13.6167 22.8439 13.4375C22.8606 13.2459 22.9273 13.275 23.0439 13.525C23.1564 13.7625 23.2689 13.85 23.2939 13.7125C23.3064 13.6542 23.3502 13.5959 23.4252 13.5375C23.5627 13.4459 23.6606 13.4729 23.7189 13.6188C23.7814 13.775 23.6439 13.9313 23.2564 14.1688C22.8976 14.3669 22.5888 14.6445 22.3537 14.9803C22.1187 15.3161 21.9635 15.7013 21.9002 16.1063C21.7814 16.8438 22.1502 17.6063 22.8752 18.1625C23.2252 18.425 23.7814 18.7 23.7439 18.6C23.5939 18.1438 23.6002 17.2875 23.7502 17.1438C23.7752 17.1188 23.7689 17.2063 23.7314 17.3375C23.6064 17.8313 23.6689 18.2188 23.9814 19.1313C24.2564 19.9563 24.2189 20.3125 23.8189 20.5438C23.6939 20.6188 23.6127 20.6313 23.2689 20.625C22.8939 20.625 22.8502 20.625 22.7314 20.725C22.5889 20.8724 22.4951 21.06 22.4627 21.2625C22.4627 21.3417 22.546 21.3334 22.7127 21.2375H22.7189Z" fill="#FFB700" stroke="black" stroke-width="0.35"/>
<path d="M28.7811 21.2188L28.9374 21.1188L29.0436 21.2188C29.1811 21.35 29.3499 21.3438 29.4811 21.2125C29.5478 21.1459 29.5874 21.1146 29.5999 21.1188L29.6561 21.2188C29.6853 21.2729 29.7603 21.3042 29.8811 21.3125C30.0249 21.3188 30.0686 21.3125 30.1311 21.225L30.1936 21.1188L30.3499 21.2188C30.7749 21.4938 30.9999 21.2063 30.8061 20.6375C30.7124 20.35 30.7686 20.1875 31.0749 19.825C31.2061 19.6688 31.3124 19.5 31.3124 19.45C31.3124 19.3813 31.2874 19.3688 31.1124 19.375C30.9499 19.375 30.8999 19.3563 30.8124 19.2625C30.6707 19.1042 30.6791 18.925 30.8374 18.725L30.9624 18.5688L30.7374 18.4188C30.5578 18.286 30.3905 18.1375 30.2374 17.975C29.9606 17.6515 29.5678 17.4495 29.1436 17.4125L28.8499 17.3813V17.6063C28.8499 17.8875 28.9874 18.1625 29.3499 18.625C29.7624 19.15 29.7874 19.2313 29.8061 19.9188L29.8249 20.5L29.6999 20.6125C29.5936 20.7125 29.5499 20.7313 29.1999 20.75C28.8686 20.7688 28.7936 20.7875 28.6999 20.875C28.5915 20.9562 28.516 21.0739 28.4874 21.2063C28.4686 21.3 28.4749 21.3188 28.5436 21.3188C28.5874 21.3188 28.6936 21.275 28.7811 21.2188ZM19.8936 19.7188C19.9309 19.663 19.9524 19.5982 19.9561 19.5313C19.9561 19.4688 19.9936 19.4438 20.1561 19.4188L20.3499 19.3938L20.2249 19.2875C20.0686 19.1625 20.0499 19.0688 20.1874 19.0688C20.3249 19.0688 20.5499 18.9313 20.5874 18.825C20.5999 18.7667 20.5916 18.7188 20.5624 18.6813C20.4874 18.5938 20.3436 18.6063 20.3186 18.7063C20.2874 18.8063 20.2436 18.8063 20.1311 18.7063C19.9749 18.55 19.9686 18.2313 20.1311 18.0438C20.1999 17.9563 20.1999 17.9563 20.1061 17.8625C20.0061 17.7625 19.9311 17.575 19.9811 17.525C19.9936 17.5125 20.0749 17.525 20.1561 17.5563C20.2811 17.5938 20.3249 17.5938 20.3749 17.5563C20.5186 17.4375 20.3624 17.2875 20.1249 17.325C20.0332 17.3417 19.9832 17.325 19.9749 17.275C19.9624 17.2375 19.8811 17.1875 19.7874 17.1625C19.6186 17.1188 19.6186 17.1188 19.6186 17.2375C19.6186 17.3625 19.5478 17.3854 19.4061 17.3063C19.2936 17.2438 19.1874 17.2938 19.1874 17.4125C19.1874 17.525 19.2916 17.575 19.4999 17.5625C19.6499 17.5563 19.6561 17.6688 19.5124 17.8313L19.4061 17.9563L19.4874 18.075C19.6124 18.25 19.5999 18.5438 19.4686 18.6938L19.3624 18.8063L19.2936 18.7125C19.1936 18.5875 19.0624 18.5938 19.0249 18.7313C19.0061 18.8188 19.0249 18.8563 19.1374 18.9563C19.2124 19.0188 19.3249 19.0688 19.3811 19.0688C19.5249 19.0688 19.5186 19.1875 19.3686 19.3L19.2436 19.3938L19.4311 19.4188C19.5311 19.4375 19.6186 19.4625 19.6186 19.4813C19.6186 19.5625 19.7436 19.8063 19.7811 19.8063C19.8145 19.7979 19.852 19.7667 19.8936 19.7125V19.7188Z" fill="#FFB700" stroke="black" stroke-width="0.35"/>
<path d="M22.2811 18.6813C22.4498 18.6188 22.8123 18.3063 22.8123 18.2375C22.8123 18.2125 22.7123 18.1 22.5873 17.9875C22.3373 17.7625 22.0561 17.3688 21.9811 17.1438C21.9436 17.0188 21.7623 16.8188 21.2498 16.3188L20.5686 15.6625L20.3748 15.7125C20.2623 15.7375 20.1311 15.7625 20.0811 15.7625C19.9873 15.7625 19.9873 15.7625 20.1123 15.8625L20.2373 15.9625L20.4248 15.8625C20.5936 15.7625 20.5998 15.7625 20.6186 15.8438C20.6311 15.8875 20.6061 15.9688 20.5561 16.025C20.5123 16.0813 20.4873 16.15 20.4936 16.1688C20.5061 16.1938 20.4748 16.2271 20.3998 16.2688C20.2748 16.3313 20.1811 16.5375 20.2811 16.5375C20.3748 16.5375 20.5748 16.2875 20.5498 16.2063C20.5415 16.1563 20.5456 16.1229 20.5623 16.1063C20.6436 16.0625 20.6373 16.2563 20.5623 16.3563C20.5123 16.4063 20.4873 16.4688 20.4998 16.4938C20.5081 16.5188 20.4748 16.5521 20.3998 16.5938C20.2748 16.6563 20.1811 16.8625 20.2811 16.8625C20.3811 16.8625 20.5748 16.625 20.5561 16.5375C20.5436 16.4875 20.5456 16.4521 20.5623 16.4313C20.6186 16.4063 20.6436 16.5563 20.5998 16.6313C20.5864 16.6517 20.5792 16.6756 20.5792 16.7C20.5792 16.7244 20.5864 16.7483 20.5998 16.7688C20.6436 16.85 20.5998 17 20.5186 17.05C20.4852 17.0708 20.5102 17.1125 20.5936 17.175C20.7186 17.2625 20.7186 17.275 20.7186 17.675C20.7186 18.0125 20.7311 18.1 20.7936 18.1563C20.8477 18.2188 20.8727 18.2188 20.8686 18.1563C20.8623 18.0625 20.9936 18.0063 21.0873 18.0063C21.1186 18.0063 21.2998 18.1625 21.4936 18.35C21.6873 18.5375 21.8936 18.7063 21.9498 18.7125L22.0873 18.7375C22.1061 18.7375 22.1936 18.7188 22.2811 18.675V18.6813ZM20.1998 17.05C20.1998 16.9438 19.9748 16.825 19.7061 16.8C19.4873 16.7688 19.4873 16.775 19.4873 16.8813C19.4873 16.9688 19.5186 17.0063 19.6748 17.0688C19.9123 17.175 20.1998 17.1625 20.1998 17.05Z" fill="#FFB700" stroke="black" stroke-width="0.35"/>
<path d="M20.4437 17.0375C20.5562 16.9375 20.6062 16.825 20.5374 16.825C20.4687 16.825 20.2624 17 20.2624 17.075C20.2624 17.175 20.2999 17.1688 20.4499 17.0375H20.4437ZM20.2124 16.7188C20.2249 16.6646 20.177 16.6125 20.0687 16.5625C19.8187 16.4563 19.5312 16.4 19.4624 16.4563C19.3312 16.5625 19.4187 16.7 19.6249 16.725C19.7124 16.7313 19.8249 16.7563 19.8812 16.7813C20.0437 16.8438 20.1937 16.8125 20.2124 16.7188ZM20.2124 16.3875C20.2249 16.3063 20.1687 16.275 19.7124 16.1125C19.3687 15.9875 19.2187 16.05 19.3312 16.2563C19.3687 16.325 19.4312 16.3563 19.5749 16.3813C19.6812 16.3938 19.8249 16.425 19.8937 16.45C20.0853 16.5125 20.1895 16.4917 20.2062 16.3875H20.2124ZM20.4374 16.0813C20.5062 16.0125 20.5624 15.9313 20.5624 15.8938C20.5624 15.8 20.2937 15.975 20.2562 16.1C20.2228 16.2458 20.2853 16.2396 20.4437 16.0813H20.4374ZM20.2124 16.0625C20.2249 15.9625 20.0666 15.8771 19.7374 15.8063C19.4958 15.7521 19.3853 15.7813 19.4062 15.8938C19.4187 15.9563 19.4999 16 19.7187 16.0688C20.0874 16.1813 20.1937 16.1813 20.2124 16.0625ZM20.5249 15.6C20.9499 15.4125 20.9812 14.9438 20.5874 14.8188C20.4291 14.7688 20.3208 14.7979 20.2624 14.9063C20.2124 14.9938 20.2437 15.1438 20.3062 15.1438C20.3312 15.1479 20.3458 15.1688 20.3499 15.2063C20.3499 15.375 19.7124 15.4438 19.4499 15.3125C19.3562 15.2688 19.3249 15.1438 19.3937 15.1438C19.4562 15.1438 19.4937 15.0188 19.4624 14.9375C19.4208 14.8125 19.3103 14.775 19.1312 14.825C18.7374 14.925 18.7499 15.3875 19.1499 15.575C19.5928 15.7355 20.0765 15.7443 20.5249 15.6Z" fill="#FFB700" stroke="black" stroke-width="0.35"/>
<path d="M20.2691 15.2375C20.29 15.2083 20.2816 15.1792 20.2441 15.15C20.1608 15.075 20.165 14.9771 20.2566 14.8563C20.3316 14.7688 20.3379 14.6313 20.3629 13.2875C20.4066 10.9688 20.5816 9.22501 20.8066 8.80001C20.9004 8.63751 20.8879 8.63751 20.6504 8.80001C20.3388 9.01709 20.0873 9.3095 19.9191 9.65001C19.5316 10.3688 19.4004 11.3375 19.4004 13.4125C19.4004 14.5875 19.4066 14.7438 19.4754 14.85C19.5379 14.9625 19.5379 15 19.5004 15.1125C19.4691 15.1813 19.4566 15.2563 19.4691 15.2688C19.5566 15.35 20.1816 15.3313 20.2691 15.2375ZM23.7754 13.025C23.7941 13.0063 23.7629 12.9 23.7129 12.8C23.6379 12.6375 23.6066 12.6125 23.5004 12.6125C23.0006 12.5691 22.5133 12.4334 22.0629 12.2125C21.7441 12.0688 21.6254 12.0375 21.5941 12.075C21.4941 12.1688 21.6566 12.3875 21.9066 12.5063C22.2745 12.6388 22.6599 12.7167 23.0504 12.7375C23.2191 12.7375 23.2254 12.7375 23.1254 12.8813L23.0629 12.9813H23.2504L23.5629 13.0188C23.7504 13.0625 23.7504 13.0625 23.7754 13.025Z" fill="#FFB700" stroke="black" stroke-width="0.35"/>
<path d="M25.7495 14.0688C25.7495 14.0063 25.5682 13.85 25.3932 13.7438C25.2495 13.6625 25.2245 13.6563 25.2245 13.725C25.2245 13.825 25.137 14.0813 25.0995 14.0813C25.0745 14.0729 25.0537 14.0375 25.037 13.975C25.0182 13.9125 24.9495 13.7875 24.8807 13.7063L24.7557 13.55L24.6682 13.6938C24.5807 13.8313 24.4245 13.9625 24.3557 13.9625C24.3432 13.9625 24.337 13.8875 24.3557 13.8063C24.3641 13.6979 24.3537 13.6354 24.3245 13.6188C24.2953 13.6021 24.2787 13.6063 24.2745 13.6313C24.2745 13.6813 24.062 13.9188 24.0245 13.9188C23.9995 13.9146 23.9787 13.8646 23.962 13.7688L23.912 13.4688C23.9037 13.3979 23.9245 13.4396 23.9745 13.5938L24.0745 13.85L24.1745 13.6938C24.2198 13.6292 24.2536 13.5573 24.2745 13.4813C24.2745 13.4479 24.2891 13.4375 24.3182 13.45C24.3432 13.4625 24.3745 13.5688 24.387 13.6813L24.4182 13.8938L24.5307 13.7688L24.6932 13.5688C24.737 13.4938 24.7432 13.4938 24.837 13.5688C24.887 13.6188 24.9682 13.725 25.0182 13.8125C25.0682 13.9 25.112 13.9625 25.1182 13.9563L25.1557 13.7563L25.1807 13.5688C25.187 13.5375 25.5182 13.7563 25.6432 13.8625C25.7182 13.9313 25.7932 13.9813 25.8057 13.9688C25.8182 13.9563 25.8307 13.8563 25.8307 13.7375C25.8307 13.5625 25.812 13.5125 25.7057 13.4188C25.5807 13.3063 25.5807 13.3063 25.5307 13.3875C25.4682 13.4938 25.3995 13.4938 25.3995 13.3875C25.3995 13.3125 25.162 13.0188 25.1057 13.0188C25.0807 13.0271 25.0432 13.075 24.9932 13.1625C24.9182 13.2938 24.8995 13.3063 24.887 13.3063C24.8245 13.3063 24.4932 12.9313 24.4932 12.8688C24.4932 12.8146 24.5203 12.8313 24.5745 12.9188C24.6304 13.0008 24.6954 13.0763 24.7682 13.1438C24.8932 13.2563 24.9432 13.2313 24.9932 13.0125C25.0141 12.9458 25.0349 12.9083 25.0557 12.9C25.1057 12.9 25.3932 13.2063 25.4307 13.3063L25.4745 13.4063L25.5057 13.2938C25.5432 13.1604 25.5912 13.1563 25.6495 13.2813C25.6745 13.3313 25.7995 13.4438 25.9245 13.5188L26.1557 13.6688L26.1995 13.5188C26.2328 13.4354 26.2578 13.4021 26.2745 13.4188C26.2995 13.45 26.237 13.7 26.1932 13.75C26.1932 13.7563 26.112 13.7125 26.0307 13.6563L25.8745 13.5438V13.7438C25.8745 13.85 25.862 13.9813 25.8495 14.0313C25.8182 14.1313 25.7432 14.1563 25.7432 14.0688H25.7495ZM24.5932 12.4813C24.3182 12.2563 24.2807 12.2063 24.2807 12.0938L24.287 11.9813L24.3057 12.0875C24.3182 12.15 24.3932 12.25 24.4807 12.325L24.6432 12.45L24.737 12.3375C24.7932 12.275 24.837 12.2 24.837 12.175C24.837 12.1 24.8495 12.1063 25.037 12.2688C25.1995 12.4125 25.2057 12.4125 25.2245 12.3188C25.2432 12.2688 25.237 12.1688 25.2245 12.1C25.162 11.9167 25.1724 11.8833 25.2557 12L25.4057 12.175C25.4682 12.2438 25.4745 12.2438 25.4995 12.1563C25.5182 12.1 25.5307 12.0063 25.5307 11.9438V11.825L25.6745 11.9938C25.8182 12.1563 25.8307 12.1625 25.8682 12.0813C25.8995 12.0375 25.9182 11.9313 25.9182 11.85C25.9182 11.7417 25.9307 11.7083 25.9557 11.75C26.0057 11.825 25.9745 12.0125 25.887 12.175L25.8245 12.3L25.7432 12.1688C25.637 12.0063 25.5995 12.0063 25.537 12.1813C25.4787 12.3479 25.4224 12.3646 25.3682 12.2313C25.3307 12.15 25.3182 12.1625 25.2932 12.3375L25.262 12.525L25.0745 12.3813L24.887 12.2375L24.7932 12.3313C24.7495 12.3875 24.712 12.4563 24.712 12.4813C24.7078 12.5438 24.6682 12.5438 24.5932 12.4813ZM27.0307 11.6313C26.937 11.5438 26.8682 11.4563 26.8807 11.4438C26.9016 11.4229 26.9141 11.4188 26.9182 11.4313L27.1057 11.6188C27.3182 11.8438 27.2745 11.85 27.037 11.6313H27.0307ZM23.7807 11.2938C23.6932 11.1688 23.6995 11.0938 23.812 10.9563C23.887 10.8625 23.9245 10.85 24.062 10.8688C24.1557 10.875 24.3495 10.9563 24.4932 11.0438C24.7007 11.1685 24.9387 11.2334 25.1807 11.2313L25.0745 11.0563C24.9328 10.8563 24.9412 10.8208 25.0995 10.95C25.262 11.0813 25.4557 11.1188 25.8932 11.1063L26.1057 11.1L25.9807 10.975C25.812 10.8063 25.862 10.7875 26.0557 10.9563C26.2307 11.1125 26.2245 11.125 25.8432 11.1625C25.6843 11.1786 25.5237 11.168 25.3682 11.1313C25.1557 11.0688 25.1432 11.075 25.187 11.1438C25.2162 11.1896 25.2432 11.2146 25.2682 11.2188C25.2932 11.2229 25.3078 11.2396 25.312 11.2688C25.312 11.35 24.8495 11.275 24.6245 11.1688C24.1245 10.9125 24.062 10.8875 23.937 10.925C23.9031 10.9368 23.8722 10.9558 23.8463 10.9806C23.8205 11.0054 23.8002 11.0354 23.787 11.0688C23.7057 11.275 23.9995 11.4375 24.1182 11.2563C24.1557 11.2 24.1495 11.1688 24.087 11.1C23.9995 11.0167 24.012 10.9958 24.1245 11.0375C24.2057 11.0688 24.212 11.2625 24.137 11.3375C24.0557 11.4188 23.8557 11.4 23.7807 11.2938Z" fill="#000001" stroke="black" stroke-width="0.35"/>
<path d="M25.7749 10.7875C25.7124 10.725 25.7624 10.7125 26.0437 10.7062C26.3937 10.7 26.6062 10.6437 26.8562 10.4812C27.0562 10.3562 27.1124 10.3812 26.9187 10.5125C26.7499 10.6375 26.4812 10.725 26.2124 10.75L25.8937 10.7937C25.8353 10.8062 25.7937 10.8042 25.7687 10.7875H25.7749Z" fill="#000001" stroke="black" stroke-width="0.35"/>
<path d="M22.7189 21.2375L22.8627 21.15L22.9252 21.2375C23.0064 21.35 23.2377 21.3438 23.3877 21.2375L23.5064 21.1438L23.6064 21.2313C23.7314 21.35 23.9689 21.35 24.1252 21.2313C24.2314 21.1563 24.2502 21.15 24.3127 21.2125C24.3564 21.25 24.4814 21.2875 24.5877 21.3063C24.7877 21.3313 24.7877 21.3313 24.9002 21.1563C25.0002 21.0125 25.0127 20.9563 24.9939 20.8125L24.9564 20.4813C24.9439 20.3188 24.9502 20.3188 25.1814 20.2313L25.5189 20.1063C25.6127 20.05 25.8752 19.7438 25.8752 19.6813C25.8752 19.6688 25.7752 19.6438 25.6502 19.6313C25.1502 19.5729 25.0648 19.3021 25.3939 18.8188C25.9127 18.0063 26.2314 17.225 26.2314 16.7313C26.2314 16.5104 26.246 16.4271 26.2752 16.4813C26.3939 16.675 26.1814 17.5063 25.8689 18.1063L25.7439 18.3438L25.8627 18.3188C25.9252 18.3 26.3252 18.1313 26.7377 17.9438C27.8752 17.4313 28.2627 17.3313 29.0002 17.3625C29.6189 17.3875 29.8752 17.5063 30.3127 17.9625C30.5439 18.2125 30.7689 18.3813 31.1752 18.6375C32.0377 19.175 32.0752 19.225 32.1189 19.8625C32.1627 20.5 32.1377 20.5438 31.6502 20.65C31.2252 20.7459 30.9752 20.9334 30.9002 21.2125C30.8585 21.3542 30.9419 21.3563 31.1502 21.2188L31.3064 21.1188L31.3752 21.2188C31.4689 21.35 31.6564 21.35 31.8127 21.2188L31.9377 21.125L32.0627 21.2188C32.2502 21.375 32.5002 21.3375 32.5752 21.1438C32.5877 21.1104 32.6294 21.125 32.7002 21.1875C32.8439 21.3125 33.2002 21.3625 33.2377 21.2625C33.2502 21.225 33.2252 21.1375 33.1752 21.0625C32.9689 20.75 32.9002 20.6063 32.9002 20.4375C32.9002 20.2 32.9627 20.0813 33.2377 19.8938C33.5627 19.6563 33.6627 19.3563 33.4127 19.3563C33.2627 19.3563 33.1064 19.2188 33.0064 19C32.8064 18.55 32.8502 18.05 33.1502 17.2125C33.3794 16.7195 33.4947 16.1812 33.4877 15.6375C33.4877 15.175 33.4752 15.1 33.3752 14.8438C33.2971 14.6655 33.2008 14.4959 33.0877 14.3375L32.9127 14.1063L33.1314 13.9188C33.8064 13.3625 33.6689 12.45 32.8564 12.1C32.6064 11.9875 32.5439 11.9813 32.1064 11.9813C31.8564 11.9813 31.4502 12.0188 31.2314 12.0625C30.9378 12.109 30.6412 12.1341 30.3439 12.1375C29.9189 12.1375 29.8439 12.125 29.6814 12.0375C29.5127 11.95 29.4814 11.9063 29.4502 11.6938C29.4472 11.6737 29.4394 11.6547 29.4274 11.6384C29.4154 11.6221 29.3996 11.6089 29.3814 11.6C29.3189 11.5813 29.0564 11.8125 29.0189 11.9125C28.9939 11.9688 28.9814 11.9625 28.9252 11.8938C28.8718 11.8259 28.8296 11.7499 28.8002 11.6688C28.7335 11.4646 28.821 11.3063 29.0627 11.1938L29.2502 11.1063L29.1377 11.0375C28.9127 10.8938 28.5252 10.9938 28.3877 11.225C28.3439 11.2875 28.3002 11.35 28.2877 11.35C28.2752 11.35 28.2002 11.2875 28.1252 11.2063C27.8314 10.9188 27.9314 10.4938 28.3252 10.3688C28.5314 10.3 28.7189 10.35 28.7564 10.4938C28.8189 10.7 28.9939 10.425 28.9627 10.1688C28.9439 10 28.9439 9.99377 29.0627 9.99377C29.2252 9.99377 29.5627 10.2063 29.6752 10.3688C29.8002 10.5625 29.7877 10.8688 29.6502 11.0938L29.5439 11.2688L29.6877 11.2438C29.8877 11.2 30.0877 11.075 30.1877 10.9188C30.2404 10.8193 30.27 10.7091 30.2743 10.5966C30.2787 10.4841 30.2576 10.372 30.2127 10.2688C30.1189 10.1 30.1314 10.075 30.2689 10.1313C30.4939 10.225 30.6189 10.3313 30.7064 10.5125C30.7939 10.675 30.8002 10.7125 30.7564 10.8875C30.7265 10.9941 30.6801 11.0953 30.6189 11.1875C30.5439 11.2875 30.5377 11.3063 30.6002 11.3063C30.7127 11.3063 30.9377 11.2 31.0189 11.1188C31.0627 11.0688 31.1252 10.9625 31.1564 10.8688L31.2189 10.7125L31.2814 10.8375C31.3752 11.0063 31.5627 11.1625 31.7877 11.2625C32.0314 11.3625 32.1314 11.3688 32.0064 11.275C31.9189 11.2125 31.7564 10.7438 31.8127 10.7C32.0824 10.8511 32.3288 11.0406 32.5439 11.2625C32.9002 11.5813 33.1252 11.6875 33.4502 11.6875C33.8689 11.6875 34.1127 11.325 33.9252 10.9813C33.8189 10.7813 33.5752 10.75 33.4252 10.9188C33.3627 10.9938 33.3419 11.0709 33.3627 11.15C33.3877 11.25 33.3814 11.2625 33.2877 11.2625C33.1627 11.2625 32.9252 11.1063 32.5002 10.75C31.9086 10.2409 31.2286 9.84476 30.4939 9.58127C29.9963 9.46572 29.4823 9.43823 28.9752 9.50002C28.5752 9.57502 28.1002 9.80627 27.8377 10.05C27.3814 10.4875 27.3752 11.0688 27.8189 11.6L27.9439 11.75L27.8627 11.8875C27.799 11.9851 27.7672 12.1001 27.7717 12.2165C27.7762 12.3329 27.8167 12.4451 27.8877 12.5375C27.9502 12.625 28.0127 12.6938 28.0314 12.6938C28.0439 12.6854 28.0544 12.6438 28.0627 12.5688C28.0752 12.3979 28.146 12.2896 28.2752 12.2438C28.3877 12.2 28.4627 12.225 28.9752 12.4313C29.5189 12.6438 30.4127 12.6563 31.3627 12.4688C31.7746 12.3746 32.2028 12.3789 32.6127 12.4813C33.0627 12.6688 33.1627 13.15 32.8377 13.5125C32.6939 13.675 32.5627 13.7375 32.1064 13.8625C31.7093 13.9677 31.2963 13.9995 30.8877 13.9563C30.2127 13.95 29.9689 13.9625 29.7002 14.0188C29.3939 14.0813 29.2127 14.0875 28.3377 14.0688L27.3189 14.0438L27.4314 14.1313L27.6252 14.275C27.7064 14.3188 27.7002 14.325 27.5877 14.3688C27.5252 14.3938 27.3752 14.4125 27.2564 14.4125H27.0502L27.0252 14.5875C27.0084 14.67 27.0084 14.755 27.0252 14.8375C27.0502 14.8959 27.0335 14.9125 26.9752 14.8875C26.9314 14.8688 26.8127 14.8375 26.7064 14.8188C26.5993 14.7957 26.4946 14.7622 26.3939 14.7188C26.2752 14.6563 26.2627 14.6563 26.2189 14.7375C26.1814 14.8 25.8314 15.0625 25.7814 15.0625C25.7586 14.9004 25.7123 14.7425 25.6439 14.5938C25.5814 14.4625 25.5252 14.3125 25.5064 14.2688C25.4898 14.2021 25.4689 14.1959 25.4439 14.25C25.4252 14.2813 25.4002 14.375 25.3814 14.45C25.3591 14.5511 25.3211 14.6481 25.2689 14.7375L25.1752 14.875L25.1127 14.7563C25.0502 14.6313 24.9502 14.4938 24.9127 14.4938C24.9002 14.4938 24.8856 14.525 24.8689 14.5875C24.8377 14.6875 24.5939 14.9813 24.5314 14.9813C24.5127 14.9813 24.4939 14.9 24.4939 14.7938C24.4939 14.7 24.4752 14.6125 24.4502 14.6125C24.4252 14.6167 24.4106 14.6375 24.4064 14.675C24.4064 14.75 24.2002 14.9875 24.1252 14.9875C24.0919 14.9875 24.0564 15.0084 24.0189 15.05C23.9439 15.1313 23.8814 15.1188 23.9127 15.025C23.9215 14.945 23.9129 14.864 23.8877 14.7875L23.8252 14.5875C23.8169 14.5584 23.7335 14.5688 23.5752 14.6188C23.3252 14.7 23.2377 14.6813 23.3689 14.5813C23.4189 14.5438 23.4939 14.4125 23.5314 14.2938C23.5752 14.1688 23.6377 14.0625 23.6689 14.05C23.7148 14.0334 23.7106 14.0584 23.6564 14.125C23.6209 14.1729 23.5974 14.2287 23.5877 14.2875C23.5877 14.3188 23.5564 14.4 23.5252 14.4688C23.4939 14.5375 23.4627 14.5938 23.4689 14.6C23.4752 14.6063 23.5752 14.5688 23.6877 14.5188L23.8877 14.4188V14.5063C23.8877 14.5563 23.9127 14.6813 23.9439 14.7875L24.0002 14.975L24.1377 14.9125C24.2752 14.85 24.4064 14.625 24.4064 14.4438C24.4064 14.3563 24.4564 14.3688 24.4814 14.4625C24.4814 14.4875 24.5189 14.5938 24.5439 14.6938L24.6064 14.8688L24.7002 14.7563C24.7564 14.6938 24.8189 14.5688 24.8439 14.4875C24.8939 14.3375 24.9689 14.2688 24.9689 14.3813C24.9689 14.4563 25.1814 14.7438 25.2189 14.7188C25.2439 14.7063 25.2814 14.6 25.3127 14.4813C25.3752 14.2313 25.4689 14.0688 25.5314 14.1063C25.5564 14.1229 25.5627 14.1438 25.5502 14.1688C25.5377 14.1813 25.5877 14.3438 25.6627 14.5188L25.8252 14.9125C25.8502 14.975 25.8752 14.975 26.0314 14.8313C26.1252 14.7438 26.2189 14.65 26.2252 14.6188C26.2439 14.5688 26.2627 14.575 26.3502 14.6313C26.5345 14.7286 26.7363 14.7881 26.9439 14.8063C26.9564 14.7938 26.9689 14.6813 26.9689 14.5563L26.9752 14.325L27.1002 14.35C27.1627 14.3688 27.3064 14.3688 27.4127 14.35L27.6002 14.325L27.4314 14.2C27.3377 14.1375 27.2439 14.0563 27.2189 14.0188C27.1939 13.9813 27.1127 13.9438 27.0189 13.9375C26.7627 13.9125 26.3064 13.6625 26.3064 13.5375C26.3148 13.5209 26.3606 13.55 26.4439 13.625C26.6189 13.7813 26.8564 13.875 27.0689 13.875H27.2189L27.1252 13.75C27.0586 13.653 27.0158 13.5417 27.0002 13.425C26.9877 13.2375 26.9689 13.2125 26.7752 13.0813C26.6628 13.0017 26.5582 12.9117 26.4627 12.8125L26.3564 12.6938L26.3002 12.8375C26.2669 12.925 26.2398 12.9729 26.2189 12.9813C26.2064 12.9813 26.1439 12.9313 26.0939 12.875C26.0588 12.8343 26.0164 12.8004 25.9689 12.775C25.9502 12.775 25.9064 12.85 25.8564 12.9438L25.7689 13.1125L25.7064 13.0188C25.6508 12.9422 25.588 12.871 25.5189 12.8063C25.4398 12.7396 25.4127 12.7021 25.4377 12.6938C25.4627 12.6938 25.5439 12.7563 25.6252 12.8375L25.7627 12.9813L25.8252 12.875C25.8613 12.8014 25.8723 12.718 25.8564 12.6375C25.8314 12.5292 25.8377 12.5146 25.8752 12.5938C25.9291 12.6643 25.9921 12.7274 26.0627 12.7813L26.2002 12.8938L26.2939 12.725C26.3877 12.55 26.3877 12.55 26.4252 12.6563C26.4877 12.7875 26.8939 13.125 27.2377 13.3188C27.3002 13.3521 27.2794 13.2479 27.1752 13.0063C27.1455 12.9261 27.1286 12.8417 27.1252 12.7563C27.1252 12.6438 27.0939 12.5938 26.9502 12.4813C26.8612 12.4238 26.7866 12.3465 26.7324 12.2554C26.6782 12.1643 26.6458 12.0619 26.6377 11.9563C26.6189 11.85 26.5814 11.7375 26.5502 11.7C26.5127 11.6292 26.5002 11.6834 26.5127 11.8625C26.5252 11.9938 26.5064 12.1563 26.4752 12.225L26.4252 12.35L26.3877 12.2438C26.3627 12.1875 26.2627 12.0875 26.1689 12.025C26.0752 11.9625 26.0064 11.9 26.0189 11.8875C26.0314 11.875 26.1314 11.9313 26.2377 12.0125C26.4064 12.1438 26.4377 12.1563 26.4627 12.1C26.4877 12.0375 26.4627 11.75 26.4127 11.55C26.3877 11.45 26.3877 11.45 26.5127 11.575C26.596 11.6542 26.6564 11.7834 26.6939 11.9625C26.7439 12.2 26.7689 12.2438 26.9877 12.4375C27.1189 12.5563 27.2377 12.6438 27.2439 12.6375C27.2564 12.625 27.2689 12.325 27.2814 11.9625C27.3064 11.2688 27.2814 11.1 27.1127 10.8875L27.0252 10.775L27.1627 10.6313C27.3167 10.4839 27.4196 10.2912 27.4564 10.0813L27.4814 9.91252L27.3314 10.0563C27.2064 10.175 27.1439 10.2 27.0002 10.2C26.8564 10.2 26.8002 10.175 26.7064 10.075C26.5604 9.93444 26.3824 9.83148 26.1877 9.77502C26.1169 9.75002 26.0835 9.76252 26.0877 9.81252C26.0877 9.85002 26.0502 9.95002 26.0002 10.0438L25.9127 10.2063L25.7252 10.0188C25.6064 9.91252 25.4752 9.81877 25.3689 9.79377C25.1127 9.73127 25.1002 9.73127 25.1002 9.92502C25.096 10.2209 24.9794 10.2729 24.7502 10.0813C24.5752 9.93127 24.4377 9.89377 24.1064 9.93752L23.8564 9.96252L23.9002 10.075C23.9377 10.1688 23.9314 10.2125 23.8502 10.3188C23.7189 10.4938 23.5502 10.5688 23.2877 10.5688C23.1627 10.5688 23.0127 10.5938 22.9502 10.625C22.8877 10.6563 22.7252 10.6875 22.5939 10.7C22.4689 10.7125 22.3252 10.7375 22.2814 10.75C22.2189 10.775 22.2189 10.75 22.2377 10.6125C22.2689 10.4 22.1127 10.2375 21.8814 10.2375C21.5752 10.2375 21.4377 10.5125 21.5564 10.875L21.6189 11.1125C21.701 11.2688 21.8112 11.4086 21.9439 11.525C22.1064 11.6875 22.2564 11.8563 22.2814 11.9C22.3318 11.9652 22.3958 12.0185 22.4689 12.0563L22.6064 12.1313L22.5877 11.9813C22.5669 11.8146 22.6002 11.7917 22.6877 11.9125C22.7189 11.95 22.8002 12.0188 22.8627 12.0563C22.9689 12.1188 22.9877 12.1188 22.9877 12.0688C22.9877 12.0313 23.0064 11.95 23.0314 11.8875L23.0752 11.775L23.1564 11.9313C23.2002 12.0188 23.3439 12.2125 23.4752 12.3688C23.7314 12.6625 23.8939 12.9938 23.8127 13.0688C23.7752 13.1 23.6877 13.1 23.5002 13.0625C23.3627 13.0375 23.1877 13.0188 23.1127 13.0313C22.9689 13.05 22.9564 13.0313 23.0502 12.9188C23.1439 12.7938 23.1252 12.775 22.9377 12.775C22.7189 12.775 22.1752 12.6688 21.9627 12.5875C21.7627 12.5063 21.7127 12.525 21.6502 12.7188L21.5439 13.0688L21.4814 13.2563L21.7064 13.2375C21.8224 13.2254 21.9374 13.2045 22.0502 13.175C22.0945 13.1603 22.1411 13.1539 22.1877 13.1563C22.2002 13.1625 22.1689 13.2375 22.1252 13.325L22.0377 13.475L22.1752 13.45C22.2502 13.4313 22.3627 13.3938 22.4252 13.3625C22.5377 13.3125 22.5502 13.3125 22.6377 13.4563C22.7502 13.6229 22.8189 13.6167 22.8439 13.4375C22.8606 13.2459 22.9273 13.275 23.0439 13.525C23.1564 13.7625 23.2689 13.85 23.2939 13.7125C23.3064 13.6542 23.3502 13.5959 23.4252 13.5375C23.5627 13.4459 23.6606 13.4729 23.7189 13.6188C23.7814 13.775 23.6439 13.9313 23.2564 14.1688C22.8976 14.3669 22.5888 14.6445 22.3537 14.9803C22.1187 15.3161 21.9635 15.7013 21.9002 16.1063C21.7814 16.8438 22.1502 17.6063 22.8752 18.1625C23.2252 18.425 23.7814 18.7 23.7439 18.6C23.5939 18.1438 23.6002 17.2875 23.7502 17.1438C23.7752 17.1188 23.7689 17.2063 23.7314 17.3375C23.6064 17.8313 23.6689 18.2188 23.9814 19.1313C24.2564 19.9563 24.2189 20.3125 23.8189 20.5438C23.6939 20.6188 23.6127 20.6313 23.2689 20.625C22.8939 20.625 22.8502 20.625 22.7314 20.725C22.5889 20.8724 22.4951 21.06 22.4627 21.2625C22.4627 21.3417 22.546 21.3334 22.7127 21.2375H22.7189Z" fill="#FFB700"/>
<path d="M28.7811 21.2188L28.9374 21.1188L29.0436 21.2188C29.1811 21.35 29.3499 21.3438 29.4811 21.2125C29.5478 21.1459 29.5874 21.1146 29.5999 21.1188L29.6561 21.2188C29.6853 21.2729 29.7603 21.3042 29.8811 21.3125C30.0249 21.3188 30.0686 21.3125 30.1311 21.225L30.1936 21.1188L30.3499 21.2188C30.7749 21.4938 30.9999 21.2063 30.8061 20.6375C30.7124 20.35 30.7686 20.1875 31.0749 19.825C31.2061 19.6688 31.3124 19.5 31.3124 19.45C31.3124 19.3813 31.2874 19.3688 31.1124 19.375C30.9499 19.375 30.8999 19.3563 30.8124 19.2625C30.6707 19.1042 30.6791 18.925 30.8374 18.725L30.9624 18.5688L30.7374 18.4188C30.5578 18.286 30.3905 18.1375 30.2374 17.975C29.9606 17.6515 29.5678 17.4495 29.1436 17.4125L28.8499 17.3813V17.6063C28.8499 17.8875 28.9874 18.1625 29.3499 18.625C29.7624 19.15 29.7874 19.2313 29.8061 19.9188L29.8249 20.5L29.6999 20.6125C29.5936 20.7125 29.5499 20.7313 29.1999 20.75C28.8686 20.7688 28.7936 20.7875 28.6999 20.875C28.5915 20.9562 28.516 21.0739 28.4874 21.2063C28.4686 21.3 28.4749 21.3188 28.5436 21.3188C28.5874 21.3188 28.6936 21.275 28.7811 21.2188ZM19.8936 19.7188C19.9309 19.663 19.9524 19.5982 19.9561 19.5313C19.9561 19.4688 19.9936 19.4438 20.1561 19.4188L20.3499 19.3938L20.2249 19.2875C20.0686 19.1625 20.0499 19.0688 20.1874 19.0688C20.3249 19.0688 20.5499 18.9313 20.5874 18.825C20.5999 18.7667 20.5916 18.7188 20.5624 18.6813C20.4874 18.5938 20.3436 18.6063 20.3186 18.7063C20.2874 18.8063 20.2436 18.8063 20.1311 18.7063C19.9749 18.55 19.9686 18.2313 20.1311 18.0438C20.1999 17.9563 20.1999 17.9563 20.1061 17.8625C20.0061 17.7625 19.9311 17.575 19.9811 17.525C19.9936 17.5125 20.0749 17.525 20.1561 17.5563C20.2811 17.5938 20.3249 17.5938 20.3749 17.5563C20.5186 17.4375 20.3624 17.2875 20.1249 17.325C20.0332 17.3417 19.9832 17.325 19.9749 17.275C19.9624 17.2375 19.8811 17.1875 19.7874 17.1625C19.6186 17.1188 19.6186 17.1188 19.6186 17.2375C19.6186 17.3625 19.5478 17.3854 19.4061 17.3063C19.2936 17.2438 19.1874 17.2938 19.1874 17.4125C19.1874 17.525 19.2916 17.575 19.4999 17.5625C19.6499 17.5563 19.6561 17.6688 19.5124 17.8313L19.4061 17.9563L19.4874 18.075C19.6124 18.25 19.5999 18.5438 19.4686 18.6938L19.3624 18.8063L19.2936 18.7125C19.1936 18.5875 19.0624 18.5938 19.0249 18.7313C19.0061 18.8188 19.0249 18.8563 19.1374 18.9563C19.2124 19.0188 19.3249 19.0688 19.3811 19.0688C19.5249 19.0688 19.5186 19.1875 19.3686 19.3L19.2436 19.3938L19.4311 19.4188C19.5311 19.4375 19.6186 19.4625 19.6186 19.4813C19.6186 19.5625 19.7436 19.8063 19.7811 19.8063C19.8145 19.7979 19.852 19.7667 19.8936 19.7125V19.7188Z" fill="#FFB700"/>
<path d="M22.2811 18.6813C22.4498 18.6188 22.8123 18.3063 22.8123 18.2375C22.8123 18.2125 22.7123 18.1 22.5873 17.9875C22.3373 17.7625 22.0561 17.3688 21.9811 17.1438C21.9436 17.0188 21.7623 16.8188 21.2498 16.3188L20.5686 15.6625L20.3748 15.7125C20.2623 15.7375 20.1311 15.7625 20.0811 15.7625C19.9873 15.7625 19.9873 15.7625 20.1123 15.8625L20.2373 15.9625L20.4248 15.8625C20.5936 15.7625 20.5998 15.7625 20.6186 15.8438C20.6311 15.8875 20.6061 15.9688 20.5561 16.025C20.5123 16.0813 20.4873 16.15 20.4936 16.1688C20.5061 16.1938 20.4748 16.2271 20.3998 16.2688C20.2748 16.3313 20.1811 16.5375 20.2811 16.5375C20.3748 16.5375 20.5748 16.2875 20.5498 16.2063C20.5415 16.1563 20.5456 16.1229 20.5623 16.1063C20.6436 16.0625 20.6373 16.2563 20.5623 16.3563C20.5123 16.4063 20.4873 16.4688 20.4998 16.4938C20.5081 16.5188 20.4748 16.5521 20.3998 16.5938C20.2748 16.6563 20.1811 16.8625 20.2811 16.8625C20.3811 16.8625 20.5748 16.625 20.5561 16.5375C20.5436 16.4875 20.5456 16.4521 20.5623 16.4313C20.6186 16.4063 20.6436 16.5563 20.5998 16.6313C20.5864 16.6517 20.5792 16.6756 20.5792 16.7C20.5792 16.7244 20.5864 16.7483 20.5998 16.7688C20.6436 16.85 20.5998 17 20.5186 17.05C20.4852 17.0708 20.5102 17.1125 20.5936 17.175C20.7186 17.2625 20.7186 17.275 20.7186 17.675C20.7186 18.0125 20.7311 18.1 20.7936 18.1563C20.8477 18.2188 20.8727 18.2188 20.8686 18.1563C20.8623 18.0625 20.9936 18.0063 21.0873 18.0063C21.1186 18.0063 21.2998 18.1625 21.4936 18.35C21.6873 18.5375 21.8936 18.7063 21.9498 18.7125L22.0873 18.7375C22.1061 18.7375 22.1936 18.7188 22.2811 18.675V18.6813ZM20.1998 17.05C20.1998 16.9438 19.9748 16.825 19.7061 16.8C19.4873 16.7688 19.4873 16.775 19.4873 16.8813C19.4873 16.9688 19.5186 17.0063 19.6748 17.0688C19.9123 17.175 20.1998 17.1625 20.1998 17.05Z" fill="#FFB700"/>
<path d="M20.4437 17.0375C20.5562 16.9375 20.6062 16.825 20.5374 16.825C20.4687 16.825 20.2624 17 20.2624 17.075C20.2624 17.175 20.2999 17.1688 20.4499 17.0375H20.4437ZM20.2124 16.7188C20.2249 16.6646 20.177 16.6125 20.0687 16.5625C19.8187 16.4563 19.5312 16.4 19.4624 16.4563C19.3312 16.5625 19.4187 16.7 19.6249 16.725C19.7124 16.7313 19.8249 16.7563 19.8812 16.7813C20.0437 16.8438 20.1937 16.8125 20.2124 16.7188ZM20.2124 16.3875C20.2249 16.3063 20.1687 16.275 19.7124 16.1125C19.3687 15.9875 19.2187 16.05 19.3312 16.2563C19.3687 16.325 19.4312 16.3563 19.5749 16.3813C19.6812 16.3938 19.8249 16.425 19.8937 16.45C20.0853 16.5125 20.1895 16.4917 20.2062 16.3875H20.2124ZM20.4374 16.0813C20.5062 16.0125 20.5624 15.9313 20.5624 15.8938C20.5624 15.8 20.2937 15.975 20.2562 16.1C20.2228 16.2458 20.2853 16.2396 20.4437 16.0813H20.4374ZM20.2124 16.0625C20.2249 15.9625 20.0666 15.8771 19.7374 15.8063C19.4958 15.7521 19.3853 15.7813 19.4062 15.8938C19.4187 15.9563 19.4999 16 19.7187 16.0688C20.0874 16.1813 20.1937 16.1813 20.2124 16.0625ZM20.5249 15.6C20.9499 15.4125 20.9812 14.9438 20.5874 14.8188C20.4291 14.7688 20.3208 14.7979 20.2624 14.9063C20.2124 14.9938 20.2437 15.1438 20.3062 15.1438C20.3312 15.1479 20.3458 15.1688 20.3499 15.2063C20.3499 15.375 19.7124 15.4438 19.4499 15.3125C19.3562 15.2688 19.3249 15.1438 19.3937 15.1438C19.4562 15.1438 19.4937 15.0188 19.4624 14.9375C19.4208 14.8125 19.3103 14.775 19.1312 14.825C18.7374 14.925 18.7499 15.3875 19.1499 15.575C19.5928 15.7355 20.0765 15.7443 20.5249 15.6Z" fill="#FFB700"/>
<path d="M20.2691 15.2375C20.29 15.2083 20.2816 15.1792 20.2441 15.15C20.1608 15.075 20.165 14.9771 20.2566 14.8563C20.3316 14.7688 20.3379 14.6313 20.3629 13.2875C20.4066 10.9688 20.5816 9.22501 20.8066 8.80001C20.9004 8.63751 20.8879 8.63751 20.6504 8.80001C20.3388 9.01709 20.0873 9.3095 19.9191 9.65001C19.5316 10.3688 19.4004 11.3375 19.4004 13.4125C19.4004 14.5875 19.4066 14.7438 19.4754 14.85C19.5379 14.9625 19.5379 15 19.5004 15.1125C19.4691 15.1813 19.4566 15.2563 19.4691 15.2688C19.5566 15.35 20.1816 15.3313 20.2691 15.2375ZM23.7754 13.025C23.7941 13.0063 23.7629 12.9 23.7129 12.8C23.6379 12.6375 23.6066 12.6125 23.5004 12.6125C23.0006 12.5691 22.5133 12.4334 22.0629 12.2125C21.7441 12.0688 21.6254 12.0375 21.5941 12.075C21.4941 12.1688 21.6566 12.3875 21.9066 12.5063C22.2745 12.6388 22.6599 12.7167 23.0504 12.7375C23.2191 12.7375 23.2254 12.7375 23.1254 12.8813L23.0629 12.9813H23.2504L23.5629 13.0188C23.7504 13.0625 23.7504 13.0625 23.7754 13.025Z" fill="#FFB700"/>
<path d="M25.7495 14.0688C25.7495 14.0063 25.5682 13.85 25.3932 13.7438C25.2495 13.6625 25.2245 13.6563 25.2245 13.725C25.2245 13.825 25.137 14.0813 25.0995 14.0813C25.0745 14.0729 25.0537 14.0375 25.037 13.975C25.0182 13.9125 24.9495 13.7875 24.8807 13.7063L24.7557 13.55L24.6682 13.6938C24.5807 13.8313 24.4245 13.9625 24.3557 13.9625C24.3432 13.9625 24.337 13.8875 24.3557 13.8063C24.3641 13.6979 24.3537 13.6354 24.3245 13.6188C24.2953 13.6021 24.2787 13.6063 24.2745 13.6313C24.2745 13.6813 24.062 13.9188 24.0245 13.9188C23.9995 13.9146 23.9787 13.8646 23.962 13.7688L23.912 13.4688C23.9037 13.3979 23.9245 13.4396 23.9745 13.5938L24.0745 13.85L24.1745 13.6938C24.2198 13.6292 24.2536 13.5573 24.2745 13.4813C24.2745 13.4479 24.2891 13.4375 24.3182 13.45C24.3432 13.4625 24.3745 13.5688 24.387 13.6813L24.4182 13.8938L24.5307 13.7688L24.6932 13.5688C24.737 13.4938 24.7432 13.4938 24.837 13.5688C24.887 13.6188 24.9682 13.725 25.0182 13.8125C25.0682 13.9 25.112 13.9625 25.1182 13.9563L25.1557 13.7563L25.1807 13.5688C25.187 13.5375 25.5182 13.7563 25.6432 13.8625C25.7182 13.9313 25.7932 13.9813 25.8057 13.9688C25.8182 13.9563 25.8307 13.8563 25.8307 13.7375C25.8307 13.5625 25.812 13.5125 25.7057 13.4188C25.5807 13.3063 25.5807 13.3063 25.5307 13.3875C25.4682 13.4938 25.3995 13.4938 25.3995 13.3875C25.3995 13.3125 25.162 13.0188 25.1057 13.0188C25.0807 13.0271 25.0432 13.075 24.9932 13.1625C24.9182 13.2938 24.8995 13.3063 24.887 13.3063C24.8245 13.3063 24.4932 12.9313 24.4932 12.8688C24.4932 12.8146 24.5203 12.8313 24.5745 12.9188C24.6304 13.0008 24.6954 13.0763 24.7682 13.1438C24.8932 13.2563 24.9432 13.2313 24.9932 13.0125C25.0141 12.9458 25.0349 12.9083 25.0557 12.9C25.1057 12.9 25.3932 13.2063 25.4307 13.3063L25.4745 13.4063L25.5057 13.2938C25.5432 13.1604 25.5912 13.1563 25.6495 13.2813C25.6745 13.3313 25.7995 13.4438 25.9245 13.5188L26.1557 13.6688L26.1995 13.5188C26.2328 13.4354 26.2578 13.4021 26.2745 13.4188C26.2995 13.45 26.237 13.7 26.1932 13.75C26.1932 13.7563 26.112 13.7125 26.0307 13.6563L25.8745 13.5438V13.7438C25.8745 13.85 25.862 13.9813 25.8495 14.0313C25.8182 14.1313 25.7432 14.1563 25.7432 14.0688H25.7495ZM24.5932 12.4813C24.3182 12.2563 24.2807 12.2063 24.2807 12.0938L24.287 11.9813L24.3057 12.0875C24.3182 12.15 24.3932 12.25 24.4807 12.325L24.6432 12.45L24.737 12.3375C24.7932 12.275 24.837 12.2 24.837 12.175C24.837 12.1 24.8495 12.1063 25.037 12.2688C25.1995 12.4125 25.2057 12.4125 25.2245 12.3188C25.2432 12.2688 25.237 12.1688 25.2245 12.1C25.162 11.9167 25.1724 11.8833 25.2557 12L25.4057 12.175C25.4682 12.2438 25.4745 12.2438 25.4995 12.1563C25.5182 12.1 25.5307 12.0063 25.5307 11.9438V11.825L25.6745 11.9938C25.8182 12.1563 25.8307 12.1625 25.8682 12.0813C25.8995 12.0375 25.9182 11.9313 25.9182 11.85C25.9182 11.7417 25.9307 11.7083 25.9557 11.75C26.0057 11.825 25.9745 12.0125 25.887 12.175L25.8245 12.3L25.7432 12.1688C25.637 12.0063 25.5995 12.0063 25.537 12.1813C25.4787 12.3479 25.4224 12.3646 25.3682 12.2313C25.3307 12.15 25.3182 12.1625 25.2932 12.3375L25.262 12.525L25.0745 12.3813L24.887 12.2375L24.7932 12.3313C24.7495 12.3875 24.712 12.4563 24.712 12.4813C24.7078 12.5438 24.6682 12.5438 24.5932 12.4813ZM27.0307 11.6313C26.937 11.5438 26.8682 11.4563 26.8807 11.4438C26.9016 11.4229 26.9141 11.4188 26.9182 11.4313L27.1057 11.6188C27.3182 11.8438 27.2745 11.85 27.037 11.6313H27.0307ZM23.7807 11.2938C23.6932 11.1688 23.6995 11.0938 23.812 10.9563C23.887 10.8625 23.9245 10.85 24.062 10.8688C24.1557 10.875 24.3495 10.9563 24.4932 11.0438C24.7007 11.1685 24.9387 11.2334 25.1807 11.2313L25.0745 11.0563C24.9328 10.8563 24.9412 10.8208 25.0995 10.95C25.262 11.0813 25.4557 11.1188 25.8932 11.1063L26.1057 11.1L25.9807 10.975C25.812 10.8063 25.862 10.7875 26.0557 10.9563C26.2307 11.1125 26.2245 11.125 25.8432 11.1625C25.6843 11.1786 25.5237 11.168 25.3682 11.1313C25.1557 11.0688 25.1432 11.075 25.187 11.1438C25.2162 11.1896 25.2432 11.2146 25.2682 11.2188C25.2932 11.2229 25.3078 11.2396 25.312 11.2688C25.312 11.35 24.8495 11.275 24.6245 11.1688C24.1245 10.9125 24.062 10.8875 23.937 10.925C23.9031 10.9368 23.8722 10.9558 23.8463 10.9806C23.8205 11.0054 23.8002 11.0354 23.787 11.0688C23.7057 11.275 23.9995 11.4375 24.1182 11.2563C24.1557 11.2 24.1495 11.1688 24.087 11.1C23.9995 11.0167 24.012 10.9958 24.1245 11.0375C24.2057 11.0688 24.212 11.2625 24.137 11.3375C24.0557 11.4188 23.8557 11.4 23.7807 11.2938Z" fill="#000001"/>
<path d="M25.7749 10.7875C25.7124 10.725 25.7624 10.7125 26.0437 10.7062C26.3937 10.7 26.6062 10.6437 26.8562 10.4812C27.0562 10.3562 27.1124 10.3812 26.9187 10.5125C26.7499 10.6375 26.4812 10.725 26.2124 10.75L25.8937 10.7937C25.8353 10.8062 25.7937 10.8042 25.7687 10.7875H25.7749Z" fill="#000001"/>
</g>
</g>
<rect x="0.5" y="0.5" width="39" height="29" rx="3.5" stroke="#E1DDDC"/>
<defs>
<clipPath id="clip0_3594_979">
<rect width="40" height="30" rx="4" fill="white"/>
</clipPath>
<clipPath id="clip1_3594_979">
<rect width="40" height="30" fill="white"/>
</clipPath>
</defs>
</svg>
