<svg width="40" height="30" viewBox="0 0 40 30" fill="none" xmlns="http://www.w3.org/2000/svg">
<g clip-path="url(#clip0_3594_3703)">
<g clip-path="url(#clip1_3594_3703)">
<mask id="mask0_3594_3703" style="mask-type:luminance" maskUnits="userSpaceOnUse" x="-1" y="0" width="42" height="31">
<path d="M-0.000976562 0.0015564H40.001V30.0016H-0.000976562V0.0015564Z" fill="white"/>
</mask>
<g mask="url(#mask0_3594_3703)">
<path fill-rule="evenodd" clip-rule="evenodd" d="M-0.000976562 0.0015564H40.0068V30.0016H-0.000976562V0.0015564Z" fill="white"/>
<path fill-rule="evenodd" clip-rule="evenodd" d="M4.38281 9.11337L8.54415 2.87371L9.58409 3.56727L5.42276 9.80693L4.38281 9.11337ZM5.94273 10.1537L10.1041 3.91405L11.144 4.6076L6.98267 10.8473L5.94273 10.1537ZM7.50264 11.194L11.664 4.95438L12.7039 5.64794L8.54258 11.8876L7.50264 11.194Z" fill="#000001"/>
<path fill-rule="evenodd" clip-rule="evenodd" d="M27.2617 24.3716L31.4231 18.132L32.463 18.8255L28.3017 25.0652L27.2617 24.3716ZM28.8216 25.4119L32.983 19.1723L34.0229 19.8658L29.8616 26.1055L28.8216 25.4119ZM30.3815 26.4523L34.5429 20.2126L35.5828 20.9062L31.4215 27.1458L30.3815 26.4523Z" fill="#000001"/>
<path fill-rule="evenodd" clip-rule="evenodd" d="M28.8223 20.905L34.022 24.3728L28.8223 20.905Z" fill="black"/>
<path d="M28.8223 20.905L34.022 24.3728" stroke="white" stroke-width="0.625"/>
<path fill-rule="evenodd" clip-rule="evenodd" d="M13.7432 10.8484C14.8468 9.19359 16.5627 8.04493 18.5132 7.65517C20.4638 7.26541 22.4893 7.66647 24.1442 8.77013C25.799 9.87378 26.9477 11.5896 27.3374 13.5402C27.7272 15.4908 27.3261 17.5163 26.2225 19.1711L13.7432 10.8484Z" fill="#CD2E3A"/>
<path fill-rule="evenodd" clip-rule="evenodd" d="M13.7424 10.8484C12.6387 12.5033 12.2377 14.5288 12.6274 16.4794C13.0172 18.4299 14.1659 20.1458 15.8207 21.2494C17.4756 22.3531 19.5011 22.7542 21.4516 22.3644C23.4022 21.9746 25.1181 20.826 26.2217 19.1711C26.7735 18.3437 26.9741 17.3309 26.7792 16.3556C26.5843 15.3804 26.01 14.5224 25.1825 13.9706C24.3551 13.4188 23.3424 13.2183 22.3671 13.4131C21.3918 13.608 20.5339 14.1824 19.982 15.0098L13.7424 10.8484Z" fill="#0047A0"/>
<path d="M19.9824 15.0098C21.1316 13.2868 20.6663 10.9584 18.9433 9.8093C17.2202 8.66018 14.8919 9.12543 13.7428 10.8485C12.5937 12.5715 13.0589 14.8998 14.7819 16.049C16.505 17.1981 18.8333 16.7328 19.9824 15.0098Z" fill="#CD2E3A"/>
<path fill-rule="evenodd" clip-rule="evenodd" d="M8.56055 27.1482L4.39921 20.9086L5.43915 20.215L9.60049 26.4547L8.56055 27.1482ZM10.1205 26.1079L5.95913 19.8682L6.99907 19.1747L11.1604 25.4143L10.1205 26.1079ZM11.6804 25.0676L7.51904 18.8279L8.55898 18.1343L12.7203 24.374L11.6804 25.0676Z" fill="#000001"/>
<path fill-rule="evenodd" clip-rule="evenodd" d="M31.4395 11.89L27.2781 5.65033L28.3181 4.95677L32.4794 11.1964L31.4395 11.89ZM32.9994 10.8497L28.838 4.60999L29.878 3.91644L34.0393 10.1561L32.9994 10.8497ZM34.5593 9.80932L30.3979 3.56966L31.4379 2.8761L35.5992 9.11576L34.5593 9.80932Z" fill="#000001"/>
<path fill-rule="evenodd" clip-rule="evenodd" d="M7.78027 23.1614L9.34019 22.1211L7.78027 23.1614ZM28.8391 9.11693L30.659 7.90321L28.8391 9.11693ZM32.2189 6.86288L33.7788 5.82254L32.2189 6.86288Z" fill="black"/>
<path d="M7.78027 23.1614L9.34019 22.1211M28.8391 9.11693L30.659 7.90321M32.2189 6.86288L33.7788 5.82254" stroke="white" stroke-width="0.625"/>
</g>
</g>
</g>
<rect x="0.5" y="0.5" width="39" height="29" rx="3.5" stroke="#E1DDDC"/>
<defs>
<clipPath id="clip0_3594_3703">
<rect width="40" height="30" rx="4" fill="white"/>
</clipPath>
<clipPath id="clip1_3594_3703">
<rect width="40" height="30" fill="white"/>
</clipPath>
</defs>
</svg>
