<svg width="57" height="34" viewBox="0 0 57 34" fill="none" xmlns="http://www.w3.org/2000/svg">
<path d="M56.667 17C56.667 26.3282 49.0824 34 39.667 34C30.3388 34 22.667 26.3282 22.667 17C22.667 7.67179 30.2516 0 39.5798 0C49.0824 0 56.667 7.67179 56.667 17Z" fill="#F9B50B"/>
<path d="M33.9128 17.0872C33.9128 15.8667 33.7385 14.6462 33.5641 13.5128H23.1026C23.1897 12.9026 23.3641 12.3795 23.5385 11.6821H32.8667C32.6923 11.0718 32.4308 10.4615 32.1692 9.85128H24.2359C24.4974 9.24103 24.8462 8.71795 25.1949 8.02051H31.2103C30.8615 7.41026 30.4256 6.8 29.9026 6.18974H26.5897C27.1128 5.57949 27.6359 5.05641 28.3333 4.44615C25.3692 1.65641 21.359 0 16.9128 0C7.67179 0.261538 0 7.67179 0 17C0 26.3282 7.58462 34 17 34C21.4462 34 25.3692 32.2564 28.4205 29.5538C29.0308 29.0308 29.5538 28.4205 30.1641 27.7231H26.6769C26.241 27.2 25.8051 26.5897 25.4564 25.9795H31.3846C31.7333 25.4564 32.0821 24.8462 32.3436 24.1487H24.4103C24.1487 23.6256 23.8872 23.0154 23.7128 22.3179H33.041C33.5641 20.7487 33.9128 19.0051 33.9128 17.0872Z" fill="#C8191C"/>
<path d="M23.0158 21.3591L23.2773 19.7899C23.1901 19.7899 23.0158 19.8771 22.8414 19.8771C22.2312 19.8771 22.144 19.5283 22.2312 19.354L22.7542 16.2155H23.7132L23.9748 14.4719H23.103L23.2773 13.4258H21.4465C21.4465 13.4258 20.4004 19.354 20.4004 20.0514C20.4004 21.0976 21.0106 21.6207 21.8824 21.6207C22.4055 21.6207 22.8414 21.4463 23.0158 21.3591Z" fill="white"/>
<path d="M23.626 18.4823C23.626 21.0105 25.3696 21.6207 26.7644 21.6207C28.0721 21.6207 28.6824 21.3592 28.6824 21.3592L29.0311 19.6156C29.0311 19.6156 28.0721 20.0515 27.1132 20.0515C25.108 20.0515 25.4567 18.5695 25.4567 18.5695H29.1183C29.1183 18.5695 29.3798 17.4361 29.3798 16.913C29.3798 15.7797 28.7696 14.2977 26.7644 14.2977C25.0208 14.2105 23.626 16.2156 23.626 18.4823ZM26.7644 15.8669C27.7234 15.8669 27.5491 17.0002 27.5491 17.0874H25.5439C25.6311 17.0002 25.8055 15.8669 26.7644 15.8669Z" fill="white"/>
<path d="M38.1841 21.3588L38.5328 19.3537C38.5328 19.3537 37.661 19.7896 36.9636 19.7896C35.7431 19.7896 35.1328 18.8306 35.1328 17.6973C35.1328 15.5178 36.1789 14.3845 37.4866 14.3845C38.3584 14.3845 39.1431 14.9076 39.1431 14.9076L39.4046 12.9896C39.4046 12.9896 38.3584 12.5537 37.3123 12.5537C35.22 12.5537 33.2148 14.3845 33.2148 17.7845C33.2148 20.0511 34.261 21.5332 36.4405 21.5332C37.2251 21.6204 38.1841 21.3588 38.1841 21.3588Z" fill="white"/>
<path d="M13.1646 14.21C11.9441 14.21 10.9852 14.5587 10.9852 14.5587L10.7236 16.1279C10.7236 16.1279 11.5082 15.7792 12.7288 15.7792C13.339 15.7792 13.8621 15.8664 13.8621 16.3894C13.8621 16.7382 13.7749 16.8253 13.7749 16.8253H12.9903C11.4211 16.8253 9.76465 17.4356 9.76465 19.5279C9.76465 21.1843 10.8108 21.533 11.5082 21.533C12.7288 21.533 13.339 20.7484 13.4262 20.7484L13.339 21.4459H14.8211L15.5185 16.4766C15.5185 14.2971 13.7749 14.21 13.1646 14.21ZM13.5134 18.2202C13.5134 18.4818 13.339 19.9638 12.2929 19.9638C11.7698 19.9638 11.5954 19.5279 11.5954 19.2664C11.5954 18.8305 11.857 18.2202 13.2518 18.2202C13.4262 18.2202 13.5134 18.2202 13.5134 18.2202Z" fill="white"/>
<path d="M17.2615 21.5338C17.6974 21.5338 19.9641 21.621 19.9641 19.1799C19.9641 16.9133 17.7846 17.3492 17.7846 16.4774C17.7846 16.0415 18.1333 15.8671 18.7436 15.8671C19.0051 15.8671 19.9641 15.9543 19.9641 15.9543L20.2256 14.2979C20.2256 14.2979 19.6154 14.1235 18.482 14.1235C17.1743 14.1235 15.7795 14.6466 15.7795 16.4774C15.7795 18.5697 18.0461 18.3953 18.0461 19.1799C18.0461 19.703 17.4359 19.7902 17 19.7902C16.2154 19.7902 15.3436 19.5287 15.3436 19.5287L15.082 21.1851C15.2564 21.3594 15.7795 21.5338 17.2615 21.5338Z" fill="white"/>
<path d="M53.1797 12.8154L52.831 15.2565C52.831 15.2565 52.1336 14.3847 51.0874 14.3847C49.431 14.3847 48.0361 16.3898 48.0361 18.7436C48.0361 20.2257 48.7336 21.7077 50.3028 21.7077C51.349 21.7077 52.0464 21.0103 52.0464 21.0103L51.9592 21.6206H53.79L55.0977 12.9898L53.1797 12.8154ZM52.3079 17.5231C52.3079 18.4821 51.872 19.7898 50.8259 19.7898C50.2156 19.7898 49.8669 19.2667 49.8669 18.3077C49.8669 16.8257 50.4772 15.9539 51.349 15.9539C51.9592 16.0411 52.3079 16.477 52.3079 17.5231Z" fill="white"/>
<path d="M3.31195 21.4462L4.3581 14.9949L4.53246 21.4462H5.75297L8.10682 14.9949L7.14785 21.4462H9.06579L10.5478 12.8154H7.58374L5.75297 18.1334L5.6658 12.8154H3.05041L1.56836 21.4462H3.31195Z" fill="white"/>
<path d="M31.2102 21.4458C31.7333 18.4817 31.8205 16.0407 33.1282 16.4766C33.3025 15.3433 33.5641 14.8202 33.7384 14.3843H33.3897C32.6051 14.3843 31.9076 15.4304 31.9076 15.4304L32.082 14.4715H30.3384L29.2051 21.4458H31.2102Z" fill="white"/>
<path d="M42.3697 14.21C41.1492 14.21 40.1902 14.5587 40.1902 14.5587L39.9287 16.1279C39.9287 16.1279 40.7133 15.7792 41.9338 15.7792C42.5441 15.7792 43.0672 15.8664 43.0672 16.3894C43.0672 16.7382 42.98 16.8253 42.98 16.8253H42.1954C40.6261 16.8253 38.9697 17.4356 38.9697 19.5279C38.9697 21.1843 40.0159 21.533 40.7133 21.533C41.9338 21.533 42.5441 20.7484 42.6313 20.7484L42.5441 21.4459H44.2005L44.8979 16.4766C44.8979 14.2971 42.98 14.21 42.3697 14.21ZM42.8056 18.2202C42.8056 18.4818 42.6313 19.9638 41.5851 19.9638C41.062 19.9638 40.8877 19.5279 40.8877 19.2664C40.8877 18.8305 41.1492 18.2202 42.5441 18.2202C42.7184 18.2202 42.7184 18.2202 42.8056 18.2202Z" fill="white"/>
<path d="M46.2922 21.4458C46.8153 18.4817 46.9025 16.0407 48.2102 16.4766C48.3845 15.3433 48.6461 14.8202 48.8204 14.3843H48.4717C47.6871 14.3843 46.9897 15.4304 46.9897 15.4304L47.164 14.4715H45.4204L44.2871 21.4458H46.2922Z" fill="white"/>
</svg>
